M48
INCH,TZ
T1C0.0157
T2C0.0394
T3C0.0433
T4C0.0354
T5C0.1500
%
G90
G05
T1
X18240Y-47780
X18240Y-56370
X19240Y-47770
X22290Y-36370
X22670Y-33170
X22950Y-33620
X23270Y-34030
X23719Y-36367
X24030Y-30900
X24347Y-33302
X24500Y-35840
X24500Y-66500
X24500Y-67500
X24500Y-68500
X24500Y-69500
X24500Y-70500
X24530Y-30880
X24740Y-33530
X24772Y-36136
X24810Y-35190
X24810Y-35573
X25070Y-36440
X25240Y-35130
X25300Y-33280
X25355Y-36943
X25466Y-37301
X25500Y-66500
X25892Y-32611
X26010Y-33580
X26256Y-38070
X26260Y-32962
X26500Y-66500
X26520Y-31795
X26560Y-38290
X26570Y-64700
X26749Y-32962
X26770Y-68290
X26880Y-36726
X26890Y-39870
X27080Y-37060
X27194Y-31497
X27240Y-32850
X27378Y-48352
X27500Y-66500
X27660Y-32820
X27666Y-37169
X27760Y-31470
X28060Y-33300
X28390Y-45640
X28499Y-33362
X28500Y-66500
X28780Y-43240
X28830Y-31380
X28880Y-32720
X29410Y-31660
X29420Y-32850
X29500Y-66500
X29710Y-39065
X29730Y-59540
X29740Y-58830
X29850Y-52070
X30070Y-58480
X30070Y-59180
X30150Y-39065
X30360Y-31860
X30370Y-48600
X30500Y-66500
X30540Y-39065
X30550Y-17930
X30600Y-34383
X30800Y-48590
X30870Y-39270
X31290Y-48560
X31500Y-66500
X31500Y-68300
X31740Y-48550
X32060Y-45630
X32500Y-66500
X32580Y-55200
X32910Y-57700
X33500Y-66500
X34070Y-17940
X34460Y-18760
X34500Y-66500
X35500Y-66500
X35820Y-34420
X35870Y-68300
X36140Y-34830
X36500Y-66500
X36590Y-33880
X36890Y-49010
X36980Y-33540
X37380Y-49390
X37500Y-66500
X37810Y-51403
X38181Y-44749
X38420Y-46170
X38500Y-66500
X39150Y-45920
X39500Y-66500
X40190Y-45470
X40190Y-47010
X40370Y-68300
X40500Y-66500
X40929Y-48743
X41500Y-66500
X41700Y-48710
X42340Y-45430
X42410Y-48700
X42500Y-66500
X43500Y-66500
X44500Y-66500
X44800Y-68290
X45150Y-20410
X45500Y-66500
X45720Y-52010
X46500Y-66500
X47500Y-66500
X48500Y-66500
X48700Y-20420
X48700Y-50730
X48870Y-49770
X49140Y-21250
X49330Y-68300
X49440Y-50430
X49500Y-66500
X49830Y-52323
X49910Y-50470
X50500Y-66500
X51500Y-66500
X51500Y-68500
X51500Y-69500
X51500Y-70500
X51680Y-49690
X51690Y-50140
X52170Y-62360
X52310Y-52890
X54630Y-53580
X55200Y-62360
X55710Y-49390
X55790Y-53480
X55790Y-54207
X55870Y-53030
X55900Y-52520
X55980Y-64980
X56240Y-49010
X56315Y-68852
X57130Y-67520
X57240Y-64840
X57560Y-68680
X58080Y-48540
X58140Y-49080
X58150Y-61860
X58310Y-68490
X59590Y-51070
X59650Y-60950
X61660Y-59340
T2
X16500Y-70500
X17500Y-70500
X18500Y-70500
X19500Y-70500
X20500Y-70500
X21500Y-70500
X17800Y-12820
X17800Y-13820
X18800Y-12820
X18800Y-13820
X19800Y-12820
X19800Y-13820
X38820Y-10650
X38820Y-11650
X39820Y-10650
X39820Y-11650
X40820Y-10650
X40820Y-11650
T3
X22630Y-45810
X22630Y-47810
T4
X17901Y-45710
X20579Y-45710
T5
X61417Y-50315
X14213Y-50315
T0
M30
