G04 #@! TF.GenerationSoftware,KiCad,Pcbnew,(5.0.2)-1*
G04 #@! TF.CreationDate,2019-03-20T23:13:41-06:00*
G04 #@! TF.ProjectId,Hak4Kidz2019,48616b34-4b69-4647-9a32-3031392e6b69,rev?*
G04 #@! TF.SameCoordinates,Original*
G04 #@! TF.FileFunction,Copper,L1,Top*
G04 #@! TF.FilePolarity,Positive*
%FSLAX46Y46*%
G04 Gerber Fmt 4.6, Leading zero omitted, Abs format (unit mm)*
G04 Created by KiCad (PCBNEW (5.0.2)-1) date 3/20/2019 11:13:41 PM*
%MOMM*%
%LPD*%
G01*
G04 APERTURE LIST*
G04 #@! TA.AperFunction,Conductor*
%ADD10C,8.000000*%
G04 #@! TD*
G04 #@! TA.AperFunction,ComponentPad*
%ADD11C,2.200000*%
G04 #@! TD*
G04 #@! TA.AperFunction,ComponentPad*
%ADD12O,1.700000X1.700000*%
G04 #@! TD*
G04 #@! TA.AperFunction,ComponentPad*
%ADD13R,1.700000X1.700000*%
G04 #@! TD*
G04 #@! TA.AperFunction,SMDPad,CuDef*
%ADD14R,3.000000X0.400000*%
G04 #@! TD*
G04 #@! TA.AperFunction,ViaPad*
%ADD15C,0.800000*%
G04 #@! TD*
G04 #@! TA.AperFunction,Conductor*
%ADD16C,0.250000*%
G04 #@! TD*
G04 #@! TA.AperFunction,Conductor*
%ADD17C,0.152400*%
G04 #@! TD*
G04 #@! TA.AperFunction,Conductor*
%ADD18C,0.254000*%
G04 #@! TD*
G04 APERTURE END LIST*
D10*
G04 #@! TO.N,IO0*
G04 #@! TO.C,TP1*
X67995800Y-178000000D03*
G04 #@! TD*
G04 #@! TO.N,TOUCH2*
G04 #@! TO.C,TP2*
X80000000Y-178000000D03*
G04 #@! TD*
G04 #@! TO.N,TOUCH3*
G04 #@! TO.C,TP3*
X91109800Y-178000000D03*
G04 #@! TD*
G04 #@! TO.N,TOUCH4*
G04 #@! TO.C,TP4*
X102539800Y-178000000D03*
G04 #@! TD*
G04 #@! TO.N,TOUCH5*
G04 #@! TO.C,TP5*
X113800000Y-178000000D03*
G04 #@! TD*
G04 #@! TO.N,TOUCH6*
G04 #@! TO.C,TP6*
X125300000Y-178000000D03*
G04 #@! TD*
D11*
G04 #@! TO.P,BT1,1*
G04 #@! TO.N,Net-(BT1-Pad1)*
X57480200Y-116357400D03*
G04 #@! TO.P,BT1,2*
G04 #@! TO.N,GND*
X57480200Y-121437400D03*
G04 #@! TD*
D12*
G04 #@! TO.P,J2,6*
G04 #@! TO.N,Net-(J2-Pad6)*
X54610000Y-179070000D03*
G04 #@! TO.P,J2,5*
G04 #@! TO.N,Net-(J2-Pad5)*
X52070000Y-179070000D03*
G04 #@! TO.P,J2,4*
G04 #@! TO.N,Net-(J2-Pad4)*
X49530000Y-179070000D03*
G04 #@! TO.P,J2,3*
G04 #@! TO.N,Net-(J2-Pad3)*
X46990000Y-179070000D03*
G04 #@! TO.P,J2,2*
G04 #@! TO.N,Net-(J2-Pad2)*
X44450000Y-179070000D03*
D13*
G04 #@! TO.P,J2,1*
G04 #@! TO.N,Net-(J2-Pad1)*
X41910000Y-179070000D03*
G04 #@! TD*
G04 #@! TO.P,J3,1*
G04 #@! TO.N,GND*
X98602800Y-29591000D03*
D12*
G04 #@! TO.P,J3,2*
G04 #@! TO.N,+3V3*
X98602800Y-27051000D03*
G04 #@! TO.P,J3,3*
G04 #@! TO.N,SCL2*
X101142800Y-29591000D03*
G04 #@! TO.P,J3,4*
G04 #@! TO.N,SDA2*
X101142800Y-27051000D03*
G04 #@! TO.P,J3,5*
G04 #@! TO.N,N/C*
X103682800Y-29591000D03*
G04 #@! TO.P,J3,6*
X103682800Y-27051000D03*
G04 #@! TD*
G04 #@! TO.P,J4,6*
G04 #@! TO.N,N/C*
X50292000Y-32562800D03*
G04 #@! TO.P,J4,5*
X50292000Y-35102800D03*
G04 #@! TO.P,J4,4*
G04 #@! TO.N,SDA2*
X47752000Y-32562800D03*
G04 #@! TO.P,J4,3*
G04 #@! TO.N,SCL2*
X47752000Y-35102800D03*
G04 #@! TO.P,J4,2*
G04 #@! TO.N,+3V3*
X45212000Y-32562800D03*
D13*
G04 #@! TO.P,J4,1*
G04 #@! TO.N,GND*
X45212000Y-35102800D03*
G04 #@! TD*
D14*
G04 #@! TO.P,U4,1*
G04 #@! TO.N,GND*
X79934000Y-140697400D03*
G04 #@! TO.P,U4,2*
G04 #@! TO.N,LCD_RESET*
X79934000Y-141497400D03*
G04 #@! TO.P,U4,3*
G04 #@! TO.N,CLK*
X79934000Y-142297400D03*
G04 #@! TO.P,U4,4*
G04 #@! TO.N,RS*
X79934000Y-143097400D03*
G04 #@! TO.P,U4,5*
G04 #@! TO.N,CS*
X79934000Y-143897400D03*
G04 #@! TO.P,U4,6*
G04 #@! TO.N,MOSI*
X79934000Y-144697400D03*
G04 #@! TO.P,U4,7*
G04 #@! TO.N,MISO*
X79934000Y-145497400D03*
G04 #@! TO.P,U4,8*
G04 #@! TO.N,GND*
X79934000Y-146297400D03*
G04 #@! TO.P,U4,9*
G04 #@! TO.N,+3V3*
X79934000Y-147097400D03*
G04 #@! TO.P,U4,10*
G04 #@! TO.N,VCC*
X79934000Y-147897400D03*
G04 #@! TO.P,U4,11*
G04 #@! TO.N,LCD1*
X79934000Y-148697400D03*
G04 #@! TO.P,U4,12*
G04 #@! TO.N,LCD2*
X79934000Y-149537400D03*
G04 #@! TO.P,U4,13*
G04 #@! TO.N,LCD3*
X79934000Y-150297400D03*
G04 #@! TO.P,U4,14*
G04 #@! TO.N,LCD4*
X79934000Y-151097400D03*
G04 #@! TO.P,U4,15*
G04 #@! TO.N,N/C*
X79934000Y-151897400D03*
G04 #@! TO.P,U4,16*
X79934000Y-152697400D03*
G04 #@! TO.P,U4,17*
X79934000Y-153497400D03*
G04 #@! TO.P,U4,18*
X79934000Y-154297400D03*
G04 #@! TD*
D15*
G04 #@! TO.N,GND*
X62230000Y-168910000D03*
X64770000Y-168910000D03*
X67310000Y-168910000D03*
X69850000Y-168910000D03*
X72390000Y-168910000D03*
X74930000Y-168910000D03*
X77470000Y-168910000D03*
X80010000Y-168910000D03*
X82550000Y-168910000D03*
X85090000Y-168910000D03*
X87630000Y-168910000D03*
X90170000Y-168910000D03*
X92710000Y-168910000D03*
X95250000Y-168910000D03*
X97790000Y-168910000D03*
X100330000Y-168910000D03*
X102870000Y-168910000D03*
X105410000Y-168910000D03*
X107950000Y-168910000D03*
X110490000Y-168910000D03*
X113030000Y-168910000D03*
X115570000Y-168910000D03*
X118110000Y-168910000D03*
X120650000Y-168910000D03*
X123190000Y-168910000D03*
X125730000Y-168910000D03*
X128270000Y-168910000D03*
X130810000Y-168910000D03*
X130810000Y-173990000D03*
X130810000Y-176530000D03*
X130810000Y-179070000D03*
X62230000Y-171450000D03*
X62230000Y-173990000D03*
X62230000Y-176530000D03*
X62230000Y-179070000D03*
X82753200Y-140208000D03*
X83591400Y-146558000D03*
X96980798Y-113661402D03*
X92938600Y-86055200D03*
G04 #@! TO.N,+3V3*
X107543600Y-115392200D03*
X102082600Y-115493800D03*
X96037400Y-130564390D03*
X147523200Y-123291600D03*
X151358600Y-129717800D03*
X156616400Y-150723600D03*
X91795600Y-88468200D03*
X68300600Y-101269800D03*
X72110600Y-115925600D03*
X81432400Y-115900200D03*
G04 #@! TO.N,RESET*
X151511000Y-154813000D03*
X147675600Y-124663200D03*
G04 #@! TO.N,VCC*
X48869600Y-121335800D03*
X73101200Y-109829600D03*
X69539399Y-122814801D03*
X75819000Y-132257800D03*
G04 #@! TO.N,VBUS*
X146202400Y-174447200D03*
X145110200Y-171500800D03*
X145389600Y-164693600D03*
X46329600Y-121361200D03*
X46329600Y-143179800D03*
X67487798Y-164338000D03*
G04 #@! TO.N,D+*
X148107400Y-173964600D03*
X143040887Y-174883432D03*
G04 #@! TO.N,Net-(D1-Pad4)*
X86537800Y-45567600D03*
X68783200Y-94132400D03*
G04 #@! TO.N,Net-(D1-Pad3)*
X77597000Y-45542200D03*
X68275200Y-93284610D03*
G04 #@! TO.N,Net-(D1-Pad1)*
X87528400Y-47650400D03*
X70271390Y-94409811D03*
G04 #@! TO.N,Net-(D2-Pad1)*
X124815600Y-53975000D03*
X64684431Y-94743311D03*
G04 #@! TO.N,Net-(D2-Pad3)*
X114681000Y-51841400D03*
X63677800Y-92557600D03*
G04 #@! TO.N,Net-(D2-Pad4)*
X123698000Y-51866800D03*
X64400642Y-93834162D03*
G04 #@! TO.N,Net-(D3-Pad4)*
X62230000Y-91033600D03*
X58293000Y-85394800D03*
G04 #@! TO.N,Net-(D3-Pad3)*
X63017400Y-90356190D03*
X59105792Y-86436200D03*
G04 #@! TO.N,Net-(D3-Pad1)*
X62920361Y-91784610D03*
X57581800Y-84251800D03*
G04 #@! TO.N,Net-(D4-Pad1)*
X63017400Y-89382600D03*
X61036200Y-78486000D03*
G04 #@! TO.N,Net-(D4-Pad4)*
X64109600Y-89230200D03*
X62306200Y-78435200D03*
G04 #@! TO.N,Net-(D5-Pad3)*
X62839600Y-85166200D03*
X66700400Y-83724076D03*
G04 #@! TO.N,Net-(D6-Pad1)*
X67360800Y-80759621D03*
X67942602Y-83724076D03*
G04 #@! TO.N,Net-(D6-Pad3)*
X70256400Y-83362800D03*
X70510400Y-79933800D03*
G04 #@! TO.N,Net-(D6-Pad4)*
X69189600Y-83439000D03*
X69071723Y-80001610D03*
G04 #@! TO.N,Net-(D7-Pad4)*
X72387213Y-84738810D03*
X66065400Y-85293200D03*
G04 #@! TO.N,Net-(D7-Pad3)*
X65764724Y-82831387D03*
X61840610Y-84587274D03*
G04 #@! TO.N,Net-(D7-Pad1)*
X71272400Y-84582000D03*
X64262000Y-84531200D03*
G04 #@! TO.N,Net-(D8-Pad1)*
X73355200Y-83108800D03*
X73228200Y-79705200D03*
G04 #@! TO.N,Net-(D8-Pad3)*
X77114400Y-80924400D03*
X77724000Y-87332000D03*
G04 #@! TO.N,Net-(D8-Pad4)*
X74726800Y-83439000D03*
X74701400Y-80416400D03*
G04 #@! TO.N,Net-(J2-Pad6)*
X141909800Y-134696200D03*
G04 #@! TO.N,Net-(J2-Pad5)*
X141986000Y-133400800D03*
G04 #@! TO.N,Net-(J2-Pad4)*
X123698000Y-128854200D03*
G04 #@! TO.N,Net-(J2-Pad3)*
X125577600Y-128092200D03*
G04 #@! TO.N,Net-(J2-Pad2)*
X126771400Y-128193800D03*
G04 #@! TO.N,Net-(J2-Pad1)*
X124129800Y-126415800D03*
G04 #@! TO.N,SCL2*
X141503400Y-125450600D03*
X60247127Y-92370930D03*
X99441000Y-116636800D03*
X94945200Y-125450600D03*
X93929200Y-85191600D03*
G04 #@! TO.N,SDA2*
X142849600Y-124485400D03*
X56616600Y-92379800D03*
X97586800Y-117271800D03*
X93700600Y-124485400D03*
X90982800Y-87426800D03*
G04 #@! TO.N,LCD_RESET*
X102082600Y-119405400D03*
X107721400Y-123698000D03*
X116128800Y-132105400D03*
G04 #@! TO.N,SDA*
X67462400Y-97256600D03*
X103960383Y-123807990D03*
G04 #@! TO.N,SCL*
X105918000Y-123723400D03*
X66690540Y-96698640D03*
G04 #@! TO.N,IO0*
X67995800Y-173456600D03*
X140208000Y-158394400D03*
X132511800Y-158394400D03*
G04 #@! TO.N,TOUCH2*
X80010000Y-173482000D03*
G04 #@! TO.N,TOUCH3*
X91109800Y-173482000D03*
G04 #@! TO.N,TOUCH4*
X102539800Y-173482000D03*
G04 #@! TO.N,TOUCH5*
X113792000Y-173456600D03*
G04 #@! TO.N,TOUCH6*
X125298200Y-173482000D03*
G04 #@! TO.N,CLK*
X141706600Y-135839200D03*
G04 #@! TO.N,MISO*
X138760200Y-136093200D03*
G04 #@! TO.N,MOSI*
X141706600Y-137685010D03*
G04 #@! TO.N,CS*
X132867400Y-134340600D03*
G04 #@! TO.N,RS*
X126568200Y-132901190D03*
G04 #@! TO.N,RX*
X142189200Y-165049200D03*
X131292600Y-127355600D03*
G04 #@! TO.N,TX*
X131267200Y-126212600D03*
X147701000Y-157124400D03*
G04 #@! TO.N,LCD1*
X77139800Y-123444000D03*
X76377800Y-148539200D03*
X75463400Y-99225421D03*
G04 #@! TO.N,LCD2*
X78232000Y-123418600D03*
X75539600Y-149428200D03*
X76581000Y-99225421D03*
G04 #@! TO.N,LCD3*
X79476600Y-123342400D03*
X76377800Y-150317200D03*
X77571600Y-99225421D03*
G04 #@! TO.N,LCD4*
X78409800Y-99745800D03*
X80619600Y-123317000D03*
X75514200Y-151231600D03*
G04 #@! TD*
D16*
G04 #@! TO.N,GND*
X79934000Y-140697400D02*
X82263800Y-140697400D01*
X82263800Y-140697400D02*
X82753200Y-140208000D01*
X79934000Y-146297400D02*
X83330800Y-146297400D01*
X83330800Y-146297400D02*
X83591400Y-146558000D01*
X90678000Y-107358604D02*
X96980798Y-113661402D01*
X90678000Y-98044000D02*
X90678000Y-107358604D01*
X92938600Y-86055200D02*
X92938600Y-95783400D01*
X92938600Y-95783400D02*
X90678000Y-98044000D01*
G04 #@! TO.N,+3V3*
X79934000Y-147097400D02*
X78634000Y-147097400D01*
X76631800Y-145095200D02*
X76631800Y-139090400D01*
X78634000Y-147097400D02*
X76631800Y-145095200D01*
X95471715Y-130564390D02*
X96037400Y-130564390D01*
X76631800Y-139090400D02*
X85157810Y-130564390D01*
X85157810Y-130564390D02*
X95471715Y-130564390D01*
X147523200Y-123291600D02*
X124842464Y-123291600D01*
X156616400Y-134975600D02*
X156616400Y-150157915D01*
X156616400Y-150157915D02*
X156616400Y-150723600D01*
X151358600Y-129717800D02*
X156616400Y-134975600D01*
X115483966Y-123256366D02*
X124780366Y-123256366D01*
X107619800Y-115392200D02*
X115483966Y-123256366D01*
X102082600Y-115493800D02*
X102184200Y-115392200D01*
X102184200Y-115392200D02*
X107619800Y-115392200D01*
X99974400Y-117602000D02*
X102082600Y-115493800D01*
X99009200Y-117602000D02*
X99974400Y-117602000D01*
X89738200Y-108331000D02*
X99009200Y-117602000D01*
X89738200Y-97688400D02*
X89738200Y-108331000D01*
X91795600Y-88468200D02*
X91795600Y-95631000D01*
X91795600Y-95631000D02*
X89738200Y-97688400D01*
X68300600Y-101835485D02*
X69494400Y-103029285D01*
X68300600Y-101269800D02*
X68300600Y-101835485D01*
X69494400Y-103029285D02*
X69494400Y-113309400D01*
X69494400Y-113309400D02*
X72110600Y-115925600D01*
X81432400Y-115900200D02*
X83820000Y-118287800D01*
X98323400Y-118287800D02*
X99009200Y-117602000D01*
X83820000Y-118287800D02*
X98323400Y-118287800D01*
G04 #@! TO.N,RESET*
X151511000Y-154813000D02*
X156006800Y-150317200D01*
X147675600Y-127203200D02*
X147675600Y-125228885D01*
X147675600Y-125228885D02*
X147675600Y-124663200D01*
X156006800Y-135534400D02*
X147675600Y-127203200D01*
X156006800Y-150317200D02*
X156006800Y-135534400D01*
G04 #@! TO.N,VCC*
X69539399Y-122814801D02*
X73101200Y-119253000D01*
X73101200Y-119253000D02*
X73101200Y-109829600D01*
X75819000Y-132823485D02*
X75819000Y-132257800D01*
X78634000Y-147897400D02*
X75819000Y-145082400D01*
X79934000Y-147897400D02*
X78634000Y-147897400D01*
X75819000Y-145082400D02*
X75819000Y-132823485D01*
X68656200Y-123698000D02*
X69539399Y-122814801D01*
X48869600Y-121335800D02*
X51231800Y-123698000D01*
X51231800Y-123698000D02*
X68656200Y-123698000D01*
G04 #@! TO.N,VBUS*
X146202400Y-174447200D02*
X146202400Y-172593000D01*
X146202400Y-172593000D02*
X145110200Y-171500800D01*
X46329600Y-143179800D02*
X46329600Y-121361200D01*
X144823915Y-164693600D02*
X144468315Y-164338000D01*
X144468315Y-164338000D02*
X67487798Y-164338000D01*
X145389600Y-164693600D02*
X144823915Y-164693600D01*
G04 #@! TO.N,D+*
X143440886Y-175283431D02*
X143040887Y-174883432D01*
X148107400Y-173964600D02*
X146788569Y-175283431D01*
X146788569Y-175283431D02*
X143440886Y-175283431D01*
G04 #@! TO.N,Net-(D1-Pad4)*
X86537800Y-70002400D02*
X86537800Y-45567600D01*
X90678000Y-74142600D02*
X86537800Y-70002400D01*
X90678000Y-80670400D02*
X90678000Y-74142600D01*
X77615999Y-93732401D02*
X90678000Y-80670400D01*
X68783200Y-94132400D02*
X69183199Y-93732401D01*
X69183199Y-93732401D02*
X77615999Y-93732401D01*
G04 #@! TO.N,Net-(D1-Pad3)*
X68675199Y-92884611D02*
X68275200Y-93284610D01*
X77015989Y-92884611D02*
X68675199Y-92884611D01*
X88823800Y-81076800D02*
X77015989Y-92884611D01*
X88823800Y-75006200D02*
X88823800Y-81076800D01*
X77597000Y-45542200D02*
X77597000Y-63779400D01*
X77597000Y-63779400D02*
X88823800Y-75006200D01*
G04 #@! TO.N,Net-(D1-Pad1)*
X70837075Y-94409811D02*
X70271390Y-94409811D01*
X78310189Y-94409811D02*
X70837075Y-94409811D01*
X91694000Y-81026000D02*
X78310189Y-94409811D01*
X91694000Y-72669400D02*
X91694000Y-81026000D01*
X87528400Y-47650400D02*
X87528400Y-68503800D01*
X87528400Y-68503800D02*
X91694000Y-72669400D01*
G04 #@! TO.N,Net-(D2-Pad1)*
X65737765Y-94743311D02*
X65250116Y-94743311D01*
X124815600Y-55118000D02*
X119964200Y-59969400D01*
X119964200Y-59969400D02*
X116941600Y-59969400D01*
X124815600Y-53975000D02*
X124815600Y-55118000D01*
X116941600Y-59969400D02*
X80877634Y-96033366D01*
X65250116Y-94743311D02*
X64684431Y-94743311D01*
X80877634Y-96033366D02*
X67027820Y-96033366D01*
X67027820Y-96033366D02*
X65737765Y-94743311D01*
G04 #@! TO.N,Net-(D2-Pad3)*
X64048379Y-92187021D02*
X63677800Y-92557600D01*
X65142906Y-92187021D02*
X64048379Y-92187021D01*
X68180485Y-95224600D02*
X65142906Y-92187021D01*
X79425800Y-95224600D02*
X68180485Y-95224600D01*
X114681000Y-51841400D02*
X114681000Y-59969400D01*
X114681000Y-59969400D02*
X79425800Y-95224600D01*
G04 #@! TO.N,Net-(D2-Pad4)*
X64966327Y-93834162D02*
X64400642Y-93834162D01*
X65799447Y-93834162D02*
X64966327Y-93834162D01*
X123698000Y-51866800D02*
X123698000Y-55397400D01*
X120243600Y-58851800D02*
X116713000Y-58851800D01*
X123698000Y-55397400D02*
X120243600Y-58851800D01*
X116713000Y-58851800D02*
X79933845Y-95630955D01*
X79933845Y-95630955D02*
X67596240Y-95630955D01*
X67596240Y-95630955D02*
X65799447Y-93834162D01*
G04 #@! TO.N,Net-(D3-Pad4)*
X62230000Y-91033600D02*
X58293000Y-87096600D01*
X58293000Y-87096600D02*
X58293000Y-85960485D01*
X58293000Y-85960485D02*
X58293000Y-85394800D01*
G04 #@! TO.N,Net-(D3-Pad3)*
X63017400Y-90356190D02*
X59105792Y-86444582D01*
X59105792Y-86444582D02*
X59105792Y-86436200D01*
G04 #@! TO.N,Net-(D3-Pad1)*
X57581800Y-84817485D02*
X57581800Y-84251800D01*
X57581800Y-87604600D02*
X57581800Y-84817485D01*
X62920361Y-91784610D02*
X61761810Y-91784610D01*
X61761810Y-91784610D02*
X57581800Y-87604600D01*
G04 #@! TO.N,Net-(D4-Pad1)*
X61036200Y-79051685D02*
X60477400Y-79610485D01*
X61036200Y-78486000D02*
X61036200Y-79051685D01*
X60477400Y-86842600D02*
X63017400Y-89382600D01*
X60477400Y-79610485D02*
X60477400Y-86842600D01*
G04 #@! TO.N,Net-(D4-Pad4)*
X61906201Y-78835199D02*
X61906201Y-79216199D01*
X62306200Y-78435200D02*
X61906201Y-78835199D01*
X61906201Y-79216199D02*
X61163200Y-79959200D01*
X61163200Y-86283800D02*
X64109600Y-89230200D01*
X61163200Y-79959200D02*
X61163200Y-86283800D01*
G04 #@! TO.N,Net-(D5-Pad3)*
X62839600Y-84600515D02*
X63716039Y-83724076D01*
X63716039Y-83724076D02*
X66134715Y-83724076D01*
X66134715Y-83724076D02*
X66700400Y-83724076D01*
X62839600Y-85166200D02*
X62839600Y-84600515D01*
G04 #@! TO.N,Net-(D6-Pad1)*
X67360800Y-83142274D02*
X67542603Y-83324077D01*
X67542603Y-83324077D02*
X67942602Y-83724076D01*
X67360800Y-80759621D02*
X67360800Y-83142274D01*
G04 #@! TO.N,Net-(D6-Pad3)*
X70256400Y-83362800D02*
X70256400Y-80187800D01*
X70256400Y-80187800D02*
X70510400Y-79933800D01*
G04 #@! TO.N,Net-(D6-Pad4)*
X69189600Y-83439000D02*
X69189600Y-80119487D01*
X69189600Y-80119487D02*
X69071723Y-80001610D01*
G04 #@! TO.N,Net-(D7-Pad4)*
X72364600Y-84716197D02*
X72387213Y-84738810D01*
X72387213Y-84738810D02*
X71832823Y-85293200D01*
X66631085Y-85293200D02*
X66065400Y-85293200D01*
X71832823Y-85293200D02*
X66631085Y-85293200D01*
G04 #@! TO.N,Net-(D7-Pad3)*
X62240609Y-84187275D02*
X61840610Y-84587274D01*
X65764724Y-82831387D02*
X63596497Y-82831387D01*
X63596497Y-82831387D02*
X62240609Y-84187275D01*
G04 #@! TO.N,Net-(D7-Pad1)*
X71272400Y-84582000D02*
X64312800Y-84582000D01*
X64312800Y-84582000D02*
X64262000Y-84531200D01*
G04 #@! TO.N,Net-(D8-Pad1)*
X73228200Y-82981800D02*
X73355200Y-83108800D01*
X73228200Y-79705200D02*
X73228200Y-82981800D01*
G04 #@! TO.N,Net-(D8-Pad3)*
X77114400Y-80924400D02*
X77114400Y-86722400D01*
X77114400Y-86722400D02*
X77724000Y-87332000D01*
G04 #@! TO.N,Net-(D8-Pad4)*
X74701400Y-83413600D02*
X74726800Y-83439000D01*
X74701400Y-80416400D02*
X74701400Y-83413600D01*
G04 #@! TO.N,Net-(J2-Pad6)*
X123159137Y-129886988D02*
X123206162Y-129934013D01*
X54610000Y-179070000D02*
X54610000Y-147269200D01*
X71992212Y-129886988D02*
X123159137Y-129886988D01*
X141509801Y-134296201D02*
X141909800Y-134696200D01*
X137147613Y-129934013D02*
X141509801Y-134296201D01*
X54610000Y-147269200D02*
X71992212Y-129886988D01*
X123206162Y-129934013D02*
X137147613Y-129934013D01*
G04 #@! TO.N,Net-(J2-Pad5)*
X123372846Y-129531602D02*
X138116802Y-129531602D01*
X52070000Y-148005800D02*
X70591223Y-129484577D01*
X138116802Y-129531602D02*
X141586001Y-133000801D01*
X123325821Y-129484577D02*
X123372846Y-129531602D01*
X70591223Y-129484577D02*
X123325821Y-129484577D01*
X52070000Y-179070000D02*
X52070000Y-148005800D01*
X141586001Y-133000801D02*
X141986000Y-133400800D01*
G04 #@! TO.N,Net-(J2-Pad4)*
X123393834Y-129082166D02*
X123520200Y-128955800D01*
X69495034Y-129082166D02*
X123393834Y-129082166D01*
X49530000Y-179070000D02*
X49530000Y-149047200D01*
X49530000Y-149047200D02*
X69495034Y-129082166D01*
X123596400Y-128955800D02*
X123698000Y-128854200D01*
X123520200Y-128955800D02*
X123596400Y-128955800D01*
G04 #@! TO.N,Net-(J2-Pad3)*
X125011915Y-128092200D02*
X125577600Y-128092200D01*
X46990000Y-179070000D02*
X46990000Y-149758400D01*
X68656200Y-128092200D02*
X125011915Y-128092200D01*
X46990000Y-149758400D02*
X68656200Y-128092200D01*
G04 #@! TO.N,Net-(J2-Pad2)*
X44450000Y-179070000D02*
X44450000Y-177867919D01*
X44450000Y-177867919D02*
X44450000Y-150952200D01*
X44450000Y-150952200D02*
X68046600Y-127355600D01*
X68046600Y-127355600D02*
X123698000Y-127355600D01*
X123698000Y-127355600D02*
X125933200Y-127355600D01*
X125933200Y-127355600D02*
X126771400Y-128193800D01*
G04 #@! TO.N,Net-(J2-Pad1)*
X41910000Y-179070000D02*
X41910000Y-151993600D01*
X41910000Y-151993600D02*
X67640200Y-126263400D01*
X67640200Y-126263400D02*
X123926600Y-126263400D01*
X123926600Y-126263400D02*
X123977400Y-126263400D01*
X123977400Y-126263400D02*
X124129800Y-126415800D01*
G04 #@! TO.N,SCL2*
X141503400Y-125450600D02*
X141452600Y-125399800D01*
X60247127Y-92936615D02*
X60247127Y-92370930D01*
X78355011Y-98421011D02*
X65731523Y-98421011D01*
X65731523Y-98421011D02*
X60247127Y-92936615D01*
X79099589Y-99165589D02*
X78355011Y-98421011D01*
X79099589Y-119241884D02*
X79099589Y-99165589D01*
X85308305Y-125450600D02*
X79099589Y-119241884D01*
X141503400Y-125450600D02*
X94945200Y-125450600D01*
X94945200Y-125450600D02*
X85308305Y-125450600D01*
X99441000Y-115163600D02*
X99441000Y-116636800D01*
X91516200Y-107238800D02*
X99441000Y-115163600D01*
X93929200Y-85191600D02*
X93929200Y-96476085D01*
X93929200Y-96476085D02*
X91516200Y-98889085D01*
X91516200Y-98889085D02*
X91516200Y-107238800D01*
G04 #@! TO.N,SDA2*
X84912200Y-124485400D02*
X79654400Y-119227600D01*
X79654400Y-119227600D02*
X79654400Y-98679000D01*
X79654400Y-98679000D02*
X78994000Y-98018600D01*
X78994000Y-98018600D02*
X65963800Y-98018600D01*
X65963800Y-98018600D02*
X60960000Y-93014800D01*
X60960000Y-92125800D02*
X59486800Y-90652600D01*
X60960000Y-93014800D02*
X60960000Y-92125800D01*
X58343800Y-90652600D02*
X56616600Y-92379800D01*
X59486800Y-90652600D02*
X58343800Y-90652600D01*
X142849600Y-124485400D02*
X93700600Y-124485400D01*
X93700600Y-124485400D02*
X84912200Y-124485400D01*
X90855800Y-87553800D02*
X90982800Y-87426800D01*
X90855800Y-95427800D02*
X90855800Y-87553800D01*
X89179400Y-97104200D02*
X90855800Y-95427800D01*
X97586800Y-117271800D02*
X89179400Y-108864400D01*
X89179400Y-108864400D02*
X89179400Y-97104200D01*
G04 #@! TO.N,LCD_RESET*
X107321401Y-123298001D02*
X107721400Y-123698000D01*
X103428800Y-119405400D02*
X107321401Y-123298001D01*
X102082600Y-119405400D02*
X103428800Y-119405400D01*
X81684000Y-141497400D02*
X81690000Y-141503400D01*
X79934000Y-141497400D02*
X81684000Y-141497400D01*
X81690000Y-141503400D02*
X82829400Y-141503400D01*
X82829400Y-141503400D02*
X92227400Y-132105400D01*
X92227400Y-132105400D02*
X116128800Y-132105400D01*
G04 #@! TO.N,SDA*
X103394698Y-123807990D02*
X103960383Y-123807990D01*
X85580990Y-123807990D02*
X103394698Y-123807990D01*
X80056811Y-118283811D02*
X85580990Y-123807990D01*
X80056811Y-98512316D02*
X80056811Y-118283811D01*
X67462400Y-97256600D02*
X78801095Y-97256600D01*
X78801095Y-97256600D02*
X80056811Y-98512316D01*
G04 #@! TO.N,SCL*
X66810401Y-96578779D02*
X66690540Y-96698640D01*
X78692368Y-96578779D02*
X66810401Y-96578779D01*
X104840905Y-123723400D02*
X104028105Y-122910600D01*
X105918000Y-123723400D02*
X104840905Y-123723400D01*
X104028105Y-122910600D02*
X85699600Y-122910600D01*
X85699600Y-122910600D02*
X80459222Y-117670222D01*
X80459222Y-117670222D02*
X80459222Y-98345632D01*
X80459222Y-98345632D02*
X78692368Y-96578779D01*
D17*
G04 #@! TO.N,IO0*
X67995800Y-178000000D02*
X67995800Y-173456600D01*
X132511800Y-158394400D02*
X133934200Y-158394400D01*
X133934200Y-158394400D02*
X140208000Y-158394400D01*
G04 #@! TO.N,TOUCH2*
X80000000Y-178000000D02*
X80000000Y-173492000D01*
X80000000Y-173492000D02*
X80010000Y-173482000D01*
G04 #@! TO.N,TOUCH3*
X91109800Y-178000000D02*
X91109800Y-173482000D01*
G04 #@! TO.N,TOUCH4*
X102539800Y-178000000D02*
X102539800Y-173482000D01*
G04 #@! TO.N,TOUCH5*
X113800000Y-178000000D02*
X113800000Y-173464600D01*
X113800000Y-173464600D02*
X113792000Y-173456600D01*
G04 #@! TO.N,TOUCH6*
X125300000Y-178000000D02*
X125300000Y-173483800D01*
X125300000Y-173483800D02*
X125298200Y-173482000D01*
D16*
G04 #@! TO.N,CLK*
X81684000Y-142297400D02*
X81690600Y-142290800D01*
X79934000Y-142297400D02*
X81684000Y-142297400D01*
X81690600Y-142290800D02*
X83083400Y-142290800D01*
X83083400Y-142290800D02*
X91795600Y-133578600D01*
X91795600Y-133578600D02*
X139446000Y-133578600D01*
X139446000Y-133578600D02*
X141706600Y-135839200D01*
G04 #@! TO.N,MISO*
X79934000Y-145497400D02*
X84347200Y-145497400D01*
X84347200Y-145497400D02*
X93751400Y-136093200D01*
X93751400Y-136093200D02*
X138760200Y-136093200D01*
G04 #@! TO.N,MOSI*
X139200390Y-135178800D02*
X141306601Y-137285011D01*
X93091000Y-135178800D02*
X139200390Y-135178800D01*
X141306601Y-137285011D02*
X141706600Y-137685010D01*
X83572400Y-144697400D02*
X93091000Y-135178800D01*
X79934000Y-144697400D02*
X83572400Y-144697400D01*
G04 #@! TO.N,CS*
X81684000Y-143897400D02*
X81703000Y-143916400D01*
X79934000Y-143897400D02*
X81684000Y-143897400D01*
X81703000Y-143916400D02*
X82956400Y-143916400D01*
X82956400Y-143916400D02*
X92532200Y-134340600D01*
X92532200Y-134340600D02*
X132867400Y-134340600D01*
G04 #@! TO.N,RS*
X79934000Y-143097400D02*
X78634000Y-143097400D01*
X78634000Y-143097400D02*
X78108999Y-142572399D01*
X126168201Y-132501191D02*
X126568200Y-132901190D01*
X124908810Y-131241800D02*
X126168201Y-132501191D01*
X87104598Y-131241800D02*
X124908810Y-131241800D01*
X78108999Y-140237399D02*
X87104598Y-131241800D01*
X78108999Y-142572399D02*
X78108999Y-140237399D01*
G04 #@! TO.N,RX*
X131336999Y-127399999D02*
X131292600Y-127355600D01*
X141528800Y-127399999D02*
X131336999Y-127399999D01*
X139591999Y-127399999D02*
X141528800Y-127399999D01*
X147148601Y-165449199D02*
X142589199Y-165449199D01*
X147150599Y-165447201D02*
X147148601Y-165449199D01*
X142589199Y-165449199D02*
X142189200Y-165049200D01*
X147150599Y-157754353D02*
X147150599Y-165447201D01*
X145637199Y-127399999D02*
X154381200Y-136144000D01*
X141528800Y-127399999D02*
X145637199Y-127399999D01*
X154381200Y-136144000D02*
X154381200Y-149467046D01*
X154381200Y-149467046D02*
X147023599Y-156824647D01*
X147023599Y-156824647D02*
X147023599Y-157627353D01*
X147023599Y-157627353D02*
X147150599Y-157754353D01*
G04 #@! TO.N,TX*
X131267200Y-126212600D02*
X145465800Y-126212600D01*
X155041600Y-149721044D02*
X148100999Y-156661645D01*
X148100999Y-156661645D02*
X148100999Y-156724401D01*
X148100999Y-156724401D02*
X147701000Y-157124400D01*
X155041600Y-135788400D02*
X155041600Y-149721044D01*
X145465800Y-126212600D02*
X155041600Y-135788400D01*
G04 #@! TO.N,LCD1*
X76536000Y-148697400D02*
X76377800Y-148539200D01*
X79934000Y-148697400D02*
X76536000Y-148697400D01*
X77139800Y-123444000D02*
X75463400Y-121767600D01*
X75463400Y-121767600D02*
X75463400Y-99791106D01*
X75463400Y-99791106D02*
X75463400Y-99225421D01*
G04 #@! TO.N,LCD2*
X75648800Y-149537400D02*
X75539600Y-149428200D01*
X79934000Y-149537400D02*
X75648800Y-149537400D01*
X76581000Y-99791106D02*
X76581000Y-99225421D01*
X78232000Y-123418600D02*
X76581000Y-121767600D01*
X76581000Y-121767600D02*
X76581000Y-99791106D01*
G04 #@! TO.N,LCD3*
X76397600Y-150297400D02*
X76377800Y-150317200D01*
X79934000Y-150297400D02*
X76397600Y-150297400D01*
X77571600Y-99791106D02*
X77571600Y-99225421D01*
X79476600Y-123342400D02*
X77571600Y-121437400D01*
X77571600Y-121437400D02*
X77571600Y-99791106D01*
G04 #@! TO.N,LCD4*
X78409800Y-99745800D02*
X78409800Y-121107200D01*
X78409800Y-121107200D02*
X80619600Y-123317000D01*
X75648400Y-151097400D02*
X75514200Y-151231600D01*
X79934000Y-151097400D02*
X75648400Y-151097400D01*
G04 #@! TD*
D18*
G04 #@! TO.N,GND*
G36*
X131953000Y-180425527D02*
X131905128Y-180393540D01*
X131858246Y-180384215D01*
X131815875Y-180363058D01*
X131786054Y-180360955D01*
X131757983Y-180349620D01*
X131640220Y-180350671D01*
X131524199Y-180342489D01*
X131499030Y-180350894D01*
X130192585Y-180350894D01*
X130089828Y-180339245D01*
X130088462Y-180339638D01*
X130086348Y-180339408D01*
X129977159Y-180371343D01*
X129865567Y-180393540D01*
X129838920Y-180411345D01*
X129808800Y-180420000D01*
X129807642Y-180420922D01*
X129805704Y-180421489D01*
X129717047Y-180492778D01*
X129622445Y-180555989D01*
X129604713Y-180582527D01*
X129580068Y-180602153D01*
X129579300Y-180603540D01*
X129577834Y-180604719D01*
X129523207Y-180704510D01*
X129459996Y-180799111D01*
X129439574Y-180901781D01*
X129429894Y-180932079D01*
X129429857Y-180932402D01*
X129429836Y-180932469D01*
X129422613Y-180955055D01*
X129414442Y-180980469D01*
X129405418Y-181008333D01*
X129396046Y-181037016D01*
X129386260Y-181066653D01*
X129376380Y-181096183D01*
X129366690Y-181124689D01*
X129357238Y-181151974D01*
X129348043Y-181177978D01*
X129339210Y-181202411D01*
X129330729Y-181225316D01*
X129322738Y-181246339D01*
X129315413Y-181265054D01*
X129308812Y-181281378D01*
X129303071Y-181295063D01*
X129297911Y-181306880D01*
X129293094Y-181317499D01*
X129288615Y-181327039D01*
X129284447Y-181335642D01*
X129280643Y-181343280D01*
X129278819Y-181346855D01*
X129267318Y-181368832D01*
X129267306Y-181368846D01*
X129258538Y-181385601D01*
X129232581Y-181434931D01*
X129232555Y-181435020D01*
X129229280Y-181441247D01*
X129229200Y-181441517D01*
X129225740Y-181448109D01*
X129225699Y-181448249D01*
X129221654Y-181455962D01*
X129221599Y-181456148D01*
X129218257Y-181462530D01*
X129209046Y-181480026D01*
X129194820Y-181506395D01*
X129178837Y-181534930D01*
X129160667Y-181565916D01*
X129140051Y-181599292D01*
X129116875Y-181634738D01*
X129091059Y-181671881D01*
X129062179Y-181710817D01*
X129029117Y-181752561D01*
X128991684Y-181797159D01*
X128951154Y-181842989D01*
X128909048Y-181888300D01*
X128866823Y-181931551D01*
X128826206Y-181971049D01*
X128789085Y-182005130D01*
X128757415Y-182032310D01*
X128731074Y-182053178D01*
X128708471Y-182069659D01*
X128689104Y-182082653D01*
X128672659Y-182092818D01*
X128658616Y-182100834D01*
X128645961Y-182107544D01*
X128633758Y-182113623D01*
X128633540Y-182113678D01*
X128626156Y-182117200D01*
X128625765Y-182117300D01*
X128618735Y-182120663D01*
X128618503Y-182120722D01*
X128610846Y-182124391D01*
X128610708Y-182124426D01*
X128601270Y-182128953D01*
X128600981Y-182129027D01*
X128588124Y-182135206D01*
X128586686Y-182135582D01*
X128570833Y-182143279D01*
X128568512Y-182143902D01*
X128550147Y-182152966D01*
X128547044Y-182153828D01*
X128526561Y-182164160D01*
X128522707Y-182165275D01*
X128500457Y-182176802D01*
X128495815Y-182178211D01*
X128472037Y-182190927D01*
X128466444Y-182192722D01*
X128448637Y-182202610D01*
X128442762Y-182205463D01*
X128441034Y-182206772D01*
X128434575Y-182208983D01*
X128413932Y-182220971D01*
X128405534Y-182225208D01*
X128400697Y-182226986D01*
X128384634Y-182236805D01*
X128376219Y-182241165D01*
X128373597Y-182243261D01*
X128366893Y-182245905D01*
X128355432Y-182253284D01*
X128349544Y-182256433D01*
X128345919Y-182259409D01*
X128343186Y-182261169D01*
X128340679Y-182262561D01*
X128333465Y-182265609D01*
X128325684Y-182270888D01*
X128320982Y-182273499D01*
X128317565Y-182276396D01*
X128312033Y-182280149D01*
X128306167Y-182283556D01*
X128300005Y-182286349D01*
X128294231Y-182290488D01*
X128290575Y-182292611D01*
X128287555Y-182295273D01*
X128279230Y-182301240D01*
X128272385Y-182305425D01*
X128265935Y-182308576D01*
X128260660Y-182312592D01*
X128258801Y-182313729D01*
X128257066Y-182315329D01*
X128246111Y-182323671D01*
X128236650Y-182329762D01*
X128230417Y-182333073D01*
X128216974Y-182344046D01*
X128205722Y-182348212D01*
X128196908Y-182356378D01*
X128106140Y-182360635D01*
X127850471Y-182368837D01*
X127504026Y-182376496D01*
X127060432Y-182383261D01*
X126823478Y-182385842D01*
X127925517Y-181929363D01*
X129229363Y-180625517D01*
X129935000Y-178921959D01*
X129935000Y-177078041D01*
X129229363Y-175374483D01*
X127925517Y-174070637D01*
X126333200Y-173411078D01*
X126333200Y-173276126D01*
X126175631Y-172895720D01*
X125884480Y-172604569D01*
X125504074Y-172447000D01*
X125092326Y-172447000D01*
X124711920Y-172604569D01*
X124420769Y-172895720D01*
X124263200Y-173276126D01*
X124263200Y-173412569D01*
X122674483Y-174070637D01*
X121370637Y-175374483D01*
X120665000Y-177078041D01*
X120665000Y-178921959D01*
X121370637Y-180625517D01*
X122674483Y-181929363D01*
X123806143Y-182398112D01*
X123607033Y-182397667D01*
X123130414Y-182394783D01*
X122743437Y-182390232D01*
X122441947Y-182384343D01*
X122216021Y-182377582D01*
X122055928Y-182370493D01*
X121972187Y-182365068D01*
X121971757Y-182364415D01*
X121943261Y-182345117D01*
X121936127Y-182336613D01*
X121926892Y-182329199D01*
X121924336Y-182326963D01*
X121891551Y-182289386D01*
X121875909Y-182281622D01*
X121872971Y-182278365D01*
X121864278Y-182271886D01*
X121855178Y-182263193D01*
X121845729Y-182257187D01*
X121839398Y-182250663D01*
X121830921Y-182244812D01*
X121822862Y-182237272D01*
X121820995Y-182236570D01*
X121817663Y-182233656D01*
X121811332Y-182230012D01*
X121807702Y-182226495D01*
X121794644Y-182218067D01*
X121780672Y-182206802D01*
X121777339Y-182205057D01*
X121762275Y-182195861D01*
X121753336Y-182189199D01*
X121752083Y-182188091D01*
X121751011Y-182187466D01*
X121743524Y-182181886D01*
X121732471Y-182176626D01*
X121727905Y-182172722D01*
X121720228Y-182168417D01*
X121706211Y-182158743D01*
X121699156Y-182155696D01*
X121691905Y-182151755D01*
X121689663Y-182150309D01*
X121687636Y-182148655D01*
X121684634Y-182147062D01*
X121671647Y-182138680D01*
X121663851Y-182135595D01*
X121662271Y-182134770D01*
X121661749Y-182134351D01*
X121660178Y-182133534D01*
X121640616Y-182121592D01*
X121633526Y-182118990D01*
X121612845Y-182106936D01*
X121607012Y-182104929D01*
X121588109Y-182094329D01*
X121583418Y-182092802D01*
X121566547Y-182083634D01*
X121563017Y-182082537D01*
X121548524Y-182074847D01*
X121546228Y-182074158D01*
X121538256Y-182069994D01*
X121535579Y-182068383D01*
X121531175Y-182065595D01*
X121525090Y-182061539D01*
X121517068Y-182055909D01*
X121506103Y-182047820D01*
X121491668Y-182036702D01*
X121474610Y-182023079D01*
X121455857Y-182007612D01*
X121436240Y-181990944D01*
X121416566Y-181973739D01*
X121397379Y-181956463D01*
X121379311Y-181939694D01*
X121362338Y-181923419D01*
X121345916Y-181907181D01*
X121330059Y-181891069D01*
X121314946Y-181875343D01*
X121300887Y-181860408D01*
X121287885Y-181846350D01*
X121283689Y-181841750D01*
X121283646Y-181841678D01*
X121277430Y-181834803D01*
X121277329Y-181834634D01*
X121270247Y-181826810D01*
X121270190Y-181826714D01*
X121261477Y-181817093D01*
X121261448Y-181817045D01*
X121234212Y-181786980D01*
X121207523Y-181757364D01*
X121207512Y-181757356D01*
X121199768Y-181748763D01*
X121199675Y-181748694D01*
X121193151Y-181741459D01*
X121192993Y-181741341D01*
X121186965Y-181734664D01*
X121186741Y-181734497D01*
X121180469Y-181727560D01*
X121180310Y-181727442D01*
X121173168Y-181719551D01*
X121173137Y-181719528D01*
X121171218Y-181717405D01*
X121153296Y-181697517D01*
X121134009Y-181676014D01*
X121114209Y-181653797D01*
X121107121Y-181645779D01*
X121103810Y-181620179D01*
X121097421Y-181562190D01*
X121091231Y-181498216D01*
X121085502Y-181432395D01*
X121080325Y-181367592D01*
X121075804Y-181307122D01*
X121071987Y-181253791D01*
X121069788Y-181222617D01*
X121069789Y-181222612D01*
X121069061Y-181212288D01*
X121078329Y-181165694D01*
X121074187Y-181144871D01*
X121077172Y-181123738D01*
X121057420Y-181047143D01*
X121057257Y-181044824D01*
X121057229Y-181044722D01*
X121057049Y-181042175D01*
X121057032Y-181042114D01*
X121056990Y-181041517D01*
X121044684Y-180996551D01*
X121021284Y-180878911D01*
X121009484Y-180861251D01*
X121004159Y-180840601D01*
X121000774Y-180836103D01*
X120999289Y-180830675D01*
X120925520Y-180735589D01*
X120858835Y-180635789D01*
X120841160Y-180623979D01*
X120828351Y-180606956D01*
X120823505Y-180604097D01*
X120820054Y-180599649D01*
X120715597Y-180540080D01*
X120615713Y-180473340D01*
X120589378Y-180468102D01*
X120566053Y-180454800D01*
X120446869Y-180439755D01*
X120401318Y-180430694D01*
X120380574Y-180430694D01*
X120286967Y-180417472D01*
X120281507Y-180418880D01*
X120275954Y-180418179D01*
X120230224Y-180430694D01*
X118950808Y-180430694D01*
X118878550Y-180416321D01*
X118830598Y-180425859D01*
X118781629Y-180422591D01*
X118688356Y-180454128D01*
X118591774Y-180473340D01*
X118551038Y-180500559D01*
X118504634Y-180516249D01*
X118430531Y-180581079D01*
X118348652Y-180635789D01*
X118321433Y-180676526D01*
X118284566Y-180708779D01*
X118240913Y-180797032D01*
X118186203Y-180878911D01*
X118186199Y-180878933D01*
X118186196Y-180878937D01*
X118162454Y-180998298D01*
X118150004Y-181044539D01*
X118148362Y-181069140D01*
X118143550Y-181093332D01*
X118143550Y-181093341D01*
X118129158Y-181165694D01*
X118138712Y-181213726D01*
X118135447Y-181262648D01*
X118143570Y-181286671D01*
X118143569Y-181307053D01*
X118143542Y-181351402D01*
X118143471Y-181401288D01*
X118143342Y-181452792D01*
X118143135Y-181505937D01*
X118142840Y-181558033D01*
X118142432Y-181609277D01*
X118141911Y-181656474D01*
X118141263Y-181700124D01*
X118140502Y-181739410D01*
X118139901Y-181763679D01*
X118134204Y-181771151D01*
X118116432Y-181792487D01*
X118092377Y-181818974D01*
X118059971Y-181851793D01*
X118017901Y-181891418D01*
X117968104Y-181935641D01*
X117913853Y-181981392D01*
X117858151Y-182026109D01*
X117804173Y-182067286D01*
X117755389Y-182102416D01*
X117725314Y-182122580D01*
X117701294Y-182123804D01*
X117692301Y-182122711D01*
X117681582Y-182123521D01*
X117672487Y-182121045D01*
X117649669Y-182123957D01*
X117630388Y-182126074D01*
X117620973Y-182126253D01*
X117616455Y-182127241D01*
X117600778Y-182126645D01*
X117595301Y-182127519D01*
X117568225Y-182123716D01*
X117506566Y-182139667D01*
X117493025Y-182141153D01*
X117485554Y-182143511D01*
X117438178Y-182144692D01*
X117401270Y-182161069D01*
X117399944Y-182161151D01*
X117388599Y-182166692D01*
X117369729Y-182175065D01*
X117356596Y-182178462D01*
X117344699Y-182184201D01*
X117287819Y-182197378D01*
X117252172Y-182222845D01*
X117239614Y-182227496D01*
X117232552Y-182234040D01*
X117222925Y-182241794D01*
X117184350Y-182259246D01*
X117171907Y-182272516D01*
X117137201Y-182289465D01*
X117125434Y-182302779D01*
X117118884Y-182306526D01*
X117096147Y-182335915D01*
X117092785Y-182339720D01*
X117048391Y-182373178D01*
X117034285Y-182373343D01*
X116846089Y-182374599D01*
X116614352Y-182375503D01*
X116339775Y-182376162D01*
X116036815Y-182376608D01*
X115716773Y-182376877D01*
X115391053Y-182377006D01*
X115344803Y-182377009D01*
X116425517Y-181929363D01*
X117729363Y-180625517D01*
X118435000Y-178921959D01*
X118435000Y-177078041D01*
X117729363Y-175374483D01*
X116425517Y-174070637D01*
X114827000Y-173408509D01*
X114827000Y-173250726D01*
X114669431Y-172870320D01*
X114378280Y-172579169D01*
X113997874Y-172421600D01*
X113586126Y-172421600D01*
X113205720Y-172579169D01*
X112914569Y-172870320D01*
X112757000Y-173250726D01*
X112757000Y-173415137D01*
X111174483Y-174070637D01*
X109870637Y-175374483D01*
X109165000Y-177078041D01*
X109165000Y-178921959D01*
X109870637Y-180625517D01*
X111174483Y-181929363D01*
X112252857Y-182376040D01*
X112034570Y-182375961D01*
X112034567Y-182375962D01*
X111673294Y-182375831D01*
X111673292Y-182375831D01*
X111316304Y-182375702D01*
X111316303Y-182375702D01*
X110978639Y-182375579D01*
X110978634Y-182375580D01*
X110820111Y-182375523D01*
X110421361Y-182375378D01*
X110421358Y-182375379D01*
X110224488Y-182375307D01*
X110204628Y-182354814D01*
X110187911Y-182337563D01*
X110187910Y-182337562D01*
X110187819Y-182337468D01*
X110166114Y-182315071D01*
X110151998Y-182300505D01*
X110151997Y-182300505D01*
X110127095Y-182274808D01*
X110127091Y-182274802D01*
X110109488Y-182256638D01*
X110109477Y-182256621D01*
X110105354Y-182252367D01*
X110105352Y-182252364D01*
X110103331Y-182250279D01*
X110103328Y-182250274D01*
X110101929Y-182248831D01*
X110101501Y-182248171D01*
X110101305Y-182247969D01*
X110101052Y-182247581D01*
X110051706Y-182197012D01*
X110008798Y-182152728D01*
X110008752Y-182152696D01*
X110006701Y-182150580D01*
X110004595Y-182148407D01*
X110002577Y-182146325D01*
X110002574Y-182146323D01*
X110001848Y-182145574D01*
X110001193Y-182145121D01*
X109999896Y-182143789D01*
X109999857Y-182143762D01*
X109998147Y-182142004D01*
X109981110Y-182124412D01*
X109962550Y-182105115D01*
X109942113Y-182083678D01*
X109920548Y-182060818D01*
X109898265Y-182036900D01*
X109875785Y-182012416D01*
X109853363Y-181987574D01*
X109830902Y-181962217D01*
X109808701Y-181936691D01*
X109787089Y-181911392D01*
X109766591Y-181886946D01*
X109747763Y-181864046D01*
X109738223Y-181852185D01*
X109736882Y-181835807D01*
X109734100Y-181799308D01*
X109731242Y-181759324D01*
X109728307Y-181715781D01*
X109725360Y-181669795D01*
X109722423Y-181622008D01*
X109719515Y-181573074D01*
X109716770Y-181525623D01*
X109714163Y-181479564D01*
X109711852Y-181438026D01*
X109709808Y-181400799D01*
X109709101Y-181387820D01*
X109719549Y-181335294D01*
X109701385Y-181243980D01*
X109700380Y-181224709D01*
X109700189Y-181223957D01*
X109700154Y-181223309D01*
X109687225Y-181172790D01*
X109662504Y-181048511D01*
X109651494Y-181032034D01*
X109646621Y-181012827D01*
X109646111Y-181012143D01*
X109645956Y-181011539D01*
X109577296Y-180919945D01*
X109570641Y-180911029D01*
X109500055Y-180805389D01*
X109483576Y-180794378D01*
X109471725Y-180778500D01*
X109470899Y-180778008D01*
X109470574Y-180777575D01*
X109385097Y-180726934D01*
X109362579Y-180713531D01*
X109256933Y-180642940D01*
X109237494Y-180639073D01*
X109220469Y-180628939D01*
X109219436Y-180628789D01*
X109219009Y-180628536D01*
X109128956Y-180615648D01*
X109094758Y-180610681D01*
X109042538Y-180600294D01*
X109023238Y-180600294D01*
X108931105Y-180586913D01*
X108930048Y-180587181D01*
X108929557Y-180587111D01*
X108878047Y-180600294D01*
X107497882Y-180600294D01*
X107419931Y-180585977D01*
X107418434Y-180586298D01*
X107417616Y-180586150D01*
X107317929Y-180607830D01*
X107282302Y-180615463D01*
X107144167Y-180642940D01*
X107139502Y-180646057D01*
X107134018Y-180647232D01*
X107132756Y-180648102D01*
X107131893Y-180648290D01*
X107042757Y-180710171D01*
X107018155Y-180727139D01*
X106901045Y-180805389D01*
X106897927Y-180810056D01*
X106893311Y-180813239D01*
X106892508Y-180814480D01*
X106891701Y-180815040D01*
X106826450Y-180916560D01*
X106816842Y-180931408D01*
X106738596Y-181048511D01*
X106737501Y-181054014D01*
X106734454Y-181058723D01*
X106734205Y-181060079D01*
X106733604Y-181061014D01*
X106709356Y-181195372D01*
X106709029Y-181197152D01*
X106681551Y-181335294D01*
X106697014Y-181413031D01*
X106697096Y-181418617D01*
X106697288Y-181419515D01*
X106697387Y-181425267D01*
X106697399Y-181425320D01*
X106697736Y-181444833D01*
X106697739Y-181444846D01*
X106698058Y-181463264D01*
X106698059Y-181463268D01*
X106698416Y-181483826D01*
X106699109Y-181523819D01*
X106699110Y-181523822D01*
X106699280Y-181533639D01*
X106699279Y-181533644D01*
X106700569Y-181607959D01*
X106700638Y-181611929D01*
X106701790Y-181678390D01*
X106701791Y-181678393D01*
X106702423Y-181714863D01*
X106702422Y-181714869D01*
X106703714Y-181789349D01*
X106683154Y-181822558D01*
X106680269Y-181827218D01*
X106680260Y-181827228D01*
X106667378Y-181848036D01*
X106667333Y-181848084D01*
X106664816Y-181852151D01*
X106664103Y-181852920D01*
X106627472Y-181912486D01*
X106590477Y-181971677D01*
X106590017Y-181972890D01*
X106589474Y-181973766D01*
X106589421Y-181973906D01*
X106588872Y-181974793D01*
X106588855Y-181974839D01*
X106585430Y-181980359D01*
X106573573Y-181999110D01*
X106561003Y-182018309D01*
X106546941Y-182038844D01*
X106531091Y-182060818D01*
X106513246Y-182084177D01*
X106493285Y-182108725D01*
X106471040Y-182134314D01*
X106445122Y-182162114D01*
X106414833Y-182192591D01*
X106381333Y-182224437D01*
X106346672Y-182255659D01*
X106312901Y-182284462D01*
X106297853Y-182296559D01*
X106295413Y-182297022D01*
X106292680Y-182296600D01*
X106286629Y-182298078D01*
X106276249Y-182298598D01*
X106268304Y-182300596D01*
X106259535Y-182300982D01*
X106249920Y-182303338D01*
X106240411Y-182304203D01*
X106226257Y-182308382D01*
X106211458Y-182309838D01*
X106205699Y-182311584D01*
X106199833Y-182312394D01*
X106182220Y-182318496D01*
X106179241Y-182319061D01*
X106163133Y-182321530D01*
X106159753Y-182322758D01*
X106156041Y-182323462D01*
X106140162Y-182329875D01*
X106137923Y-182330688D01*
X106107387Y-182336814D01*
X106104142Y-182338990D01*
X106091393Y-182341768D01*
X106083887Y-182346983D01*
X106064257Y-182351921D01*
X106054688Y-182359032D01*
X106030761Y-182366096D01*
X106022847Y-182372493D01*
X106016873Y-182374663D01*
X106012584Y-182377262D01*
X106012570Y-182377267D01*
X106010664Y-182377872D01*
X106010395Y-182378020D01*
X105993281Y-182383949D01*
X105986054Y-182390367D01*
X105974821Y-182395062D01*
X105968919Y-182399033D01*
X105953351Y-182405320D01*
X105949232Y-182409366D01*
X105945133Y-182410957D01*
X105942316Y-182412749D01*
X105937779Y-182414862D01*
X105929776Y-182420725D01*
X105925263Y-182423595D01*
X105920480Y-182426032D01*
X105912293Y-182429519D01*
X105908335Y-182432221D01*
X105903913Y-182434474D01*
X105896675Y-182440180D01*
X105892646Y-182442931D01*
X105886949Y-182446071D01*
X105878834Y-182449863D01*
X105875115Y-182452595D01*
X105872083Y-182454266D01*
X105866943Y-182458597D01*
X105860360Y-182463432D01*
X105854685Y-182466796D01*
X105847421Y-182470485D01*
X105844226Y-182472996D01*
X105841437Y-182474650D01*
X105836598Y-182478993D01*
X105829958Y-182484213D01*
X105827118Y-182486020D01*
X105819609Y-182490106D01*
X105816112Y-182493020D01*
X105811345Y-182496052D01*
X105803675Y-182503383D01*
X105803016Y-182503933D01*
X105795110Y-182508491D01*
X105789835Y-182513111D01*
X105781415Y-182518859D01*
X105776795Y-182523572D01*
X105773633Y-182525485D01*
X105764459Y-182533870D01*
X105764221Y-182534045D01*
X105740196Y-182535264D01*
X105647175Y-182538187D01*
X105523290Y-182540576D01*
X105366148Y-182542433D01*
X105172068Y-182543849D01*
X104938625Y-182544934D01*
X104671005Y-182545765D01*
X104380160Y-182546375D01*
X104076884Y-182546798D01*
X103772010Y-182547066D01*
X103673931Y-182547115D01*
X105165317Y-181929363D01*
X106469163Y-180625517D01*
X107174800Y-178921959D01*
X107174800Y-177078041D01*
X106469163Y-175374483D01*
X105165317Y-174070637D01*
X103574800Y-173411823D01*
X103574800Y-173276126D01*
X103417231Y-172895720D01*
X103126080Y-172604569D01*
X102745674Y-172447000D01*
X102333926Y-172447000D01*
X101953520Y-172604569D01*
X101662369Y-172895720D01*
X101504800Y-173276126D01*
X101504800Y-173411823D01*
X99914283Y-174070637D01*
X98610437Y-175374483D01*
X97904800Y-177078041D01*
X97904800Y-178921959D01*
X98610437Y-180625517D01*
X99914283Y-181929363D01*
X101406100Y-182547294D01*
X98977254Y-182547294D01*
X98928979Y-182500795D01*
X98928975Y-182500793D01*
X98908339Y-182480916D01*
X98908337Y-182480913D01*
X98865348Y-182439507D01*
X98844484Y-182419410D01*
X98822406Y-182398145D01*
X98822403Y-182398141D01*
X98805638Y-182381993D01*
X98794816Y-182371570D01*
X98794811Y-182371563D01*
X98786087Y-182363160D01*
X98748955Y-182307589D01*
X98682461Y-182263159D01*
X98677565Y-182258423D01*
X98677163Y-182258164D01*
X98663982Y-182245446D01*
X98663968Y-182245437D01*
X98655653Y-182237414D01*
X98616736Y-182199867D01*
X98588600Y-182172722D01*
X98586736Y-182170924D01*
X98584808Y-182169064D01*
X98532063Y-182118176D01*
X98532060Y-182118172D01*
X98487827Y-182075498D01*
X98487689Y-182068612D01*
X98487688Y-182068607D01*
X98487455Y-182056992D01*
X98487456Y-182056989D01*
X98484157Y-181892287D01*
X98484158Y-181892283D01*
X98479720Y-181670690D01*
X98479720Y-181670689D01*
X98479608Y-181665102D01*
X98478577Y-181613587D01*
X98478578Y-181613581D01*
X98477826Y-181576036D01*
X98477831Y-181576007D01*
X98477706Y-181569765D01*
X98490649Y-181504694D01*
X98475217Y-181427111D01*
X98475141Y-181421815D01*
X98474707Y-181419784D01*
X98474690Y-181418940D01*
X98474633Y-181418683D01*
X98474604Y-181417253D01*
X98460786Y-181354562D01*
X98433604Y-181217911D01*
X98430575Y-181213378D01*
X98429436Y-181208051D01*
X98428048Y-181206037D01*
X98427551Y-181203782D01*
X98349249Y-181091665D01*
X98271155Y-180974789D01*
X98266622Y-180971760D01*
X98263531Y-180967274D01*
X98261420Y-180965907D01*
X98260129Y-180964058D01*
X98146640Y-180891563D01*
X98145280Y-180890682D01*
X98028033Y-180812340D01*
X98022685Y-180811276D01*
X98018113Y-180808315D01*
X98015591Y-180807851D01*
X98013713Y-180806651D01*
X97882706Y-180783386D01*
X97879541Y-180782803D01*
X97813638Y-180769694D01*
X97808338Y-180769694D01*
X97730546Y-180755372D01*
X97728012Y-180755914D01*
X97725817Y-180755524D01*
X97661530Y-180769694D01*
X96234638Y-180769694D01*
X96162250Y-180755295D01*
X96154969Y-180756743D01*
X96147674Y-180755439D01*
X96011969Y-180785188D01*
X95875467Y-180812340D01*
X95869294Y-180816465D01*
X95862054Y-180818052D01*
X95748052Y-180897476D01*
X95632345Y-180974789D01*
X95628221Y-180980961D01*
X95622138Y-180985199D01*
X95547191Y-181102230D01*
X95469896Y-181217911D01*
X95468448Y-181225190D01*
X95464449Y-181231435D01*
X95439991Y-181368252D01*
X95412851Y-181504694D01*
X95427250Y-181577082D01*
X95427250Y-181577083D01*
X95428658Y-181584160D01*
X95428808Y-181591881D01*
X95428859Y-181592115D01*
X95429052Y-181601701D01*
X95429053Y-181601704D01*
X95429698Y-181633753D01*
X95430645Y-181680833D01*
X95432698Y-181782859D01*
X95433556Y-181825497D01*
X95434540Y-181874431D01*
X95435649Y-181929533D01*
X95435648Y-181929536D01*
X95439042Y-182098244D01*
X95439042Y-182098245D01*
X95439516Y-182121776D01*
X95439566Y-182124273D01*
X95439728Y-182132350D01*
X95382414Y-182187459D01*
X95382410Y-182187464D01*
X95373007Y-182196506D01*
X95372999Y-182196511D01*
X95346163Y-182222316D01*
X95346155Y-182222321D01*
X95332046Y-182235888D01*
X95332042Y-182235891D01*
X95291056Y-182275304D01*
X95289588Y-182276716D01*
X95280153Y-182285788D01*
X95273298Y-182292332D01*
X95264866Y-182300380D01*
X95238202Y-182325826D01*
X95229551Y-182334070D01*
X95213321Y-182349420D01*
X95195858Y-182365743D01*
X95176688Y-182383387D01*
X95156466Y-182401652D01*
X95135495Y-182420180D01*
X95114334Y-182438391D01*
X95093243Y-182455995D01*
X95071947Y-182473167D01*
X95050231Y-182490087D01*
X95028771Y-182506247D01*
X95008318Y-182521110D01*
X94989787Y-182534068D01*
X94984003Y-182537941D01*
X94968095Y-182542771D01*
X94958315Y-182544001D01*
X94934333Y-182551986D01*
X94922564Y-182553852D01*
X94908995Y-182558860D01*
X94904524Y-182559987D01*
X94901178Y-182561576D01*
X94887936Y-182565054D01*
X94887283Y-182565372D01*
X94882135Y-182566392D01*
X94871584Y-182570753D01*
X94865821Y-182572367D01*
X94858641Y-182576009D01*
X94841089Y-182581339D01*
X94836755Y-182582405D01*
X94821386Y-182589594D01*
X94808273Y-182593960D01*
X94800192Y-182598563D01*
X94787382Y-182602433D01*
X94779378Y-182606700D01*
X94773579Y-182608840D01*
X94761683Y-182616132D01*
X94761318Y-182616327D01*
X94748317Y-182621700D01*
X94739176Y-182624990D01*
X94736586Y-182626549D01*
X94734950Y-182627225D01*
X94730216Y-182630383D01*
X94716383Y-182638709D01*
X94692842Y-182649720D01*
X94692494Y-182649866D01*
X94692413Y-182649921D01*
X94692267Y-182649989D01*
X94691768Y-182650356D01*
X94683073Y-182656222D01*
X94678357Y-182657417D01*
X94663633Y-182668399D01*
X94646836Y-182677353D01*
X94646485Y-182677523D01*
X94627989Y-182691485D01*
X94613402Y-182696548D01*
X94587386Y-182719678D01*
X94581013Y-182725081D01*
X94560463Y-182738945D01*
X94559925Y-182739488D01*
X94542655Y-182747540D01*
X94510522Y-182782603D01*
X94503135Y-182788113D01*
X94499533Y-182792109D01*
X94499132Y-182792350D01*
X94487527Y-182792636D01*
X94351409Y-182794672D01*
X94182405Y-182796175D01*
X93976476Y-182797236D01*
X93734108Y-182797939D01*
X93462338Y-182798347D01*
X93171726Y-182798510D01*
X92875271Y-182798476D01*
X92582989Y-182798301D01*
X92303189Y-182798032D01*
X92052192Y-182797727D01*
X91835134Y-182797430D01*
X91734665Y-182797290D01*
X91734664Y-182797290D01*
X91635229Y-182797151D01*
X91589891Y-182797088D01*
X91494632Y-182796955D01*
X91494626Y-182796954D01*
X91406748Y-182796834D01*
X91406744Y-182796833D01*
X91380033Y-182796797D01*
X91349868Y-182796755D01*
X91349863Y-182796756D01*
X91346315Y-182796751D01*
X91326723Y-182796724D01*
X91326716Y-182796723D01*
X91290898Y-182796676D01*
X91261981Y-182796636D01*
X91261975Y-182796637D01*
X91261174Y-182796636D01*
X91244379Y-182796613D01*
X91244372Y-182796612D01*
X91218486Y-182796578D01*
X91181960Y-182796529D01*
X91181950Y-182796531D01*
X91176335Y-182796524D01*
X91099617Y-182796422D01*
X91099606Y-182796424D01*
X91004786Y-182796301D01*
X91004784Y-182796301D01*
X90949232Y-182796229D01*
X90812680Y-182796045D01*
X90634330Y-182795751D01*
X90435736Y-182795319D01*
X90217911Y-182794685D01*
X89987349Y-182793801D01*
X89750767Y-182792617D01*
X89513179Y-182791083D01*
X89279279Y-182789141D01*
X89054433Y-182786753D01*
X88841365Y-182783933D01*
X88641463Y-182780710D01*
X88456386Y-182777114D01*
X88288174Y-182773184D01*
X88138973Y-182768970D01*
X88010845Y-182764534D01*
X87906399Y-182759981D01*
X87888146Y-182758940D01*
X87887118Y-182758094D01*
X87883937Y-182755402D01*
X87883327Y-182754661D01*
X87875606Y-182748350D01*
X87873326Y-182746420D01*
X87873075Y-182746281D01*
X87866403Y-182740827D01*
X87863312Y-182738224D01*
X87862765Y-182737565D01*
X87856111Y-182732161D01*
X87854634Y-182730917D01*
X87854465Y-182730824D01*
X87847013Y-182724772D01*
X87843201Y-182721578D01*
X87842814Y-182721114D01*
X87838142Y-182717340D01*
X87835106Y-182714797D01*
X87834756Y-182714606D01*
X87828966Y-182709929D01*
X87823922Y-182705726D01*
X87823716Y-182705480D01*
X87821173Y-182703435D01*
X87814929Y-182698233D01*
X87814228Y-182697851D01*
X87811719Y-182695834D01*
X87805774Y-182690909D01*
X87805676Y-182690793D01*
X87804401Y-182689772D01*
X87794300Y-182681404D01*
X87793261Y-182680842D01*
X87789130Y-182677442D01*
X87789014Y-182677305D01*
X87787331Y-182675962D01*
X87773318Y-182664428D01*
X87772387Y-182663929D01*
X87770035Y-182662056D01*
X87752318Y-182647574D01*
X87751290Y-182647027D01*
X87731841Y-182631231D01*
X87730961Y-182630766D01*
X87712286Y-182615682D01*
X87711540Y-182615291D01*
X87693890Y-182601100D01*
X87693239Y-182600760D01*
X87676846Y-182587634D01*
X87676323Y-182587362D01*
X87661484Y-182575519D01*
X87661093Y-182575317D01*
X87657388Y-182572367D01*
X87654639Y-182570165D01*
X87647407Y-182564368D01*
X87639838Y-182558289D01*
X87633520Y-182553140D01*
X87627469Y-182548078D01*
X87620802Y-182542319D01*
X87612995Y-182535325D01*
X87603790Y-182526753D01*
X87593154Y-182516435D01*
X87580792Y-182503928D01*
X87566094Y-182488416D01*
X87548652Y-182469312D01*
X87529177Y-182447288D01*
X87508473Y-182423191D01*
X87487236Y-182397798D01*
X87466139Y-182371894D01*
X87445752Y-182346176D01*
X87426656Y-182321384D01*
X87408851Y-182297538D01*
X87391949Y-182274208D01*
X87375960Y-182251535D01*
X87361045Y-182229869D01*
X87347296Y-182209465D01*
X87334925Y-182190768D01*
X87325385Y-182176138D01*
X87325351Y-182176052D01*
X87324658Y-182174977D01*
X87324157Y-182173723D01*
X87285835Y-182114765D01*
X87247885Y-182055643D01*
X87247493Y-182055236D01*
X87242461Y-182047423D01*
X87242433Y-182047394D01*
X87219615Y-182011970D01*
X87219613Y-182011966D01*
X87191188Y-181967843D01*
X87165419Y-181927838D01*
X87165414Y-181927833D01*
X87127772Y-181869401D01*
X87122399Y-181861060D01*
X87121594Y-181818185D01*
X87120993Y-181786231D01*
X87120595Y-181765030D01*
X87119727Y-181718810D01*
X87119726Y-181718806D01*
X87119150Y-181688143D01*
X87119151Y-181688137D01*
X87118511Y-181654138D01*
X87131549Y-181588594D01*
X87115834Y-181509591D01*
X87115712Y-181502864D01*
X87101746Y-181438764D01*
X87074504Y-181301811D01*
X87070649Y-181296042D01*
X87069176Y-181289280D01*
X86989708Y-181174905D01*
X86912055Y-181058689D01*
X86906280Y-181054830D01*
X86902334Y-181049151D01*
X86785246Y-180973958D01*
X86668933Y-180896240D01*
X86662115Y-180894884D01*
X86656299Y-180891149D01*
X86519391Y-180866494D01*
X86454538Y-180853594D01*
X86382150Y-180839195D01*
X86375331Y-180840551D01*
X86368527Y-180839326D01*
X86303043Y-180853594D01*
X85305738Y-180853594D01*
X85233350Y-180839195D01*
X85225560Y-180840745D01*
X85217795Y-180839367D01*
X85082954Y-180869111D01*
X84946567Y-180896240D01*
X84939964Y-180900652D01*
X84932258Y-180902352D01*
X84819018Y-180981465D01*
X84703445Y-181058689D01*
X84699034Y-181065291D01*
X84692561Y-181069813D01*
X84618150Y-181186342D01*
X84540996Y-181301811D01*
X84539449Y-181309589D01*
X84535193Y-181316254D01*
X84511005Y-181452584D01*
X84483951Y-181588594D01*
X84498350Y-181660982D01*
X84498350Y-181660991D01*
X84499837Y-181668464D01*
X84500022Y-181677488D01*
X84500029Y-181677519D01*
X84500317Y-181691494D01*
X84500324Y-181691525D01*
X84500807Y-181714864D01*
X84498168Y-181720240D01*
X84478309Y-181760700D01*
X84478307Y-181760706D01*
X84456335Y-181805474D01*
X84456334Y-181805477D01*
X84448555Y-181821326D01*
X84448550Y-181821333D01*
X84416629Y-181886372D01*
X84385065Y-181950682D01*
X84367352Y-181986773D01*
X84367340Y-181986788D01*
X84353923Y-182014128D01*
X84353907Y-182014149D01*
X84349749Y-182022623D01*
X84346151Y-182027494D01*
X84318443Y-182086374D01*
X84289381Y-182145041D01*
X84289322Y-182145261D01*
X84282415Y-182159225D01*
X84282413Y-182159231D01*
X84272694Y-182178881D01*
X84255148Y-182214083D01*
X84235309Y-182253065D01*
X84213291Y-182295042D01*
X84189369Y-182338951D01*
X84163823Y-182383773D01*
X84137271Y-182427968D01*
X84110364Y-182470106D01*
X84083301Y-182509601D01*
X84055505Y-182547225D01*
X84026901Y-182583232D01*
X83998684Y-182616280D01*
X83988741Y-182627086D01*
X83946349Y-182637105D01*
X83912876Y-182635192D01*
X83865501Y-182651716D01*
X83834716Y-182652923D01*
X83791633Y-182672780D01*
X83789422Y-182673221D01*
X83762997Y-182676651D01*
X83736416Y-182691934D01*
X83719652Y-182696498D01*
X83712416Y-182702097D01*
X83696343Y-182705607D01*
X83686886Y-182712185D01*
X83680898Y-182714128D01*
X83667302Y-182725733D01*
X83635849Y-182738024D01*
X83634490Y-182739329D01*
X83633443Y-182739652D01*
X83612925Y-182756654D01*
X83584609Y-182770103D01*
X83578293Y-182777094D01*
X83573244Y-182779135D01*
X83555952Y-182796132D01*
X83528317Y-182812217D01*
X83521082Y-182821714D01*
X83515063Y-182824784D01*
X83496718Y-182846278D01*
X83468392Y-182866706D01*
X83463487Y-182874647D01*
X83458380Y-182877878D01*
X83456980Y-182879865D01*
X83357514Y-182881209D01*
X83175733Y-182882669D01*
X82951712Y-182883772D01*
X82686584Y-182884623D01*
X82392154Y-182885256D01*
X82078709Y-182885706D01*
X81759033Y-182886004D01*
X81445307Y-182886179D01*
X81149869Y-182886264D01*
X80883567Y-182886292D01*
X80685203Y-182886294D01*
X79702348Y-182886294D01*
X79528920Y-182886279D01*
X79318457Y-182886195D01*
X79085956Y-182885990D01*
X78837051Y-182885604D01*
X78580364Y-182884987D01*
X78321114Y-182884078D01*
X78067033Y-182882821D01*
X77825911Y-182881167D01*
X77602630Y-182879078D01*
X77398139Y-182876551D01*
X77212982Y-182873599D01*
X77047748Y-182870236D01*
X76902657Y-182866477D01*
X76779013Y-182862371D01*
X76722415Y-182859926D01*
X76691527Y-182834006D01*
X76655395Y-182822612D01*
X76652467Y-182820705D01*
X76647530Y-182818728D01*
X76642378Y-182814041D01*
X76636631Y-182811972D01*
X76600109Y-182788499D01*
X76567137Y-182782549D01*
X76566442Y-182782322D01*
X76519709Y-182758757D01*
X76496697Y-182757043D01*
X76487560Y-182753450D01*
X76484377Y-182752876D01*
X76481583Y-182751714D01*
X76478750Y-182751146D01*
X76449535Y-182739448D01*
X76435402Y-182739615D01*
X76435116Y-182739522D01*
X76427014Y-182738556D01*
X76420235Y-182737537D01*
X76386445Y-182726839D01*
X76371592Y-182728121D01*
X76370606Y-182728062D01*
X76363274Y-182726018D01*
X76354153Y-182725328D01*
X76332443Y-182720013D01*
X76317822Y-182701208D01*
X76292068Y-182665778D01*
X76265820Y-182627199D01*
X76238826Y-182584897D01*
X76211115Y-182539027D01*
X76183534Y-182491237D01*
X76156814Y-182443135D01*
X76131705Y-182396474D01*
X76108605Y-182352429D01*
X76087903Y-182312189D01*
X76069891Y-182276775D01*
X76049539Y-182236675D01*
X76042914Y-182223622D01*
X76035456Y-182208921D01*
X76028836Y-182195870D01*
X76023904Y-182186141D01*
X76019657Y-182177752D01*
X76013551Y-182165683D01*
X76011959Y-182162537D01*
X76003762Y-182146325D01*
X75996108Y-182131175D01*
X75987959Y-182115020D01*
X75978918Y-182097061D01*
X75970001Y-182079302D01*
X75960541Y-182060399D01*
X75954829Y-182048933D01*
X75953728Y-182040813D01*
X75950074Y-182009423D01*
X75946224Y-181972175D01*
X75942431Y-181931810D01*
X75938862Y-181890824D01*
X75935601Y-181851034D01*
X75932724Y-181814311D01*
X75931860Y-181802983D01*
X75940749Y-181758294D01*
X75920920Y-181658606D01*
X75918839Y-181631013D01*
X75918598Y-181630147D01*
X75918515Y-181629082D01*
X75906655Y-181586892D01*
X75883704Y-181471511D01*
X75867782Y-181447682D01*
X75860193Y-181420432D01*
X75859675Y-181419770D01*
X75859358Y-181418643D01*
X75786614Y-181326205D01*
X75721255Y-181228389D01*
X75697266Y-181212360D01*
X75679924Y-181190213D01*
X75679331Y-181189878D01*
X75678531Y-181188862D01*
X75575950Y-181131300D01*
X75478133Y-181065940D01*
X75449690Y-181060282D01*
X75425275Y-181046504D01*
X75424718Y-181046436D01*
X75423534Y-181045772D01*
X75306736Y-181031847D01*
X75263738Y-181023294D01*
X75234998Y-181023294D01*
X75212121Y-181020566D01*
X75135016Y-181011184D01*
X75134539Y-181011317D01*
X75133190Y-181011156D01*
X75090011Y-181023294D01*
X74042417Y-181023294D01*
X73961227Y-181009098D01*
X73960489Y-181009263D01*
X73959965Y-181009172D01*
X73842620Y-181035571D01*
X73826893Y-181039082D01*
X73691867Y-181065940D01*
X73684497Y-181070865D01*
X73675848Y-181072795D01*
X73675230Y-181073229D01*
X73674693Y-181073350D01*
X73573054Y-181144993D01*
X73563227Y-181151894D01*
X73448745Y-181228389D01*
X73443819Y-181235761D01*
X73436569Y-181240853D01*
X73436173Y-181241476D01*
X73435698Y-181241811D01*
X73365620Y-181352573D01*
X73362795Y-181357022D01*
X73286296Y-181471511D01*
X73284567Y-181480205D01*
X73279816Y-181487686D01*
X73279694Y-181488383D01*
X73279362Y-181488908D01*
X73256057Y-181623534D01*
X73229251Y-181758294D01*
X73245332Y-181839137D01*
X73245533Y-181847793D01*
X73245649Y-181848314D01*
X73245773Y-181853327D01*
X73245784Y-181853377D01*
X73245951Y-181860078D01*
X73245956Y-181860271D01*
X73231160Y-181892547D01*
X73231159Y-181892549D01*
X73195625Y-181970065D01*
X73195622Y-181970069D01*
X73173313Y-182018737D01*
X73171653Y-182022359D01*
X73166310Y-182034013D01*
X73159514Y-182048839D01*
X73157718Y-182052756D01*
X73152877Y-182063317D01*
X73148280Y-182073346D01*
X73148261Y-182073372D01*
X73143083Y-182084670D01*
X73142940Y-182084868D01*
X73113727Y-182148719D01*
X73113091Y-182150107D01*
X73112362Y-182151692D01*
X73082784Y-182215917D01*
X73082735Y-182216120D01*
X73079118Y-182223986D01*
X73079117Y-182223992D01*
X73077805Y-182226844D01*
X73063361Y-182258224D01*
X73046162Y-182295196D01*
X73026818Y-182335925D01*
X73005237Y-182380111D01*
X72981833Y-182426412D01*
X72956823Y-182473941D01*
X72930720Y-182521290D01*
X72903957Y-182567304D01*
X72876553Y-182611640D01*
X72848152Y-182654844D01*
X72819383Y-182696079D01*
X72791412Y-182733820D01*
X72781105Y-182746863D01*
X72780359Y-182747146D01*
X72759855Y-182751685D01*
X72742048Y-182759514D01*
X72690701Y-182772043D01*
X72688847Y-182773400D01*
X72674114Y-182777230D01*
X72665392Y-182783819D01*
X72645457Y-182789769D01*
X72626036Y-182805562D01*
X72595265Y-182817210D01*
X72564607Y-182846033D01*
X72548376Y-182854456D01*
X72504755Y-182856641D01*
X72383499Y-182861146D01*
X72235026Y-182865368D01*
X72060213Y-182869243D01*
X71860487Y-182872721D01*
X71635827Y-182875794D01*
X71387089Y-182878440D01*
X71114947Y-182880651D01*
X70819743Y-182882420D01*
X70505921Y-182883779D01*
X70183095Y-182884775D01*
X69859382Y-182885468D01*
X69546426Y-182885907D01*
X69248212Y-182886156D01*
X68977384Y-182886266D01*
X68742100Y-182886293D01*
X68622592Y-182886294D01*
X67470053Y-182886294D01*
X67270555Y-182886293D01*
X66949455Y-182886278D01*
X66586595Y-182886222D01*
X66197279Y-182886100D01*
X65791277Y-182885883D01*
X65393370Y-182885547D01*
X65012540Y-182885062D01*
X64668399Y-182884405D01*
X64374122Y-182883545D01*
X64135737Y-182882386D01*
X63947828Y-182880767D01*
X63929625Y-182880486D01*
X63921407Y-182868103D01*
X63913568Y-182854695D01*
X63912906Y-182853162D01*
X63911366Y-182850930D01*
X63909299Y-182847394D01*
X63907625Y-182845506D01*
X63899426Y-182833619D01*
X63892415Y-182822138D01*
X63891797Y-182820764D01*
X63890251Y-182818594D01*
X63886628Y-182812660D01*
X63883956Y-182809760D01*
X63878067Y-182801495D01*
X63872210Y-182792295D01*
X63871501Y-182790772D01*
X63869507Y-182788049D01*
X63863292Y-182778286D01*
X63859310Y-182774123D01*
X63856392Y-182770139D01*
X63853434Y-182765682D01*
X63852260Y-182763230D01*
X63848293Y-182757935D01*
X63839159Y-182744172D01*
X63835382Y-182740372D01*
X63834371Y-182738308D01*
X63827220Y-182728941D01*
X63815129Y-182711413D01*
X63812234Y-182708602D01*
X63807766Y-182702836D01*
X63804354Y-182698048D01*
X63804039Y-182697425D01*
X63802610Y-182695600D01*
X63792298Y-182681129D01*
X63789119Y-182678135D01*
X63787719Y-182676356D01*
X63770875Y-182653354D01*
X63767884Y-182650610D01*
X63751060Y-182628154D01*
X63748558Y-182625909D01*
X63733129Y-182605699D01*
X63731129Y-182603936D01*
X63717420Y-182586245D01*
X63715958Y-182584975D01*
X63704304Y-182570097D01*
X63703667Y-182569550D01*
X63694601Y-182558029D01*
X63694511Y-182557952D01*
X63687730Y-182549341D01*
X63687683Y-182549301D01*
X63682288Y-182542452D01*
X63682117Y-182542306D01*
X63679675Y-182539209D01*
X63677136Y-182535924D01*
X63667482Y-182523133D01*
X63655764Y-182507189D01*
X63641544Y-182487299D01*
X63624704Y-182463085D01*
X63605073Y-182434072D01*
X63582316Y-182399527D01*
X63556323Y-182359126D01*
X63527571Y-182313567D01*
X63496836Y-182264063D01*
X63464708Y-182211553D01*
X63431887Y-182157178D01*
X63398708Y-182101476D01*
X63365952Y-182045748D01*
X63333950Y-181990537D01*
X63302878Y-181936189D01*
X63273103Y-181883473D01*
X63244902Y-181833017D01*
X63218744Y-181785788D01*
X63194728Y-181742091D01*
X63173465Y-181703162D01*
X63154696Y-181668639D01*
X63139814Y-181641206D01*
X63118390Y-181601704D01*
X63110371Y-181586909D01*
X63105700Y-181578288D01*
X63099948Y-181567659D01*
X63095046Y-181558596D01*
X63088349Y-181546204D01*
X63080939Y-181532493D01*
X63071626Y-181515251D01*
X63060733Y-181495059D01*
X63048514Y-181472368D01*
X63035663Y-181448449D01*
X63022362Y-181423617D01*
X63008492Y-181397627D01*
X62994904Y-181372048D01*
X62981983Y-181347583D01*
X62969802Y-181324350D01*
X62958163Y-181301952D01*
X62947273Y-181280770D01*
X62937054Y-181260643D01*
X62927566Y-181241688D01*
X62918659Y-181223600D01*
X62910265Y-181206243D01*
X62902353Y-181189547D01*
X62894644Y-181172946D01*
X62887005Y-181156197D01*
X62879669Y-181139860D01*
X62872755Y-181124254D01*
X62870623Y-181119387D01*
X62857301Y-181052411D01*
X62813791Y-180987294D01*
X62812014Y-180983147D01*
X62782029Y-180939434D01*
X62754362Y-180894161D01*
X62744193Y-180883133D01*
X62694852Y-180809289D01*
X62690979Y-180806701D01*
X62688362Y-180802886D01*
X62642946Y-180773334D01*
X62606177Y-180733460D01*
X62525575Y-180696182D01*
X62451730Y-180646840D01*
X62447141Y-180645927D01*
X62443277Y-180643413D01*
X62390039Y-180633496D01*
X62340786Y-180610717D01*
X62252051Y-180607121D01*
X62237335Y-180604194D01*
X62232727Y-180604194D01*
X62155822Y-180589869D01*
X62102864Y-180601076D01*
X62048626Y-180598878D01*
X62034162Y-180604194D01*
X61087000Y-180604194D01*
X61087000Y-177078041D01*
X63360800Y-177078041D01*
X63360800Y-178921959D01*
X64066437Y-180625517D01*
X65370283Y-181929363D01*
X67073841Y-182635000D01*
X68917759Y-182635000D01*
X70621317Y-181929363D01*
X71925163Y-180625517D01*
X72630800Y-178921959D01*
X72630800Y-177078041D01*
X75365000Y-177078041D01*
X75365000Y-178921959D01*
X76070637Y-180625517D01*
X77374483Y-181929363D01*
X79078041Y-182635000D01*
X80921959Y-182635000D01*
X82625517Y-181929363D01*
X83929363Y-180625517D01*
X84635000Y-178921959D01*
X84635000Y-177078041D01*
X86474800Y-177078041D01*
X86474800Y-178921959D01*
X87180437Y-180625517D01*
X88484283Y-181929363D01*
X90187841Y-182635000D01*
X92031759Y-182635000D01*
X93735317Y-181929363D01*
X95039163Y-180625517D01*
X95744800Y-178921959D01*
X95744800Y-177078041D01*
X95039163Y-175374483D01*
X93735317Y-174070637D01*
X92144800Y-173411823D01*
X92144800Y-173276126D01*
X91987231Y-172895720D01*
X91696080Y-172604569D01*
X91315674Y-172447000D01*
X90903926Y-172447000D01*
X90523520Y-172604569D01*
X90232369Y-172895720D01*
X90074800Y-173276126D01*
X90074800Y-173411823D01*
X88484283Y-174070637D01*
X87180437Y-175374483D01*
X86474800Y-177078041D01*
X84635000Y-177078041D01*
X83929363Y-175374483D01*
X82625517Y-174070637D01*
X81045000Y-173415965D01*
X81045000Y-173276126D01*
X80887431Y-172895720D01*
X80596280Y-172604569D01*
X80215874Y-172447000D01*
X79804126Y-172447000D01*
X79423720Y-172604569D01*
X79132569Y-172895720D01*
X78975000Y-173276126D01*
X78975000Y-173407681D01*
X77374483Y-174070637D01*
X76070637Y-175374483D01*
X75365000Y-177078041D01*
X72630800Y-177078041D01*
X71925163Y-175374483D01*
X70621317Y-174070637D01*
X69030800Y-173411823D01*
X69030800Y-173250726D01*
X68873231Y-172870320D01*
X68582080Y-172579169D01*
X68201674Y-172421600D01*
X67789926Y-172421600D01*
X67409520Y-172579169D01*
X67118369Y-172870320D01*
X66960800Y-173250726D01*
X66960800Y-173411823D01*
X65370283Y-174070637D01*
X64066437Y-175374483D01*
X63360800Y-177078041D01*
X61087000Y-177078041D01*
X61087000Y-167767000D01*
X131953000Y-167767000D01*
X131953000Y-180425527D01*
X131953000Y-180425527D01*
G37*
X131953000Y-180425527D02*
X131905128Y-180393540D01*
X131858246Y-180384215D01*
X131815875Y-180363058D01*
X131786054Y-180360955D01*
X131757983Y-180349620D01*
X131640220Y-180350671D01*
X131524199Y-180342489D01*
X131499030Y-180350894D01*
X130192585Y-180350894D01*
X130089828Y-180339245D01*
X130088462Y-180339638D01*
X130086348Y-180339408D01*
X129977159Y-180371343D01*
X129865567Y-180393540D01*
X129838920Y-180411345D01*
X129808800Y-180420000D01*
X129807642Y-180420922D01*
X129805704Y-180421489D01*
X129717047Y-180492778D01*
X129622445Y-180555989D01*
X129604713Y-180582527D01*
X129580068Y-180602153D01*
X129579300Y-180603540D01*
X129577834Y-180604719D01*
X129523207Y-180704510D01*
X129459996Y-180799111D01*
X129439574Y-180901781D01*
X129429894Y-180932079D01*
X129429857Y-180932402D01*
X129429836Y-180932469D01*
X129422613Y-180955055D01*
X129414442Y-180980469D01*
X129405418Y-181008333D01*
X129396046Y-181037016D01*
X129386260Y-181066653D01*
X129376380Y-181096183D01*
X129366690Y-181124689D01*
X129357238Y-181151974D01*
X129348043Y-181177978D01*
X129339210Y-181202411D01*
X129330729Y-181225316D01*
X129322738Y-181246339D01*
X129315413Y-181265054D01*
X129308812Y-181281378D01*
X129303071Y-181295063D01*
X129297911Y-181306880D01*
X129293094Y-181317499D01*
X129288615Y-181327039D01*
X129284447Y-181335642D01*
X129280643Y-181343280D01*
X129278819Y-181346855D01*
X129267318Y-181368832D01*
X129267306Y-181368846D01*
X129258538Y-181385601D01*
X129232581Y-181434931D01*
X129232555Y-181435020D01*
X129229280Y-181441247D01*
X129229200Y-181441517D01*
X129225740Y-181448109D01*
X129225699Y-181448249D01*
X129221654Y-181455962D01*
X129221599Y-181456148D01*
X129218257Y-181462530D01*
X129209046Y-181480026D01*
X129194820Y-181506395D01*
X129178837Y-181534930D01*
X129160667Y-181565916D01*
X129140051Y-181599292D01*
X129116875Y-181634738D01*
X129091059Y-181671881D01*
X129062179Y-181710817D01*
X129029117Y-181752561D01*
X128991684Y-181797159D01*
X128951154Y-181842989D01*
X128909048Y-181888300D01*
X128866823Y-181931551D01*
X128826206Y-181971049D01*
X128789085Y-182005130D01*
X128757415Y-182032310D01*
X128731074Y-182053178D01*
X128708471Y-182069659D01*
X128689104Y-182082653D01*
X128672659Y-182092818D01*
X128658616Y-182100834D01*
X128645961Y-182107544D01*
X128633758Y-182113623D01*
X128633540Y-182113678D01*
X128626156Y-182117200D01*
X128625765Y-182117300D01*
X128618735Y-182120663D01*
X128618503Y-182120722D01*
X128610846Y-182124391D01*
X128610708Y-182124426D01*
X128601270Y-182128953D01*
X128600981Y-182129027D01*
X128588124Y-182135206D01*
X128586686Y-182135582D01*
X128570833Y-182143279D01*
X128568512Y-182143902D01*
X128550147Y-182152966D01*
X128547044Y-182153828D01*
X128526561Y-182164160D01*
X128522707Y-182165275D01*
X128500457Y-182176802D01*
X128495815Y-182178211D01*
X128472037Y-182190927D01*
X128466444Y-182192722D01*
X128448637Y-182202610D01*
X128442762Y-182205463D01*
X128441034Y-182206772D01*
X128434575Y-182208983D01*
X128413932Y-182220971D01*
X128405534Y-182225208D01*
X128400697Y-182226986D01*
X128384634Y-182236805D01*
X128376219Y-182241165D01*
X128373597Y-182243261D01*
X128366893Y-182245905D01*
X128355432Y-182253284D01*
X128349544Y-182256433D01*
X128345919Y-182259409D01*
X128343186Y-182261169D01*
X128340679Y-182262561D01*
X128333465Y-182265609D01*
X128325684Y-182270888D01*
X128320982Y-182273499D01*
X128317565Y-182276396D01*
X128312033Y-182280149D01*
X128306167Y-182283556D01*
X128300005Y-182286349D01*
X128294231Y-182290488D01*
X128290575Y-182292611D01*
X128287555Y-182295273D01*
X128279230Y-182301240D01*
X128272385Y-182305425D01*
X128265935Y-182308576D01*
X128260660Y-182312592D01*
X128258801Y-182313729D01*
X128257066Y-182315329D01*
X128246111Y-182323671D01*
X128236650Y-182329762D01*
X128230417Y-182333073D01*
X128216974Y-182344046D01*
X128205722Y-182348212D01*
X128196908Y-182356378D01*
X128106140Y-182360635D01*
X127850471Y-182368837D01*
X127504026Y-182376496D01*
X127060432Y-182383261D01*
X126823478Y-182385842D01*
X127925517Y-181929363D01*
X129229363Y-180625517D01*
X129935000Y-178921959D01*
X129935000Y-177078041D01*
X129229363Y-175374483D01*
X127925517Y-174070637D01*
X126333200Y-173411078D01*
X126333200Y-173276126D01*
X126175631Y-172895720D01*
X125884480Y-172604569D01*
X125504074Y-172447000D01*
X125092326Y-172447000D01*
X124711920Y-172604569D01*
X124420769Y-172895720D01*
X124263200Y-173276126D01*
X124263200Y-173412569D01*
X122674483Y-174070637D01*
X121370637Y-175374483D01*
X120665000Y-177078041D01*
X120665000Y-178921959D01*
X121370637Y-180625517D01*
X122674483Y-181929363D01*
X123806143Y-182398112D01*
X123607033Y-182397667D01*
X123130414Y-182394783D01*
X122743437Y-182390232D01*
X122441947Y-182384343D01*
X122216021Y-182377582D01*
X122055928Y-182370493D01*
X121972187Y-182365068D01*
X121971757Y-182364415D01*
X121943261Y-182345117D01*
X121936127Y-182336613D01*
X121926892Y-182329199D01*
X121924336Y-182326963D01*
X121891551Y-182289386D01*
X121875909Y-182281622D01*
X121872971Y-182278365D01*
X121864278Y-182271886D01*
X121855178Y-182263193D01*
X121845729Y-182257187D01*
X121839398Y-182250663D01*
X121830921Y-182244812D01*
X121822862Y-182237272D01*
X121820995Y-182236570D01*
X121817663Y-182233656D01*
X121811332Y-182230012D01*
X121807702Y-182226495D01*
X121794644Y-182218067D01*
X121780672Y-182206802D01*
X121777339Y-182205057D01*
X121762275Y-182195861D01*
X121753336Y-182189199D01*
X121752083Y-182188091D01*
X121751011Y-182187466D01*
X121743524Y-182181886D01*
X121732471Y-182176626D01*
X121727905Y-182172722D01*
X121720228Y-182168417D01*
X121706211Y-182158743D01*
X121699156Y-182155696D01*
X121691905Y-182151755D01*
X121689663Y-182150309D01*
X121687636Y-182148655D01*
X121684634Y-182147062D01*
X121671647Y-182138680D01*
X121663851Y-182135595D01*
X121662271Y-182134770D01*
X121661749Y-182134351D01*
X121660178Y-182133534D01*
X121640616Y-182121592D01*
X121633526Y-182118990D01*
X121612845Y-182106936D01*
X121607012Y-182104929D01*
X121588109Y-182094329D01*
X121583418Y-182092802D01*
X121566547Y-182083634D01*
X121563017Y-182082537D01*
X121548524Y-182074847D01*
X121546228Y-182074158D01*
X121538256Y-182069994D01*
X121535579Y-182068383D01*
X121531175Y-182065595D01*
X121525090Y-182061539D01*
X121517068Y-182055909D01*
X121506103Y-182047820D01*
X121491668Y-182036702D01*
X121474610Y-182023079D01*
X121455857Y-182007612D01*
X121436240Y-181990944D01*
X121416566Y-181973739D01*
X121397379Y-181956463D01*
X121379311Y-181939694D01*
X121362338Y-181923419D01*
X121345916Y-181907181D01*
X121330059Y-181891069D01*
X121314946Y-181875343D01*
X121300887Y-181860408D01*
X121287885Y-181846350D01*
X121283689Y-181841750D01*
X121283646Y-181841678D01*
X121277430Y-181834803D01*
X121277329Y-181834634D01*
X121270247Y-181826810D01*
X121270190Y-181826714D01*
X121261477Y-181817093D01*
X121261448Y-181817045D01*
X121234212Y-181786980D01*
X121207523Y-181757364D01*
X121207512Y-181757356D01*
X121199768Y-181748763D01*
X121199675Y-181748694D01*
X121193151Y-181741459D01*
X121192993Y-181741341D01*
X121186965Y-181734664D01*
X121186741Y-181734497D01*
X121180469Y-181727560D01*
X121180310Y-181727442D01*
X121173168Y-181719551D01*
X121173137Y-181719528D01*
X121171218Y-181717405D01*
X121153296Y-181697517D01*
X121134009Y-181676014D01*
X121114209Y-181653797D01*
X121107121Y-181645779D01*
X121103810Y-181620179D01*
X121097421Y-181562190D01*
X121091231Y-181498216D01*
X121085502Y-181432395D01*
X121080325Y-181367592D01*
X121075804Y-181307122D01*
X121071987Y-181253791D01*
X121069788Y-181222617D01*
X121069789Y-181222612D01*
X121069061Y-181212288D01*
X121078329Y-181165694D01*
X121074187Y-181144871D01*
X121077172Y-181123738D01*
X121057420Y-181047143D01*
X121057257Y-181044824D01*
X121057229Y-181044722D01*
X121057049Y-181042175D01*
X121057032Y-181042114D01*
X121056990Y-181041517D01*
X121044684Y-180996551D01*
X121021284Y-180878911D01*
X121009484Y-180861251D01*
X121004159Y-180840601D01*
X121000774Y-180836103D01*
X120999289Y-180830675D01*
X120925520Y-180735589D01*
X120858835Y-180635789D01*
X120841160Y-180623979D01*
X120828351Y-180606956D01*
X120823505Y-180604097D01*
X120820054Y-180599649D01*
X120715597Y-180540080D01*
X120615713Y-180473340D01*
X120589378Y-180468102D01*
X120566053Y-180454800D01*
X120446869Y-180439755D01*
X120401318Y-180430694D01*
X120380574Y-180430694D01*
X120286967Y-180417472D01*
X120281507Y-180418880D01*
X120275954Y-180418179D01*
X120230224Y-180430694D01*
X118950808Y-180430694D01*
X118878550Y-180416321D01*
X118830598Y-180425859D01*
X118781629Y-180422591D01*
X118688356Y-180454128D01*
X118591774Y-180473340D01*
X118551038Y-180500559D01*
X118504634Y-180516249D01*
X118430531Y-180581079D01*
X118348652Y-180635789D01*
X118321433Y-180676526D01*
X118284566Y-180708779D01*
X118240913Y-180797032D01*
X118186203Y-180878911D01*
X118186199Y-180878933D01*
X118186196Y-180878937D01*
X118162454Y-180998298D01*
X118150004Y-181044539D01*
X118148362Y-181069140D01*
X118143550Y-181093332D01*
X118143550Y-181093341D01*
X118129158Y-181165694D01*
X118138712Y-181213726D01*
X118135447Y-181262648D01*
X118143570Y-181286671D01*
X118143569Y-181307053D01*
X118143542Y-181351402D01*
X118143471Y-181401288D01*
X118143342Y-181452792D01*
X118143135Y-181505937D01*
X118142840Y-181558033D01*
X118142432Y-181609277D01*
X118141911Y-181656474D01*
X118141263Y-181700124D01*
X118140502Y-181739410D01*
X118139901Y-181763679D01*
X118134204Y-181771151D01*
X118116432Y-181792487D01*
X118092377Y-181818974D01*
X118059971Y-181851793D01*
X118017901Y-181891418D01*
X117968104Y-181935641D01*
X117913853Y-181981392D01*
X117858151Y-182026109D01*
X117804173Y-182067286D01*
X117755389Y-182102416D01*
X117725314Y-182122580D01*
X117701294Y-182123804D01*
X117692301Y-182122711D01*
X117681582Y-182123521D01*
X117672487Y-182121045D01*
X117649669Y-182123957D01*
X117630388Y-182126074D01*
X117620973Y-182126253D01*
X117616455Y-182127241D01*
X117600778Y-182126645D01*
X117595301Y-182127519D01*
X117568225Y-182123716D01*
X117506566Y-182139667D01*
X117493025Y-182141153D01*
X117485554Y-182143511D01*
X117438178Y-182144692D01*
X117401270Y-182161069D01*
X117399944Y-182161151D01*
X117388599Y-182166692D01*
X117369729Y-182175065D01*
X117356596Y-182178462D01*
X117344699Y-182184201D01*
X117287819Y-182197378D01*
X117252172Y-182222845D01*
X117239614Y-182227496D01*
X117232552Y-182234040D01*
X117222925Y-182241794D01*
X117184350Y-182259246D01*
X117171907Y-182272516D01*
X117137201Y-182289465D01*
X117125434Y-182302779D01*
X117118884Y-182306526D01*
X117096147Y-182335915D01*
X117092785Y-182339720D01*
X117048391Y-182373178D01*
X117034285Y-182373343D01*
X116846089Y-182374599D01*
X116614352Y-182375503D01*
X116339775Y-182376162D01*
X116036815Y-182376608D01*
X115716773Y-182376877D01*
X115391053Y-182377006D01*
X115344803Y-182377009D01*
X116425517Y-181929363D01*
X117729363Y-180625517D01*
X118435000Y-178921959D01*
X118435000Y-177078041D01*
X117729363Y-175374483D01*
X116425517Y-174070637D01*
X114827000Y-173408509D01*
X114827000Y-173250726D01*
X114669431Y-172870320D01*
X114378280Y-172579169D01*
X113997874Y-172421600D01*
X113586126Y-172421600D01*
X113205720Y-172579169D01*
X112914569Y-172870320D01*
X112757000Y-173250726D01*
X112757000Y-173415137D01*
X111174483Y-174070637D01*
X109870637Y-175374483D01*
X109165000Y-177078041D01*
X109165000Y-178921959D01*
X109870637Y-180625517D01*
X111174483Y-181929363D01*
X112252857Y-182376040D01*
X112034570Y-182375961D01*
X112034567Y-182375962D01*
X111673294Y-182375831D01*
X111673292Y-182375831D01*
X111316304Y-182375702D01*
X111316303Y-182375702D01*
X110978639Y-182375579D01*
X110978634Y-182375580D01*
X110820111Y-182375523D01*
X110421361Y-182375378D01*
X110421358Y-182375379D01*
X110224488Y-182375307D01*
X110204628Y-182354814D01*
X110187911Y-182337563D01*
X110187910Y-182337562D01*
X110187819Y-182337468D01*
X110166114Y-182315071D01*
X110151998Y-182300505D01*
X110151997Y-182300505D01*
X110127095Y-182274808D01*
X110127091Y-182274802D01*
X110109488Y-182256638D01*
X110109477Y-182256621D01*
X110105354Y-182252367D01*
X110105352Y-182252364D01*
X110103331Y-182250279D01*
X110103328Y-182250274D01*
X110101929Y-182248831D01*
X110101501Y-182248171D01*
X110101305Y-182247969D01*
X110101052Y-182247581D01*
X110051706Y-182197012D01*
X110008798Y-182152728D01*
X110008752Y-182152696D01*
X110006701Y-182150580D01*
X110004595Y-182148407D01*
X110002577Y-182146325D01*
X110002574Y-182146323D01*
X110001848Y-182145574D01*
X110001193Y-182145121D01*
X109999896Y-182143789D01*
X109999857Y-182143762D01*
X109998147Y-182142004D01*
X109981110Y-182124412D01*
X109962550Y-182105115D01*
X109942113Y-182083678D01*
X109920548Y-182060818D01*
X109898265Y-182036900D01*
X109875785Y-182012416D01*
X109853363Y-181987574D01*
X109830902Y-181962217D01*
X109808701Y-181936691D01*
X109787089Y-181911392D01*
X109766591Y-181886946D01*
X109747763Y-181864046D01*
X109738223Y-181852185D01*
X109736882Y-181835807D01*
X109734100Y-181799308D01*
X109731242Y-181759324D01*
X109728307Y-181715781D01*
X109725360Y-181669795D01*
X109722423Y-181622008D01*
X109719515Y-181573074D01*
X109716770Y-181525623D01*
X109714163Y-181479564D01*
X109711852Y-181438026D01*
X109709808Y-181400799D01*
X109709101Y-181387820D01*
X109719549Y-181335294D01*
X109701385Y-181243980D01*
X109700380Y-181224709D01*
X109700189Y-181223957D01*
X109700154Y-181223309D01*
X109687225Y-181172790D01*
X109662504Y-181048511D01*
X109651494Y-181032034D01*
X109646621Y-181012827D01*
X109646111Y-181012143D01*
X109645956Y-181011539D01*
X109577296Y-180919945D01*
X109570641Y-180911029D01*
X109500055Y-180805389D01*
X109483576Y-180794378D01*
X109471725Y-180778500D01*
X109470899Y-180778008D01*
X109470574Y-180777575D01*
X109385097Y-180726934D01*
X109362579Y-180713531D01*
X109256933Y-180642940D01*
X109237494Y-180639073D01*
X109220469Y-180628939D01*
X109219436Y-180628789D01*
X109219009Y-180628536D01*
X109128956Y-180615648D01*
X109094758Y-180610681D01*
X109042538Y-180600294D01*
X109023238Y-180600294D01*
X108931105Y-180586913D01*
X108930048Y-180587181D01*
X108929557Y-180587111D01*
X108878047Y-180600294D01*
X107497882Y-180600294D01*
X107419931Y-180585977D01*
X107418434Y-180586298D01*
X107417616Y-180586150D01*
X107317929Y-180607830D01*
X107282302Y-180615463D01*
X107144167Y-180642940D01*
X107139502Y-180646057D01*
X107134018Y-180647232D01*
X107132756Y-180648102D01*
X107131893Y-180648290D01*
X107042757Y-180710171D01*
X107018155Y-180727139D01*
X106901045Y-180805389D01*
X106897927Y-180810056D01*
X106893311Y-180813239D01*
X106892508Y-180814480D01*
X106891701Y-180815040D01*
X106826450Y-180916560D01*
X106816842Y-180931408D01*
X106738596Y-181048511D01*
X106737501Y-181054014D01*
X106734454Y-181058723D01*
X106734205Y-181060079D01*
X106733604Y-181061014D01*
X106709356Y-181195372D01*
X106709029Y-181197152D01*
X106681551Y-181335294D01*
X106697014Y-181413031D01*
X106697096Y-181418617D01*
X106697288Y-181419515D01*
X106697387Y-181425267D01*
X106697399Y-181425320D01*
X106697736Y-181444833D01*
X106697739Y-181444846D01*
X106698058Y-181463264D01*
X106698059Y-181463268D01*
X106698416Y-181483826D01*
X106699109Y-181523819D01*
X106699110Y-181523822D01*
X106699280Y-181533639D01*
X106699279Y-181533644D01*
X106700569Y-181607959D01*
X106700638Y-181611929D01*
X106701790Y-181678390D01*
X106701791Y-181678393D01*
X106702423Y-181714863D01*
X106702422Y-181714869D01*
X106703714Y-181789349D01*
X106683154Y-181822558D01*
X106680269Y-181827218D01*
X106680260Y-181827228D01*
X106667378Y-181848036D01*
X106667333Y-181848084D01*
X106664816Y-181852151D01*
X106664103Y-181852920D01*
X106627472Y-181912486D01*
X106590477Y-181971677D01*
X106590017Y-181972890D01*
X106589474Y-181973766D01*
X106589421Y-181973906D01*
X106588872Y-181974793D01*
X106588855Y-181974839D01*
X106585430Y-181980359D01*
X106573573Y-181999110D01*
X106561003Y-182018309D01*
X106546941Y-182038844D01*
X106531091Y-182060818D01*
X106513246Y-182084177D01*
X106493285Y-182108725D01*
X106471040Y-182134314D01*
X106445122Y-182162114D01*
X106414833Y-182192591D01*
X106381333Y-182224437D01*
X106346672Y-182255659D01*
X106312901Y-182284462D01*
X106297853Y-182296559D01*
X106295413Y-182297022D01*
X106292680Y-182296600D01*
X106286629Y-182298078D01*
X106276249Y-182298598D01*
X106268304Y-182300596D01*
X106259535Y-182300982D01*
X106249920Y-182303338D01*
X106240411Y-182304203D01*
X106226257Y-182308382D01*
X106211458Y-182309838D01*
X106205699Y-182311584D01*
X106199833Y-182312394D01*
X106182220Y-182318496D01*
X106179241Y-182319061D01*
X106163133Y-182321530D01*
X106159753Y-182322758D01*
X106156041Y-182323462D01*
X106140162Y-182329875D01*
X106137923Y-182330688D01*
X106107387Y-182336814D01*
X106104142Y-182338990D01*
X106091393Y-182341768D01*
X106083887Y-182346983D01*
X106064257Y-182351921D01*
X106054688Y-182359032D01*
X106030761Y-182366096D01*
X106022847Y-182372493D01*
X106016873Y-182374663D01*
X106012584Y-182377262D01*
X106012570Y-182377267D01*
X106010664Y-182377872D01*
X106010395Y-182378020D01*
X105993281Y-182383949D01*
X105986054Y-182390367D01*
X105974821Y-182395062D01*
X105968919Y-182399033D01*
X105953351Y-182405320D01*
X105949232Y-182409366D01*
X105945133Y-182410957D01*
X105942316Y-182412749D01*
X105937779Y-182414862D01*
X105929776Y-182420725D01*
X105925263Y-182423595D01*
X105920480Y-182426032D01*
X105912293Y-182429519D01*
X105908335Y-182432221D01*
X105903913Y-182434474D01*
X105896675Y-182440180D01*
X105892646Y-182442931D01*
X105886949Y-182446071D01*
X105878834Y-182449863D01*
X105875115Y-182452595D01*
X105872083Y-182454266D01*
X105866943Y-182458597D01*
X105860360Y-182463432D01*
X105854685Y-182466796D01*
X105847421Y-182470485D01*
X105844226Y-182472996D01*
X105841437Y-182474650D01*
X105836598Y-182478993D01*
X105829958Y-182484213D01*
X105827118Y-182486020D01*
X105819609Y-182490106D01*
X105816112Y-182493020D01*
X105811345Y-182496052D01*
X105803675Y-182503383D01*
X105803016Y-182503933D01*
X105795110Y-182508491D01*
X105789835Y-182513111D01*
X105781415Y-182518859D01*
X105776795Y-182523572D01*
X105773633Y-182525485D01*
X105764459Y-182533870D01*
X105764221Y-182534045D01*
X105740196Y-182535264D01*
X105647175Y-182538187D01*
X105523290Y-182540576D01*
X105366148Y-182542433D01*
X105172068Y-182543849D01*
X104938625Y-182544934D01*
X104671005Y-182545765D01*
X104380160Y-182546375D01*
X104076884Y-182546798D01*
X103772010Y-182547066D01*
X103673931Y-182547115D01*
X105165317Y-181929363D01*
X106469163Y-180625517D01*
X107174800Y-178921959D01*
X107174800Y-177078041D01*
X106469163Y-175374483D01*
X105165317Y-174070637D01*
X103574800Y-173411823D01*
X103574800Y-173276126D01*
X103417231Y-172895720D01*
X103126080Y-172604569D01*
X102745674Y-172447000D01*
X102333926Y-172447000D01*
X101953520Y-172604569D01*
X101662369Y-172895720D01*
X101504800Y-173276126D01*
X101504800Y-173411823D01*
X99914283Y-174070637D01*
X98610437Y-175374483D01*
X97904800Y-177078041D01*
X97904800Y-178921959D01*
X98610437Y-180625517D01*
X99914283Y-181929363D01*
X101406100Y-182547294D01*
X98977254Y-182547294D01*
X98928979Y-182500795D01*
X98928975Y-182500793D01*
X98908339Y-182480916D01*
X98908337Y-182480913D01*
X98865348Y-182439507D01*
X98844484Y-182419410D01*
X98822406Y-182398145D01*
X98822403Y-182398141D01*
X98805638Y-182381993D01*
X98794816Y-182371570D01*
X98794811Y-182371563D01*
X98786087Y-182363160D01*
X98748955Y-182307589D01*
X98682461Y-182263159D01*
X98677565Y-182258423D01*
X98677163Y-182258164D01*
X98663982Y-182245446D01*
X98663968Y-182245437D01*
X98655653Y-182237414D01*
X98616736Y-182199867D01*
X98588600Y-182172722D01*
X98586736Y-182170924D01*
X98584808Y-182169064D01*
X98532063Y-182118176D01*
X98532060Y-182118172D01*
X98487827Y-182075498D01*
X98487689Y-182068612D01*
X98487688Y-182068607D01*
X98487455Y-182056992D01*
X98487456Y-182056989D01*
X98484157Y-181892287D01*
X98484158Y-181892283D01*
X98479720Y-181670690D01*
X98479720Y-181670689D01*
X98479608Y-181665102D01*
X98478577Y-181613587D01*
X98478578Y-181613581D01*
X98477826Y-181576036D01*
X98477831Y-181576007D01*
X98477706Y-181569765D01*
X98490649Y-181504694D01*
X98475217Y-181427111D01*
X98475141Y-181421815D01*
X98474707Y-181419784D01*
X98474690Y-181418940D01*
X98474633Y-181418683D01*
X98474604Y-181417253D01*
X98460786Y-181354562D01*
X98433604Y-181217911D01*
X98430575Y-181213378D01*
X98429436Y-181208051D01*
X98428048Y-181206037D01*
X98427551Y-181203782D01*
X98349249Y-181091665D01*
X98271155Y-180974789D01*
X98266622Y-180971760D01*
X98263531Y-180967274D01*
X98261420Y-180965907D01*
X98260129Y-180964058D01*
X98146640Y-180891563D01*
X98145280Y-180890682D01*
X98028033Y-180812340D01*
X98022685Y-180811276D01*
X98018113Y-180808315D01*
X98015591Y-180807851D01*
X98013713Y-180806651D01*
X97882706Y-180783386D01*
X97879541Y-180782803D01*
X97813638Y-180769694D01*
X97808338Y-180769694D01*
X97730546Y-180755372D01*
X97728012Y-180755914D01*
X97725817Y-180755524D01*
X97661530Y-180769694D01*
X96234638Y-180769694D01*
X96162250Y-180755295D01*
X96154969Y-180756743D01*
X96147674Y-180755439D01*
X96011969Y-180785188D01*
X95875467Y-180812340D01*
X95869294Y-180816465D01*
X95862054Y-180818052D01*
X95748052Y-180897476D01*
X95632345Y-180974789D01*
X95628221Y-180980961D01*
X95622138Y-180985199D01*
X95547191Y-181102230D01*
X95469896Y-181217911D01*
X95468448Y-181225190D01*
X95464449Y-181231435D01*
X95439991Y-181368252D01*
X95412851Y-181504694D01*
X95427250Y-181577082D01*
X95427250Y-181577083D01*
X95428658Y-181584160D01*
X95428808Y-181591881D01*
X95428859Y-181592115D01*
X95429052Y-181601701D01*
X95429053Y-181601704D01*
X95429698Y-181633753D01*
X95430645Y-181680833D01*
X95432698Y-181782859D01*
X95433556Y-181825497D01*
X95434540Y-181874431D01*
X95435649Y-181929533D01*
X95435648Y-181929536D01*
X95439042Y-182098244D01*
X95439042Y-182098245D01*
X95439516Y-182121776D01*
X95439566Y-182124273D01*
X95439728Y-182132350D01*
X95382414Y-182187459D01*
X95382410Y-182187464D01*
X95373007Y-182196506D01*
X95372999Y-182196511D01*
X95346163Y-182222316D01*
X95346155Y-182222321D01*
X95332046Y-182235888D01*
X95332042Y-182235891D01*
X95291056Y-182275304D01*
X95289588Y-182276716D01*
X95280153Y-182285788D01*
X95273298Y-182292332D01*
X95264866Y-182300380D01*
X95238202Y-182325826D01*
X95229551Y-182334070D01*
X95213321Y-182349420D01*
X95195858Y-182365743D01*
X95176688Y-182383387D01*
X95156466Y-182401652D01*
X95135495Y-182420180D01*
X95114334Y-182438391D01*
X95093243Y-182455995D01*
X95071947Y-182473167D01*
X95050231Y-182490087D01*
X95028771Y-182506247D01*
X95008318Y-182521110D01*
X94989787Y-182534068D01*
X94984003Y-182537941D01*
X94968095Y-182542771D01*
X94958315Y-182544001D01*
X94934333Y-182551986D01*
X94922564Y-182553852D01*
X94908995Y-182558860D01*
X94904524Y-182559987D01*
X94901178Y-182561576D01*
X94887936Y-182565054D01*
X94887283Y-182565372D01*
X94882135Y-182566392D01*
X94871584Y-182570753D01*
X94865821Y-182572367D01*
X94858641Y-182576009D01*
X94841089Y-182581339D01*
X94836755Y-182582405D01*
X94821386Y-182589594D01*
X94808273Y-182593960D01*
X94800192Y-182598563D01*
X94787382Y-182602433D01*
X94779378Y-182606700D01*
X94773579Y-182608840D01*
X94761683Y-182616132D01*
X94761318Y-182616327D01*
X94748317Y-182621700D01*
X94739176Y-182624990D01*
X94736586Y-182626549D01*
X94734950Y-182627225D01*
X94730216Y-182630383D01*
X94716383Y-182638709D01*
X94692842Y-182649720D01*
X94692494Y-182649866D01*
X94692413Y-182649921D01*
X94692267Y-182649989D01*
X94691768Y-182650356D01*
X94683073Y-182656222D01*
X94678357Y-182657417D01*
X94663633Y-182668399D01*
X94646836Y-182677353D01*
X94646485Y-182677523D01*
X94627989Y-182691485D01*
X94613402Y-182696548D01*
X94587386Y-182719678D01*
X94581013Y-182725081D01*
X94560463Y-182738945D01*
X94559925Y-182739488D01*
X94542655Y-182747540D01*
X94510522Y-182782603D01*
X94503135Y-182788113D01*
X94499533Y-182792109D01*
X94499132Y-182792350D01*
X94487527Y-182792636D01*
X94351409Y-182794672D01*
X94182405Y-182796175D01*
X93976476Y-182797236D01*
X93734108Y-182797939D01*
X93462338Y-182798347D01*
X93171726Y-182798510D01*
X92875271Y-182798476D01*
X92582989Y-182798301D01*
X92303189Y-182798032D01*
X92052192Y-182797727D01*
X91835134Y-182797430D01*
X91734665Y-182797290D01*
X91734664Y-182797290D01*
X91635229Y-182797151D01*
X91589891Y-182797088D01*
X91494632Y-182796955D01*
X91494626Y-182796954D01*
X91406748Y-182796834D01*
X91406744Y-182796833D01*
X91380033Y-182796797D01*
X91349868Y-182796755D01*
X91349863Y-182796756D01*
X91346315Y-182796751D01*
X91326723Y-182796724D01*
X91326716Y-182796723D01*
X91290898Y-182796676D01*
X91261981Y-182796636D01*
X91261975Y-182796637D01*
X91261174Y-182796636D01*
X91244379Y-182796613D01*
X91244372Y-182796612D01*
X91218486Y-182796578D01*
X91181960Y-182796529D01*
X91181950Y-182796531D01*
X91176335Y-182796524D01*
X91099617Y-182796422D01*
X91099606Y-182796424D01*
X91004786Y-182796301D01*
X91004784Y-182796301D01*
X90949232Y-182796229D01*
X90812680Y-182796045D01*
X90634330Y-182795751D01*
X90435736Y-182795319D01*
X90217911Y-182794685D01*
X89987349Y-182793801D01*
X89750767Y-182792617D01*
X89513179Y-182791083D01*
X89279279Y-182789141D01*
X89054433Y-182786753D01*
X88841365Y-182783933D01*
X88641463Y-182780710D01*
X88456386Y-182777114D01*
X88288174Y-182773184D01*
X88138973Y-182768970D01*
X88010845Y-182764534D01*
X87906399Y-182759981D01*
X87888146Y-182758940D01*
X87887118Y-182758094D01*
X87883937Y-182755402D01*
X87883327Y-182754661D01*
X87875606Y-182748350D01*
X87873326Y-182746420D01*
X87873075Y-182746281D01*
X87866403Y-182740827D01*
X87863312Y-182738224D01*
X87862765Y-182737565D01*
X87856111Y-182732161D01*
X87854634Y-182730917D01*
X87854465Y-182730824D01*
X87847013Y-182724772D01*
X87843201Y-182721578D01*
X87842814Y-182721114D01*
X87838142Y-182717340D01*
X87835106Y-182714797D01*
X87834756Y-182714606D01*
X87828966Y-182709929D01*
X87823922Y-182705726D01*
X87823716Y-182705480D01*
X87821173Y-182703435D01*
X87814929Y-182698233D01*
X87814228Y-182697851D01*
X87811719Y-182695834D01*
X87805774Y-182690909D01*
X87805676Y-182690793D01*
X87804401Y-182689772D01*
X87794300Y-182681404D01*
X87793261Y-182680842D01*
X87789130Y-182677442D01*
X87789014Y-182677305D01*
X87787331Y-182675962D01*
X87773318Y-182664428D01*
X87772387Y-182663929D01*
X87770035Y-182662056D01*
X87752318Y-182647574D01*
X87751290Y-182647027D01*
X87731841Y-182631231D01*
X87730961Y-182630766D01*
X87712286Y-182615682D01*
X87711540Y-182615291D01*
X87693890Y-182601100D01*
X87693239Y-182600760D01*
X87676846Y-182587634D01*
X87676323Y-182587362D01*
X87661484Y-182575519D01*
X87661093Y-182575317D01*
X87657388Y-182572367D01*
X87654639Y-182570165D01*
X87647407Y-182564368D01*
X87639838Y-182558289D01*
X87633520Y-182553140D01*
X87627469Y-182548078D01*
X87620802Y-182542319D01*
X87612995Y-182535325D01*
X87603790Y-182526753D01*
X87593154Y-182516435D01*
X87580792Y-182503928D01*
X87566094Y-182488416D01*
X87548652Y-182469312D01*
X87529177Y-182447288D01*
X87508473Y-182423191D01*
X87487236Y-182397798D01*
X87466139Y-182371894D01*
X87445752Y-182346176D01*
X87426656Y-182321384D01*
X87408851Y-182297538D01*
X87391949Y-182274208D01*
X87375960Y-182251535D01*
X87361045Y-182229869D01*
X87347296Y-182209465D01*
X87334925Y-182190768D01*
X87325385Y-182176138D01*
X87325351Y-182176052D01*
X87324658Y-182174977D01*
X87324157Y-182173723D01*
X87285835Y-182114765D01*
X87247885Y-182055643D01*
X87247493Y-182055236D01*
X87242461Y-182047423D01*
X87242433Y-182047394D01*
X87219615Y-182011970D01*
X87219613Y-182011966D01*
X87191188Y-181967843D01*
X87165419Y-181927838D01*
X87165414Y-181927833D01*
X87127772Y-181869401D01*
X87122399Y-181861060D01*
X87121594Y-181818185D01*
X87120993Y-181786231D01*
X87120595Y-181765030D01*
X87119727Y-181718810D01*
X87119726Y-181718806D01*
X87119150Y-181688143D01*
X87119151Y-181688137D01*
X87118511Y-181654138D01*
X87131549Y-181588594D01*
X87115834Y-181509591D01*
X87115712Y-181502864D01*
X87101746Y-181438764D01*
X87074504Y-181301811D01*
X87070649Y-181296042D01*
X87069176Y-181289280D01*
X86989708Y-181174905D01*
X86912055Y-181058689D01*
X86906280Y-181054830D01*
X86902334Y-181049151D01*
X86785246Y-180973958D01*
X86668933Y-180896240D01*
X86662115Y-180894884D01*
X86656299Y-180891149D01*
X86519391Y-180866494D01*
X86454538Y-180853594D01*
X86382150Y-180839195D01*
X86375331Y-180840551D01*
X86368527Y-180839326D01*
X86303043Y-180853594D01*
X85305738Y-180853594D01*
X85233350Y-180839195D01*
X85225560Y-180840745D01*
X85217795Y-180839367D01*
X85082954Y-180869111D01*
X84946567Y-180896240D01*
X84939964Y-180900652D01*
X84932258Y-180902352D01*
X84819018Y-180981465D01*
X84703445Y-181058689D01*
X84699034Y-181065291D01*
X84692561Y-181069813D01*
X84618150Y-181186342D01*
X84540996Y-181301811D01*
X84539449Y-181309589D01*
X84535193Y-181316254D01*
X84511005Y-181452584D01*
X84483951Y-181588594D01*
X84498350Y-181660982D01*
X84498350Y-181660991D01*
X84499837Y-181668464D01*
X84500022Y-181677488D01*
X84500029Y-181677519D01*
X84500317Y-181691494D01*
X84500324Y-181691525D01*
X84500807Y-181714864D01*
X84498168Y-181720240D01*
X84478309Y-181760700D01*
X84478307Y-181760706D01*
X84456335Y-181805474D01*
X84456334Y-181805477D01*
X84448555Y-181821326D01*
X84448550Y-181821333D01*
X84416629Y-181886372D01*
X84385065Y-181950682D01*
X84367352Y-181986773D01*
X84367340Y-181986788D01*
X84353923Y-182014128D01*
X84353907Y-182014149D01*
X84349749Y-182022623D01*
X84346151Y-182027494D01*
X84318443Y-182086374D01*
X84289381Y-182145041D01*
X84289322Y-182145261D01*
X84282415Y-182159225D01*
X84282413Y-182159231D01*
X84272694Y-182178881D01*
X84255148Y-182214083D01*
X84235309Y-182253065D01*
X84213291Y-182295042D01*
X84189369Y-182338951D01*
X84163823Y-182383773D01*
X84137271Y-182427968D01*
X84110364Y-182470106D01*
X84083301Y-182509601D01*
X84055505Y-182547225D01*
X84026901Y-182583232D01*
X83998684Y-182616280D01*
X83988741Y-182627086D01*
X83946349Y-182637105D01*
X83912876Y-182635192D01*
X83865501Y-182651716D01*
X83834716Y-182652923D01*
X83791633Y-182672780D01*
X83789422Y-182673221D01*
X83762997Y-182676651D01*
X83736416Y-182691934D01*
X83719652Y-182696498D01*
X83712416Y-182702097D01*
X83696343Y-182705607D01*
X83686886Y-182712185D01*
X83680898Y-182714128D01*
X83667302Y-182725733D01*
X83635849Y-182738024D01*
X83634490Y-182739329D01*
X83633443Y-182739652D01*
X83612925Y-182756654D01*
X83584609Y-182770103D01*
X83578293Y-182777094D01*
X83573244Y-182779135D01*
X83555952Y-182796132D01*
X83528317Y-182812217D01*
X83521082Y-182821714D01*
X83515063Y-182824784D01*
X83496718Y-182846278D01*
X83468392Y-182866706D01*
X83463487Y-182874647D01*
X83458380Y-182877878D01*
X83456980Y-182879865D01*
X83357514Y-182881209D01*
X83175733Y-182882669D01*
X82951712Y-182883772D01*
X82686584Y-182884623D01*
X82392154Y-182885256D01*
X82078709Y-182885706D01*
X81759033Y-182886004D01*
X81445307Y-182886179D01*
X81149869Y-182886264D01*
X80883567Y-182886292D01*
X80685203Y-182886294D01*
X79702348Y-182886294D01*
X79528920Y-182886279D01*
X79318457Y-182886195D01*
X79085956Y-182885990D01*
X78837051Y-182885604D01*
X78580364Y-182884987D01*
X78321114Y-182884078D01*
X78067033Y-182882821D01*
X77825911Y-182881167D01*
X77602630Y-182879078D01*
X77398139Y-182876551D01*
X77212982Y-182873599D01*
X77047748Y-182870236D01*
X76902657Y-182866477D01*
X76779013Y-182862371D01*
X76722415Y-182859926D01*
X76691527Y-182834006D01*
X76655395Y-182822612D01*
X76652467Y-182820705D01*
X76647530Y-182818728D01*
X76642378Y-182814041D01*
X76636631Y-182811972D01*
X76600109Y-182788499D01*
X76567137Y-182782549D01*
X76566442Y-182782322D01*
X76519709Y-182758757D01*
X76496697Y-182757043D01*
X76487560Y-182753450D01*
X76484377Y-182752876D01*
X76481583Y-182751714D01*
X76478750Y-182751146D01*
X76449535Y-182739448D01*
X76435402Y-182739615D01*
X76435116Y-182739522D01*
X76427014Y-182738556D01*
X76420235Y-182737537D01*
X76386445Y-182726839D01*
X76371592Y-182728121D01*
X76370606Y-182728062D01*
X76363274Y-182726018D01*
X76354153Y-182725328D01*
X76332443Y-182720013D01*
X76317822Y-182701208D01*
X76292068Y-182665778D01*
X76265820Y-182627199D01*
X76238826Y-182584897D01*
X76211115Y-182539027D01*
X76183534Y-182491237D01*
X76156814Y-182443135D01*
X76131705Y-182396474D01*
X76108605Y-182352429D01*
X76087903Y-182312189D01*
X76069891Y-182276775D01*
X76049539Y-182236675D01*
X76042914Y-182223622D01*
X76035456Y-182208921D01*
X76028836Y-182195870D01*
X76023904Y-182186141D01*
X76019657Y-182177752D01*
X76013551Y-182165683D01*
X76011959Y-182162537D01*
X76003762Y-182146325D01*
X75996108Y-182131175D01*
X75987959Y-182115020D01*
X75978918Y-182097061D01*
X75970001Y-182079302D01*
X75960541Y-182060399D01*
X75954829Y-182048933D01*
X75953728Y-182040813D01*
X75950074Y-182009423D01*
X75946224Y-181972175D01*
X75942431Y-181931810D01*
X75938862Y-181890824D01*
X75935601Y-181851034D01*
X75932724Y-181814311D01*
X75931860Y-181802983D01*
X75940749Y-181758294D01*
X75920920Y-181658606D01*
X75918839Y-181631013D01*
X75918598Y-181630147D01*
X75918515Y-181629082D01*
X75906655Y-181586892D01*
X75883704Y-181471511D01*
X75867782Y-181447682D01*
X75860193Y-181420432D01*
X75859675Y-181419770D01*
X75859358Y-181418643D01*
X75786614Y-181326205D01*
X75721255Y-181228389D01*
X75697266Y-181212360D01*
X75679924Y-181190213D01*
X75679331Y-181189878D01*
X75678531Y-181188862D01*
X75575950Y-181131300D01*
X75478133Y-181065940D01*
X75449690Y-181060282D01*
X75425275Y-181046504D01*
X75424718Y-181046436D01*
X75423534Y-181045772D01*
X75306736Y-181031847D01*
X75263738Y-181023294D01*
X75234998Y-181023294D01*
X75212121Y-181020566D01*
X75135016Y-181011184D01*
X75134539Y-181011317D01*
X75133190Y-181011156D01*
X75090011Y-181023294D01*
X74042417Y-181023294D01*
X73961227Y-181009098D01*
X73960489Y-181009263D01*
X73959965Y-181009172D01*
X73842620Y-181035571D01*
X73826893Y-181039082D01*
X73691867Y-181065940D01*
X73684497Y-181070865D01*
X73675848Y-181072795D01*
X73675230Y-181073229D01*
X73674693Y-181073350D01*
X73573054Y-181144993D01*
X73563227Y-181151894D01*
X73448745Y-181228389D01*
X73443819Y-181235761D01*
X73436569Y-181240853D01*
X73436173Y-181241476D01*
X73435698Y-181241811D01*
X73365620Y-181352573D01*
X73362795Y-181357022D01*
X73286296Y-181471511D01*
X73284567Y-181480205D01*
X73279816Y-181487686D01*
X73279694Y-181488383D01*
X73279362Y-181488908D01*
X73256057Y-181623534D01*
X73229251Y-181758294D01*
X73245332Y-181839137D01*
X73245533Y-181847793D01*
X73245649Y-181848314D01*
X73245773Y-181853327D01*
X73245784Y-181853377D01*
X73245951Y-181860078D01*
X73245956Y-181860271D01*
X73231160Y-181892547D01*
X73231159Y-181892549D01*
X73195625Y-181970065D01*
X73195622Y-181970069D01*
X73173313Y-182018737D01*
X73171653Y-182022359D01*
X73166310Y-182034013D01*
X73159514Y-182048839D01*
X73157718Y-182052756D01*
X73152877Y-182063317D01*
X73148280Y-182073346D01*
X73148261Y-182073372D01*
X73143083Y-182084670D01*
X73142940Y-182084868D01*
X73113727Y-182148719D01*
X73113091Y-182150107D01*
X73112362Y-182151692D01*
X73082784Y-182215917D01*
X73082735Y-182216120D01*
X73079118Y-182223986D01*
X73079117Y-182223992D01*
X73077805Y-182226844D01*
X73063361Y-182258224D01*
X73046162Y-182295196D01*
X73026818Y-182335925D01*
X73005237Y-182380111D01*
X72981833Y-182426412D01*
X72956823Y-182473941D01*
X72930720Y-182521290D01*
X72903957Y-182567304D01*
X72876553Y-182611640D01*
X72848152Y-182654844D01*
X72819383Y-182696079D01*
X72791412Y-182733820D01*
X72781105Y-182746863D01*
X72780359Y-182747146D01*
X72759855Y-182751685D01*
X72742048Y-182759514D01*
X72690701Y-182772043D01*
X72688847Y-182773400D01*
X72674114Y-182777230D01*
X72665392Y-182783819D01*
X72645457Y-182789769D01*
X72626036Y-182805562D01*
X72595265Y-182817210D01*
X72564607Y-182846033D01*
X72548376Y-182854456D01*
X72504755Y-182856641D01*
X72383499Y-182861146D01*
X72235026Y-182865368D01*
X72060213Y-182869243D01*
X71860487Y-182872721D01*
X71635827Y-182875794D01*
X71387089Y-182878440D01*
X71114947Y-182880651D01*
X70819743Y-182882420D01*
X70505921Y-182883779D01*
X70183095Y-182884775D01*
X69859382Y-182885468D01*
X69546426Y-182885907D01*
X69248212Y-182886156D01*
X68977384Y-182886266D01*
X68742100Y-182886293D01*
X68622592Y-182886294D01*
X67470053Y-182886294D01*
X67270555Y-182886293D01*
X66949455Y-182886278D01*
X66586595Y-182886222D01*
X66197279Y-182886100D01*
X65791277Y-182885883D01*
X65393370Y-182885547D01*
X65012540Y-182885062D01*
X64668399Y-182884405D01*
X64374122Y-182883545D01*
X64135737Y-182882386D01*
X63947828Y-182880767D01*
X63929625Y-182880486D01*
X63921407Y-182868103D01*
X63913568Y-182854695D01*
X63912906Y-182853162D01*
X63911366Y-182850930D01*
X63909299Y-182847394D01*
X63907625Y-182845506D01*
X63899426Y-182833619D01*
X63892415Y-182822138D01*
X63891797Y-182820764D01*
X63890251Y-182818594D01*
X63886628Y-182812660D01*
X63883956Y-182809760D01*
X63878067Y-182801495D01*
X63872210Y-182792295D01*
X63871501Y-182790772D01*
X63869507Y-182788049D01*
X63863292Y-182778286D01*
X63859310Y-182774123D01*
X63856392Y-182770139D01*
X63853434Y-182765682D01*
X63852260Y-182763230D01*
X63848293Y-182757935D01*
X63839159Y-182744172D01*
X63835382Y-182740372D01*
X63834371Y-182738308D01*
X63827220Y-182728941D01*
X63815129Y-182711413D01*
X63812234Y-182708602D01*
X63807766Y-182702836D01*
X63804354Y-182698048D01*
X63804039Y-182697425D01*
X63802610Y-182695600D01*
X63792298Y-182681129D01*
X63789119Y-182678135D01*
X63787719Y-182676356D01*
X63770875Y-182653354D01*
X63767884Y-182650610D01*
X63751060Y-182628154D01*
X63748558Y-182625909D01*
X63733129Y-182605699D01*
X63731129Y-182603936D01*
X63717420Y-182586245D01*
X63715958Y-182584975D01*
X63704304Y-182570097D01*
X63703667Y-182569550D01*
X63694601Y-182558029D01*
X63694511Y-182557952D01*
X63687730Y-182549341D01*
X63687683Y-182549301D01*
X63682288Y-182542452D01*
X63682117Y-182542306D01*
X63679675Y-182539209D01*
X63677136Y-182535924D01*
X63667482Y-182523133D01*
X63655764Y-182507189D01*
X63641544Y-182487299D01*
X63624704Y-182463085D01*
X63605073Y-182434072D01*
X63582316Y-182399527D01*
X63556323Y-182359126D01*
X63527571Y-182313567D01*
X63496836Y-182264063D01*
X63464708Y-182211553D01*
X63431887Y-182157178D01*
X63398708Y-182101476D01*
X63365952Y-182045748D01*
X63333950Y-181990537D01*
X63302878Y-181936189D01*
X63273103Y-181883473D01*
X63244902Y-181833017D01*
X63218744Y-181785788D01*
X63194728Y-181742091D01*
X63173465Y-181703162D01*
X63154696Y-181668639D01*
X63139814Y-181641206D01*
X63118390Y-181601704D01*
X63110371Y-181586909D01*
X63105700Y-181578288D01*
X63099948Y-181567659D01*
X63095046Y-181558596D01*
X63088349Y-181546204D01*
X63080939Y-181532493D01*
X63071626Y-181515251D01*
X63060733Y-181495059D01*
X63048514Y-181472368D01*
X63035663Y-181448449D01*
X63022362Y-181423617D01*
X63008492Y-181397627D01*
X62994904Y-181372048D01*
X62981983Y-181347583D01*
X62969802Y-181324350D01*
X62958163Y-181301952D01*
X62947273Y-181280770D01*
X62937054Y-181260643D01*
X62927566Y-181241688D01*
X62918659Y-181223600D01*
X62910265Y-181206243D01*
X62902353Y-181189547D01*
X62894644Y-181172946D01*
X62887005Y-181156197D01*
X62879669Y-181139860D01*
X62872755Y-181124254D01*
X62870623Y-181119387D01*
X62857301Y-181052411D01*
X62813791Y-180987294D01*
X62812014Y-180983147D01*
X62782029Y-180939434D01*
X62754362Y-180894161D01*
X62744193Y-180883133D01*
X62694852Y-180809289D01*
X62690979Y-180806701D01*
X62688362Y-180802886D01*
X62642946Y-180773334D01*
X62606177Y-180733460D01*
X62525575Y-180696182D01*
X62451730Y-180646840D01*
X62447141Y-180645927D01*
X62443277Y-180643413D01*
X62390039Y-180633496D01*
X62340786Y-180610717D01*
X62252051Y-180607121D01*
X62237335Y-180604194D01*
X62232727Y-180604194D01*
X62155822Y-180589869D01*
X62102864Y-180601076D01*
X62048626Y-180598878D01*
X62034162Y-180604194D01*
X61087000Y-180604194D01*
X61087000Y-177078041D01*
X63360800Y-177078041D01*
X63360800Y-178921959D01*
X64066437Y-180625517D01*
X65370283Y-181929363D01*
X67073841Y-182635000D01*
X68917759Y-182635000D01*
X70621317Y-181929363D01*
X71925163Y-180625517D01*
X72630800Y-178921959D01*
X72630800Y-177078041D01*
X75365000Y-177078041D01*
X75365000Y-178921959D01*
X76070637Y-180625517D01*
X77374483Y-181929363D01*
X79078041Y-182635000D01*
X80921959Y-182635000D01*
X82625517Y-181929363D01*
X83929363Y-180625517D01*
X84635000Y-178921959D01*
X84635000Y-177078041D01*
X86474800Y-177078041D01*
X86474800Y-178921959D01*
X87180437Y-180625517D01*
X88484283Y-181929363D01*
X90187841Y-182635000D01*
X92031759Y-182635000D01*
X93735317Y-181929363D01*
X95039163Y-180625517D01*
X95744800Y-178921959D01*
X95744800Y-177078041D01*
X95039163Y-175374483D01*
X93735317Y-174070637D01*
X92144800Y-173411823D01*
X92144800Y-173276126D01*
X91987231Y-172895720D01*
X91696080Y-172604569D01*
X91315674Y-172447000D01*
X90903926Y-172447000D01*
X90523520Y-172604569D01*
X90232369Y-172895720D01*
X90074800Y-173276126D01*
X90074800Y-173411823D01*
X88484283Y-174070637D01*
X87180437Y-175374483D01*
X86474800Y-177078041D01*
X84635000Y-177078041D01*
X83929363Y-175374483D01*
X82625517Y-174070637D01*
X81045000Y-173415965D01*
X81045000Y-173276126D01*
X80887431Y-172895720D01*
X80596280Y-172604569D01*
X80215874Y-172447000D01*
X79804126Y-172447000D01*
X79423720Y-172604569D01*
X79132569Y-172895720D01*
X78975000Y-173276126D01*
X78975000Y-173407681D01*
X77374483Y-174070637D01*
X76070637Y-175374483D01*
X75365000Y-177078041D01*
X72630800Y-177078041D01*
X71925163Y-175374483D01*
X70621317Y-174070637D01*
X69030800Y-173411823D01*
X69030800Y-173250726D01*
X68873231Y-172870320D01*
X68582080Y-172579169D01*
X68201674Y-172421600D01*
X67789926Y-172421600D01*
X67409520Y-172579169D01*
X67118369Y-172870320D01*
X66960800Y-173250726D01*
X66960800Y-173411823D01*
X65370283Y-174070637D01*
X64066437Y-175374483D01*
X63360800Y-177078041D01*
X61087000Y-177078041D01*
X61087000Y-167767000D01*
X131953000Y-167767000D01*
X131953000Y-180425527D01*
G04 #@! TD*
M02*
