G04 #@! TF.GenerationSoftware,KiCad,Pcbnew,(5.0.2)-1*
G04 #@! TF.CreationDate,2019-03-20T23:13:41-06:00*
G04 #@! TF.ProjectId,Hak4Kidz2019,48616b34-4b69-4647-9a32-3031392e6b69,rev?*
G04 #@! TF.SameCoordinates,Original*
G04 #@! TF.FileFunction,Paste,Bot*
G04 #@! TF.FilePolarity,Positive*
%FSLAX46Y46*%
G04 Gerber Fmt 4.6, Leading zero omitted, Abs format (unit mm)*
G04 Created by KiCad (PCBNEW (5.0.2)-1) date 3/20/2019 11:13:41 PM*
%MOMM*%
%LPD*%
G01*
G04 APERTURE LIST*
%ADD10C,0.800000*%
%ADD11C,0.100000*%
%ADD12R,1.400000X0.800000*%
%ADD13R,0.299720X0.988060*%
%ADD14R,0.250000X1.300000*%
%ADD15R,1.300000X0.250000*%
%ADD16R,4.000000X4.000000*%
%ADD17R,0.750000X0.800000*%
%ADD18R,0.800000X0.750000*%
%ADD19R,1.200000X2.600000*%
%ADD20R,1.900000X1.900000*%
%ADD21R,1.800000X1.900000*%
%ADD22R,2.100000X1.600000*%
%ADD23R,0.400000X1.350000*%
%ADD24R,0.900000X0.500000*%
%ADD25R,0.500000X0.900000*%
%ADD26R,1.200000X2.500000*%
%ADD27R,5.000000X5.000000*%
%ADD28R,2.000000X0.900000*%
%ADD29R,0.900000X2.000000*%
%ADD30R,0.410000X1.600000*%
%ADD31R,3.050000X2.750000*%
%ADD32R,2.200000X1.200000*%
G04 APERTURE END LIST*
D10*
G04 #@! TO.C,D7*
X55026466Y-70304780D03*
D11*
G36*
X54220248Y-70301190D02*
X54620248Y-69608370D01*
X55832684Y-70308370D01*
X55432684Y-71001190D01*
X54220248Y-70301190D01*
X54220248Y-70301190D01*
G37*
D10*
X50523134Y-67704780D03*
D11*
G36*
X49716916Y-67701190D02*
X50116916Y-67008370D01*
X51329352Y-67708370D01*
X50929352Y-68401190D01*
X49716916Y-67701190D01*
X49716916Y-67701190D01*
G37*
D10*
X54226466Y-71690420D03*
D11*
G36*
X53420248Y-71686830D02*
X53820248Y-70994010D01*
X55032684Y-71694010D01*
X54632684Y-72386830D01*
X53420248Y-71686830D01*
X53420248Y-71686830D01*
G37*
D10*
X49723134Y-69090420D03*
D11*
G36*
X48916916Y-69086830D02*
X49316916Y-68394010D01*
X50529352Y-69094010D01*
X50129352Y-69786830D01*
X48916916Y-69086830D01*
X48916916Y-69086830D01*
G37*
G04 #@! TD*
D12*
G04 #@! TO.C,D1*
X84946800Y-45809000D03*
X79746800Y-45809000D03*
X84946800Y-47409000D03*
X79746800Y-47409000D03*
G04 #@! TD*
G04 #@! TO.C,D2*
X121980000Y-52108200D03*
X116780000Y-52108200D03*
X121980000Y-53708200D03*
X116780000Y-53708200D03*
G04 #@! TD*
D10*
G04 #@! TO.C,D3*
X52511866Y-59052580D03*
D11*
G36*
X51705648Y-59048990D02*
X52105648Y-58356170D01*
X53318084Y-59056170D01*
X52918084Y-59748990D01*
X51705648Y-59048990D01*
X51705648Y-59048990D01*
G37*
D10*
X48008534Y-56452580D03*
D11*
G36*
X47202316Y-56448990D02*
X47602316Y-55756170D01*
X48814752Y-56456170D01*
X48414752Y-57148990D01*
X47202316Y-56448990D01*
X47202316Y-56448990D01*
G37*
D10*
X51711866Y-60438220D03*
D11*
G36*
X50905648Y-60434630D02*
X51305648Y-59741810D01*
X52518084Y-60441810D01*
X52118084Y-61134630D01*
X50905648Y-60434630D01*
X50905648Y-60434630D01*
G37*
D10*
X47208534Y-57838220D03*
D11*
G36*
X46402316Y-57834630D02*
X46802316Y-57141810D01*
X48014752Y-57841810D01*
X47614752Y-58534630D01*
X46402316Y-57834630D01*
X46402316Y-57834630D01*
G37*
G04 #@! TD*
D10*
G04 #@! TO.C,D4*
X58252266Y-57630180D03*
D11*
G36*
X57446048Y-57626590D02*
X57846048Y-56933770D01*
X59058484Y-57633770D01*
X58658484Y-58326590D01*
X57446048Y-57626590D01*
X57446048Y-57626590D01*
G37*
D10*
X53748934Y-55030180D03*
D11*
G36*
X52942716Y-55026590D02*
X53342716Y-54333770D01*
X54555152Y-55033770D01*
X54155152Y-55726590D01*
X52942716Y-55026590D01*
X52942716Y-55026590D01*
G37*
D10*
X57452266Y-59015820D03*
D11*
G36*
X56646048Y-59012230D02*
X57046048Y-58319410D01*
X58258484Y-59019410D01*
X57858484Y-59712230D01*
X56646048Y-59012230D01*
X56646048Y-59012230D01*
G37*
D10*
X52948934Y-56415820D03*
D11*
G36*
X52142716Y-56412230D02*
X52542716Y-55719410D01*
X53755152Y-56419410D01*
X53355152Y-57112230D01*
X52142716Y-56412230D01*
X52142716Y-56412230D01*
G37*
G04 #@! TD*
D10*
G04 #@! TO.C,D5*
X53781866Y-64640580D03*
D11*
G36*
X52975648Y-64636990D02*
X53375648Y-63944170D01*
X54588084Y-64644170D01*
X54188084Y-65336990D01*
X52975648Y-64636990D01*
X52975648Y-64636990D01*
G37*
D10*
X49278534Y-62040580D03*
D11*
G36*
X48472316Y-62036990D02*
X48872316Y-61344170D01*
X50084752Y-62044170D01*
X49684752Y-62736990D01*
X48472316Y-62036990D01*
X48472316Y-62036990D01*
G37*
D10*
X52981866Y-66026220D03*
D11*
G36*
X52175648Y-66022630D02*
X52575648Y-65329810D01*
X53788084Y-66029810D01*
X53388084Y-66722630D01*
X52175648Y-66022630D01*
X52175648Y-66022630D01*
G37*
D10*
X48478534Y-63426220D03*
D11*
G36*
X47672316Y-63422630D02*
X48072316Y-62729810D01*
X49284752Y-63429810D01*
X48884752Y-64122630D01*
X47672316Y-63422630D01*
X47672316Y-63422630D01*
G37*
G04 #@! TD*
D10*
G04 #@! TO.C,D6*
X59623866Y-63319780D03*
D11*
G36*
X58817648Y-63316190D02*
X59217648Y-62623370D01*
X60430084Y-63323370D01*
X60030084Y-64016190D01*
X58817648Y-63316190D01*
X58817648Y-63316190D01*
G37*
D10*
X55120534Y-60719780D03*
D11*
G36*
X54314316Y-60716190D02*
X54714316Y-60023370D01*
X55926752Y-60723370D01*
X55526752Y-61416190D01*
X54314316Y-60716190D01*
X54314316Y-60716190D01*
G37*
D10*
X58823866Y-64705420D03*
D11*
G36*
X58017648Y-64701830D02*
X58417648Y-64009010D01*
X59630084Y-64709010D01*
X59230084Y-65401830D01*
X58017648Y-64701830D01*
X58017648Y-64701830D01*
G37*
D10*
X54320534Y-62105420D03*
D11*
G36*
X53514316Y-62101830D02*
X53914316Y-61409010D01*
X55126752Y-62109010D01*
X54726752Y-62801830D01*
X53514316Y-62101830D01*
X53514316Y-62101830D01*
G37*
G04 #@! TD*
D10*
G04 #@! TO.C,D8*
X60817666Y-68856980D03*
D11*
G36*
X60011448Y-68853390D02*
X60411448Y-68160570D01*
X61623884Y-68860570D01*
X61223884Y-69553390D01*
X60011448Y-68853390D01*
X60011448Y-68853390D01*
G37*
D10*
X56314334Y-66256980D03*
D11*
G36*
X55508116Y-66253390D02*
X55908116Y-65560570D01*
X57120552Y-66260570D01*
X56720552Y-66953390D01*
X55508116Y-66253390D01*
X55508116Y-66253390D01*
G37*
D10*
X60017666Y-70242620D03*
D11*
G36*
X59211448Y-70239030D02*
X59611448Y-69546210D01*
X60823884Y-70246210D01*
X60423884Y-70939030D01*
X59211448Y-70239030D01*
X59211448Y-70239030D01*
G37*
D10*
X55514334Y-67642620D03*
D11*
G36*
X54708116Y-67639030D02*
X55108116Y-66946210D01*
X56320552Y-67646210D01*
X55920552Y-68339030D01*
X54708116Y-67639030D01*
X54708116Y-67639030D01*
G37*
G04 #@! TD*
D13*
G04 #@! TO.C,U5*
X142405100Y-158404560D03*
X141757400Y-158404560D03*
X141109700Y-158404560D03*
X141109700Y-156799280D03*
X141757400Y-156799280D03*
X142405100Y-156799280D03*
G04 #@! TD*
D14*
G04 #@! TO.C,U3*
X68448800Y-95707200D03*
X68948800Y-95707200D03*
X69448800Y-95707200D03*
X69948800Y-95707200D03*
X70448800Y-95707200D03*
X70948800Y-95707200D03*
X71448800Y-95707200D03*
X71948800Y-95707200D03*
X72448800Y-95707200D03*
X72948800Y-95707200D03*
X73448800Y-95707200D03*
X73948800Y-95707200D03*
D15*
X75548800Y-94107200D03*
X75548800Y-93607200D03*
X75548800Y-93107200D03*
X75548800Y-92607200D03*
X75548800Y-92107200D03*
X75548800Y-91607200D03*
X75548800Y-91107200D03*
X75548800Y-90607200D03*
X75548800Y-90107200D03*
X75548800Y-89607200D03*
X75548800Y-89107200D03*
X75548800Y-88607200D03*
D14*
X73948800Y-87007200D03*
X73448800Y-87007200D03*
X72948800Y-87007200D03*
X72448800Y-87007200D03*
X71948800Y-87007200D03*
X71448800Y-87007200D03*
X70948800Y-87007200D03*
X70448800Y-87007200D03*
X69948800Y-87007200D03*
X69448800Y-87007200D03*
X68948800Y-87007200D03*
X68448800Y-87007200D03*
D15*
X66848800Y-88607200D03*
X66848800Y-89107200D03*
X66848800Y-89607200D03*
X66848800Y-90107200D03*
X66848800Y-90607200D03*
X66848800Y-91107200D03*
X66848800Y-91607200D03*
X66848800Y-92107200D03*
X66848800Y-92607200D03*
X66848800Y-93107200D03*
X66848800Y-93607200D03*
X66848800Y-94107200D03*
D16*
X71198800Y-91357200D03*
G04 #@! TD*
D17*
G04 #@! TO.C,C1*
X148640800Y-123330400D03*
X148640800Y-121830400D03*
G04 #@! TD*
G04 #@! TO.C,C2*
X149961600Y-123330400D03*
X149961600Y-121830400D03*
G04 #@! TD*
G04 #@! TO.C,C3*
X143916400Y-156337000D03*
X143916400Y-154837000D03*
G04 #@! TD*
D18*
G04 #@! TO.C,C4*
X72276400Y-99568000D03*
X70776400Y-99568000D03*
G04 #@! TD*
G04 #@! TO.C,C5*
X70776400Y-98298000D03*
X72276400Y-98298000D03*
G04 #@! TD*
D17*
G04 #@! TO.C,C6*
X143916400Y-157632400D03*
X143916400Y-159132400D03*
G04 #@! TD*
D18*
G04 #@! TO.C,C7*
X145123600Y-169087800D03*
X143623600Y-169087800D03*
G04 #@! TD*
G04 #@! TO.C,C8*
X143610200Y-170383200D03*
X145110200Y-170383200D03*
G04 #@! TD*
G04 #@! TO.C,C9*
X149594000Y-172643800D03*
X148094000Y-172643800D03*
G04 #@! TD*
G04 #@! TO.C,C10*
X146661000Y-172643800D03*
X145161000Y-172643800D03*
G04 #@! TD*
G04 #@! TO.C,C11*
X110364400Y-120573800D03*
X108864400Y-120573800D03*
G04 #@! TD*
G04 #@! TO.C,C12*
X108736000Y-111455200D03*
X110236000Y-111455200D03*
G04 #@! TD*
D19*
G04 #@! TO.C,D9*
X85065200Y-94284800D03*
X89865200Y-94284800D03*
G04 #@! TD*
G04 #@! TO.C,D10*
X121361200Y-99339400D03*
X116561200Y-99339400D03*
G04 #@! TD*
G04 #@! TO.C,D11*
X93561200Y-100939600D03*
X98361200Y-100939600D03*
G04 #@! TD*
G04 #@! TO.C,D12*
X97917000Y-105613200D03*
X93117000Y-105613200D03*
G04 #@! TD*
G04 #@! TO.C,D13*
X100762400Y-101727000D03*
X105562400Y-101727000D03*
G04 #@! TD*
G04 #@! TO.C,D14*
X105130600Y-105892600D03*
X100330600Y-105892600D03*
G04 #@! TD*
G04 #@! TO.C,D15*
X107175600Y-102235000D03*
X111975600Y-102235000D03*
G04 #@! TD*
G04 #@! TO.C,D16*
X111760000Y-106629200D03*
X106960000Y-106629200D03*
G04 #@! TD*
D20*
G04 #@! TO.C,J1*
X144303600Y-179197000D03*
D21*
X146903600Y-179197000D03*
D20*
X141903600Y-179197000D03*
D21*
X139303600Y-179197000D03*
D22*
X146203600Y-176647000D03*
X140003600Y-176647000D03*
D23*
X144403600Y-176522000D03*
X143753600Y-176522000D03*
X143103600Y-176522000D03*
X142453600Y-176522000D03*
X141803600Y-176522000D03*
G04 #@! TD*
D24*
G04 #@! TO.C,R1*
X102057200Y-116738400D03*
X102057200Y-118238400D03*
G04 #@! TD*
D25*
G04 #@! TO.C,R2*
X141261400Y-154813000D03*
X142761400Y-154813000D03*
G04 #@! TD*
D24*
G04 #@! TO.C,R3*
X73812400Y-99683000D03*
X73812400Y-98183000D03*
G04 #@! TD*
G04 #@! TO.C,R4*
X67640200Y-99683000D03*
X67640200Y-98183000D03*
G04 #@! TD*
G04 #@! TO.C,R5*
X66040000Y-99683000D03*
X66040000Y-98183000D03*
G04 #@! TD*
G04 #@! TO.C,R6*
X69240400Y-99683000D03*
X69240400Y-98183000D03*
G04 #@! TD*
D25*
G04 #@! TO.C,R7*
X148551200Y-128346200D03*
X150051200Y-128346200D03*
G04 #@! TD*
G04 #@! TO.C,R8*
X150051200Y-129819400D03*
X148551200Y-129819400D03*
G04 #@! TD*
D24*
G04 #@! TO.C,R9*
X146685000Y-169023600D03*
X146685000Y-170523600D03*
G04 #@! TD*
G04 #@! TO.C,R10*
X148107400Y-169035600D03*
X148107400Y-170535600D03*
G04 #@! TD*
D26*
G04 #@! TO.C,SW1*
X46369600Y-118853400D03*
X48869600Y-118853400D03*
X51369600Y-118853400D03*
G04 #@! TD*
D27*
G04 #@! TO.C,U1*
X138300000Y-129445400D03*
D28*
X145800000Y-121945400D03*
X145800000Y-123215400D03*
X145800000Y-124485400D03*
X145800000Y-125755400D03*
X145800000Y-127025400D03*
X145800000Y-128295400D03*
X145800000Y-129565400D03*
X145800000Y-130835400D03*
X145800000Y-132105400D03*
X145800000Y-133375400D03*
X145800000Y-134645400D03*
X145800000Y-135915400D03*
X145800000Y-137185400D03*
X145800000Y-138455400D03*
D29*
X143015000Y-139455400D03*
X141745000Y-139455400D03*
X140475000Y-139455400D03*
X139205000Y-139455400D03*
X137935000Y-139455400D03*
X136665000Y-139455400D03*
X135395000Y-139455400D03*
X134125000Y-139455400D03*
X132855000Y-139455400D03*
X131585000Y-139455400D03*
D28*
X128800000Y-138455400D03*
X128800000Y-137185400D03*
X128800000Y-135915400D03*
X128800000Y-134645400D03*
X128800000Y-133375400D03*
X128800000Y-132105400D03*
X128800000Y-130835400D03*
X128800000Y-129565400D03*
X128800000Y-128295400D03*
X128800000Y-127025400D03*
X128800000Y-125755400D03*
X128800000Y-124485400D03*
X128800000Y-123215400D03*
X128800000Y-121945400D03*
G04 #@! TD*
D30*
G04 #@! TO.C,U2*
X142227300Y-166789100D03*
X142862300Y-166789100D03*
X143497300Y-166789100D03*
X146672300Y-166789100D03*
X147307300Y-166789100D03*
X147942300Y-166789100D03*
X147942300Y-161480500D03*
X147307300Y-161480500D03*
X146672300Y-161480500D03*
X143497300Y-161480500D03*
X142862300Y-161480500D03*
X142227300Y-161480500D03*
X144132300Y-161480500D03*
X144767300Y-161480500D03*
X144767300Y-166789100D03*
X144132300Y-166789100D03*
X145402300Y-161480500D03*
X146037300Y-161480500D03*
X145402300Y-166789100D03*
X146037300Y-166789100D03*
G04 #@! TD*
D31*
G04 #@! TO.C,U6*
X112159600Y-114527600D03*
X115509600Y-117577600D03*
X112159600Y-117577600D03*
X115509600Y-114527600D03*
D32*
X107534600Y-113772600D03*
X107534600Y-118332600D03*
G04 #@! TD*
M02*
