G04 #@! TF.GenerationSoftware,KiCad,Pcbnew,(5.0.2)-1*
G04 #@! TF.CreationDate,2019-03-20T23:13:44-06:00*
G04 #@! TF.ProjectId,Hak4Kidz2019,48616b34-4b69-4647-9a32-3031392e6b69,rev?*
G04 #@! TF.SameCoordinates,Original*
G04 #@! TF.FileFunction,Soldermask,Bot*
G04 #@! TF.FilePolarity,Negative*
%FSLAX46Y46*%
G04 Gerber Fmt 4.6, Leading zero omitted, Abs format (unit mm)*
G04 Created by KiCad (PCBNEW (5.0.2)-1) date 3/20/2019 11:13:44 PM*
%MOMM*%
%LPD*%
G01*
G04 APERTURE LIST*
%ADD10C,0.100000*%
G04 APERTURE END LIST*
D10*
G36*
X147854600Y-180198000D02*
X145952600Y-180198000D01*
X145952600Y-178196000D01*
X147854600Y-178196000D01*
X147854600Y-180198000D01*
X147854600Y-180198000D01*
G37*
G36*
X140254600Y-180198000D02*
X138352600Y-180198000D01*
X138352600Y-178196000D01*
X140254600Y-178196000D01*
X140254600Y-180198000D01*
X140254600Y-180198000D01*
G37*
G36*
X145304600Y-180198000D02*
X143302600Y-180198000D01*
X143302600Y-178196000D01*
X145304600Y-178196000D01*
X145304600Y-180198000D01*
X145304600Y-180198000D01*
G37*
G36*
X142904600Y-180198000D02*
X140902600Y-180198000D01*
X140902600Y-178196000D01*
X142904600Y-178196000D01*
X142904600Y-180198000D01*
X142904600Y-180198000D01*
G37*
G36*
X49640442Y-178175518D02*
X49706627Y-178182037D01*
X49819853Y-178216384D01*
X49876467Y-178233557D01*
X50015087Y-178307652D01*
X50032991Y-178317222D01*
X50068729Y-178346552D01*
X50170186Y-178429814D01*
X50253448Y-178531271D01*
X50282778Y-178567009D01*
X50282779Y-178567011D01*
X50366443Y-178723533D01*
X50366443Y-178723534D01*
X50417963Y-178893373D01*
X50435359Y-179070000D01*
X50417963Y-179246627D01*
X50383616Y-179359853D01*
X50366443Y-179416467D01*
X50292348Y-179555087D01*
X50282778Y-179572991D01*
X50253448Y-179608729D01*
X50170186Y-179710186D01*
X50068729Y-179793448D01*
X50032991Y-179822778D01*
X50032989Y-179822779D01*
X49876467Y-179906443D01*
X49819853Y-179923616D01*
X49706627Y-179957963D01*
X49640442Y-179964482D01*
X49574260Y-179971000D01*
X49485740Y-179971000D01*
X49419558Y-179964482D01*
X49353373Y-179957963D01*
X49240147Y-179923616D01*
X49183533Y-179906443D01*
X49027011Y-179822779D01*
X49027009Y-179822778D01*
X48991271Y-179793448D01*
X48889814Y-179710186D01*
X48806552Y-179608729D01*
X48777222Y-179572991D01*
X48767652Y-179555087D01*
X48693557Y-179416467D01*
X48676384Y-179359853D01*
X48642037Y-179246627D01*
X48624641Y-179070000D01*
X48642037Y-178893373D01*
X48693557Y-178723534D01*
X48693557Y-178723533D01*
X48777221Y-178567011D01*
X48777222Y-178567009D01*
X48806552Y-178531271D01*
X48889814Y-178429814D01*
X48991271Y-178346552D01*
X49027009Y-178317222D01*
X49044913Y-178307652D01*
X49183533Y-178233557D01*
X49240147Y-178216384D01*
X49353373Y-178182037D01*
X49419558Y-178175518D01*
X49485740Y-178169000D01*
X49574260Y-178169000D01*
X49640442Y-178175518D01*
X49640442Y-178175518D01*
G37*
G36*
X54720442Y-178175518D02*
X54786627Y-178182037D01*
X54899853Y-178216384D01*
X54956467Y-178233557D01*
X55095087Y-178307652D01*
X55112991Y-178317222D01*
X55148729Y-178346552D01*
X55250186Y-178429814D01*
X55333448Y-178531271D01*
X55362778Y-178567009D01*
X55362779Y-178567011D01*
X55446443Y-178723533D01*
X55446443Y-178723534D01*
X55497963Y-178893373D01*
X55515359Y-179070000D01*
X55497963Y-179246627D01*
X55463616Y-179359853D01*
X55446443Y-179416467D01*
X55372348Y-179555087D01*
X55362778Y-179572991D01*
X55333448Y-179608729D01*
X55250186Y-179710186D01*
X55148729Y-179793448D01*
X55112991Y-179822778D01*
X55112989Y-179822779D01*
X54956467Y-179906443D01*
X54899853Y-179923616D01*
X54786627Y-179957963D01*
X54720442Y-179964482D01*
X54654260Y-179971000D01*
X54565740Y-179971000D01*
X54499558Y-179964482D01*
X54433373Y-179957963D01*
X54320147Y-179923616D01*
X54263533Y-179906443D01*
X54107011Y-179822779D01*
X54107009Y-179822778D01*
X54071271Y-179793448D01*
X53969814Y-179710186D01*
X53886552Y-179608729D01*
X53857222Y-179572991D01*
X53847652Y-179555087D01*
X53773557Y-179416467D01*
X53756384Y-179359853D01*
X53722037Y-179246627D01*
X53704641Y-179070000D01*
X53722037Y-178893373D01*
X53773557Y-178723534D01*
X53773557Y-178723533D01*
X53857221Y-178567011D01*
X53857222Y-178567009D01*
X53886552Y-178531271D01*
X53969814Y-178429814D01*
X54071271Y-178346552D01*
X54107009Y-178317222D01*
X54124913Y-178307652D01*
X54263533Y-178233557D01*
X54320147Y-178216384D01*
X54433373Y-178182037D01*
X54499558Y-178175518D01*
X54565740Y-178169000D01*
X54654260Y-178169000D01*
X54720442Y-178175518D01*
X54720442Y-178175518D01*
G37*
G36*
X52180442Y-178175518D02*
X52246627Y-178182037D01*
X52359853Y-178216384D01*
X52416467Y-178233557D01*
X52555087Y-178307652D01*
X52572991Y-178317222D01*
X52608729Y-178346552D01*
X52710186Y-178429814D01*
X52793448Y-178531271D01*
X52822778Y-178567009D01*
X52822779Y-178567011D01*
X52906443Y-178723533D01*
X52906443Y-178723534D01*
X52957963Y-178893373D01*
X52975359Y-179070000D01*
X52957963Y-179246627D01*
X52923616Y-179359853D01*
X52906443Y-179416467D01*
X52832348Y-179555087D01*
X52822778Y-179572991D01*
X52793448Y-179608729D01*
X52710186Y-179710186D01*
X52608729Y-179793448D01*
X52572991Y-179822778D01*
X52572989Y-179822779D01*
X52416467Y-179906443D01*
X52359853Y-179923616D01*
X52246627Y-179957963D01*
X52180442Y-179964482D01*
X52114260Y-179971000D01*
X52025740Y-179971000D01*
X51959558Y-179964482D01*
X51893373Y-179957963D01*
X51780147Y-179923616D01*
X51723533Y-179906443D01*
X51567011Y-179822779D01*
X51567009Y-179822778D01*
X51531271Y-179793448D01*
X51429814Y-179710186D01*
X51346552Y-179608729D01*
X51317222Y-179572991D01*
X51307652Y-179555087D01*
X51233557Y-179416467D01*
X51216384Y-179359853D01*
X51182037Y-179246627D01*
X51164641Y-179070000D01*
X51182037Y-178893373D01*
X51233557Y-178723534D01*
X51233557Y-178723533D01*
X51317221Y-178567011D01*
X51317222Y-178567009D01*
X51346552Y-178531271D01*
X51429814Y-178429814D01*
X51531271Y-178346552D01*
X51567009Y-178317222D01*
X51584913Y-178307652D01*
X51723533Y-178233557D01*
X51780147Y-178216384D01*
X51893373Y-178182037D01*
X51959558Y-178175518D01*
X52025740Y-178169000D01*
X52114260Y-178169000D01*
X52180442Y-178175518D01*
X52180442Y-178175518D01*
G37*
G36*
X44560442Y-178175518D02*
X44626627Y-178182037D01*
X44739853Y-178216384D01*
X44796467Y-178233557D01*
X44935087Y-178307652D01*
X44952991Y-178317222D01*
X44988729Y-178346552D01*
X45090186Y-178429814D01*
X45173448Y-178531271D01*
X45202778Y-178567009D01*
X45202779Y-178567011D01*
X45286443Y-178723533D01*
X45286443Y-178723534D01*
X45337963Y-178893373D01*
X45355359Y-179070000D01*
X45337963Y-179246627D01*
X45303616Y-179359853D01*
X45286443Y-179416467D01*
X45212348Y-179555087D01*
X45202778Y-179572991D01*
X45173448Y-179608729D01*
X45090186Y-179710186D01*
X44988729Y-179793448D01*
X44952991Y-179822778D01*
X44952989Y-179822779D01*
X44796467Y-179906443D01*
X44739853Y-179923616D01*
X44626627Y-179957963D01*
X44560442Y-179964482D01*
X44494260Y-179971000D01*
X44405740Y-179971000D01*
X44339558Y-179964482D01*
X44273373Y-179957963D01*
X44160147Y-179923616D01*
X44103533Y-179906443D01*
X43947011Y-179822779D01*
X43947009Y-179822778D01*
X43911271Y-179793448D01*
X43809814Y-179710186D01*
X43726552Y-179608729D01*
X43697222Y-179572991D01*
X43687652Y-179555087D01*
X43613557Y-179416467D01*
X43596384Y-179359853D01*
X43562037Y-179246627D01*
X43544641Y-179070000D01*
X43562037Y-178893373D01*
X43613557Y-178723534D01*
X43613557Y-178723533D01*
X43697221Y-178567011D01*
X43697222Y-178567009D01*
X43726552Y-178531271D01*
X43809814Y-178429814D01*
X43911271Y-178346552D01*
X43947009Y-178317222D01*
X43964913Y-178307652D01*
X44103533Y-178233557D01*
X44160147Y-178216384D01*
X44273373Y-178182037D01*
X44339558Y-178175518D01*
X44405740Y-178169000D01*
X44494260Y-178169000D01*
X44560442Y-178175518D01*
X44560442Y-178175518D01*
G37*
G36*
X47100442Y-178175518D02*
X47166627Y-178182037D01*
X47279853Y-178216384D01*
X47336467Y-178233557D01*
X47475087Y-178307652D01*
X47492991Y-178317222D01*
X47528729Y-178346552D01*
X47630186Y-178429814D01*
X47713448Y-178531271D01*
X47742778Y-178567009D01*
X47742779Y-178567011D01*
X47826443Y-178723533D01*
X47826443Y-178723534D01*
X47877963Y-178893373D01*
X47895359Y-179070000D01*
X47877963Y-179246627D01*
X47843616Y-179359853D01*
X47826443Y-179416467D01*
X47752348Y-179555087D01*
X47742778Y-179572991D01*
X47713448Y-179608729D01*
X47630186Y-179710186D01*
X47528729Y-179793448D01*
X47492991Y-179822778D01*
X47492989Y-179822779D01*
X47336467Y-179906443D01*
X47279853Y-179923616D01*
X47166627Y-179957963D01*
X47100442Y-179964482D01*
X47034260Y-179971000D01*
X46945740Y-179971000D01*
X46879558Y-179964482D01*
X46813373Y-179957963D01*
X46700147Y-179923616D01*
X46643533Y-179906443D01*
X46487011Y-179822779D01*
X46487009Y-179822778D01*
X46451271Y-179793448D01*
X46349814Y-179710186D01*
X46266552Y-179608729D01*
X46237222Y-179572991D01*
X46227652Y-179555087D01*
X46153557Y-179416467D01*
X46136384Y-179359853D01*
X46102037Y-179246627D01*
X46084641Y-179070000D01*
X46102037Y-178893373D01*
X46153557Y-178723534D01*
X46153557Y-178723533D01*
X46237221Y-178567011D01*
X46237222Y-178567009D01*
X46266552Y-178531271D01*
X46349814Y-178429814D01*
X46451271Y-178346552D01*
X46487009Y-178317222D01*
X46504913Y-178307652D01*
X46643533Y-178233557D01*
X46700147Y-178216384D01*
X46813373Y-178182037D01*
X46879558Y-178175518D01*
X46945740Y-178169000D01*
X47034260Y-178169000D01*
X47100442Y-178175518D01*
X47100442Y-178175518D01*
G37*
G36*
X42811000Y-179971000D02*
X41009000Y-179971000D01*
X41009000Y-178169000D01*
X42811000Y-178169000D01*
X42811000Y-179971000D01*
X42811000Y-179971000D01*
G37*
G36*
X147304600Y-177498000D02*
X145102600Y-177498000D01*
X145102600Y-175796000D01*
X147304600Y-175796000D01*
X147304600Y-177498000D01*
X147304600Y-177498000D01*
G37*
G36*
X141104600Y-177498000D02*
X138902600Y-177498000D01*
X138902600Y-175796000D01*
X141104600Y-175796000D01*
X141104600Y-177498000D01*
X141104600Y-177498000D01*
G37*
G36*
X144654600Y-177248000D02*
X141552600Y-177248000D01*
X141552600Y-175796000D01*
X144654600Y-175796000D01*
X144654600Y-177248000D01*
X144654600Y-177248000D01*
G37*
G36*
X148545000Y-173069800D02*
X147643000Y-173069800D01*
X147643000Y-172217800D01*
X148545000Y-172217800D01*
X148545000Y-173069800D01*
X148545000Y-173069800D01*
G37*
G36*
X147112000Y-173069800D02*
X146210000Y-173069800D01*
X146210000Y-172217800D01*
X147112000Y-172217800D01*
X147112000Y-173069800D01*
X147112000Y-173069800D01*
G37*
G36*
X145612000Y-173069800D02*
X144710000Y-173069800D01*
X144710000Y-172217800D01*
X145612000Y-172217800D01*
X145612000Y-173069800D01*
X145612000Y-173069800D01*
G37*
G36*
X150045000Y-173069800D02*
X149143000Y-173069800D01*
X149143000Y-172217800D01*
X150045000Y-172217800D01*
X150045000Y-173069800D01*
X150045000Y-173069800D01*
G37*
G36*
X148608400Y-170836600D02*
X147606400Y-170836600D01*
X147606400Y-170234600D01*
X148608400Y-170234600D01*
X148608400Y-170836600D01*
X148608400Y-170836600D01*
G37*
G36*
X147186000Y-170824600D02*
X146184000Y-170824600D01*
X146184000Y-170222600D01*
X147186000Y-170222600D01*
X147186000Y-170824600D01*
X147186000Y-170824600D01*
G37*
G36*
X145561200Y-170809200D02*
X144659200Y-170809200D01*
X144659200Y-169957200D01*
X145561200Y-169957200D01*
X145561200Y-170809200D01*
X145561200Y-170809200D01*
G37*
G36*
X144061200Y-170809200D02*
X143159200Y-170809200D01*
X143159200Y-169957200D01*
X144061200Y-169957200D01*
X144061200Y-170809200D01*
X144061200Y-170809200D01*
G37*
G36*
X145574600Y-169513800D02*
X144672600Y-169513800D01*
X144672600Y-168661800D01*
X145574600Y-168661800D01*
X145574600Y-169513800D01*
X145574600Y-169513800D01*
G37*
G36*
X144074600Y-169513800D02*
X143172600Y-169513800D01*
X143172600Y-168661800D01*
X144074600Y-168661800D01*
X144074600Y-169513800D01*
X144074600Y-169513800D01*
G37*
G36*
X148608400Y-169336600D02*
X147606400Y-169336600D01*
X147606400Y-168734600D01*
X148608400Y-168734600D01*
X148608400Y-169336600D01*
X148608400Y-169336600D01*
G37*
G36*
X147186000Y-169324600D02*
X146184000Y-169324600D01*
X146184000Y-168722600D01*
X147186000Y-168722600D01*
X147186000Y-169324600D01*
X147186000Y-169324600D01*
G37*
G36*
X148198300Y-167640100D02*
X141971300Y-167640100D01*
X141971300Y-165938100D01*
X148198300Y-165938100D01*
X148198300Y-167640100D01*
X148198300Y-167640100D01*
G37*
G36*
X148198300Y-162331500D02*
X141971300Y-162331500D01*
X141971300Y-160629500D01*
X148198300Y-160629500D01*
X148198300Y-162331500D01*
X148198300Y-162331500D01*
G37*
G36*
X144342400Y-159583400D02*
X143490400Y-159583400D01*
X143490400Y-158681400D01*
X144342400Y-158681400D01*
X144342400Y-159583400D01*
X144342400Y-159583400D01*
G37*
G36*
X142605960Y-158949590D02*
X140908840Y-158949590D01*
X140908840Y-157859530D01*
X142605960Y-157859530D01*
X142605960Y-158949590D01*
X142605960Y-158949590D01*
G37*
G36*
X144342400Y-158083400D02*
X143490400Y-158083400D01*
X143490400Y-157181400D01*
X144342400Y-157181400D01*
X144342400Y-158083400D01*
X144342400Y-158083400D01*
G37*
G36*
X142605960Y-157344310D02*
X140908840Y-157344310D01*
X140908840Y-156254250D01*
X142605960Y-156254250D01*
X142605960Y-157344310D01*
X142605960Y-157344310D01*
G37*
G36*
X144342400Y-156788000D02*
X143490400Y-156788000D01*
X143490400Y-155886000D01*
X144342400Y-155886000D01*
X144342400Y-156788000D01*
X144342400Y-156788000D01*
G37*
G36*
X141562400Y-155314000D02*
X140960400Y-155314000D01*
X140960400Y-154312000D01*
X141562400Y-154312000D01*
X141562400Y-155314000D01*
X141562400Y-155314000D01*
G37*
G36*
X143062400Y-155314000D02*
X142460400Y-155314000D01*
X142460400Y-154312000D01*
X143062400Y-154312000D01*
X143062400Y-155314000D01*
X143062400Y-155314000D01*
G37*
G36*
X144342400Y-155288000D02*
X143490400Y-155288000D01*
X143490400Y-154386000D01*
X144342400Y-154386000D01*
X144342400Y-155288000D01*
X144342400Y-155288000D01*
G37*
G36*
X133356000Y-140506400D02*
X132354000Y-140506400D01*
X132354000Y-138404400D01*
X133356000Y-138404400D01*
X133356000Y-140506400D01*
X133356000Y-140506400D01*
G37*
G36*
X138436000Y-140506400D02*
X137434000Y-140506400D01*
X137434000Y-138404400D01*
X138436000Y-138404400D01*
X138436000Y-140506400D01*
X138436000Y-140506400D01*
G37*
G36*
X139706000Y-140506400D02*
X138704000Y-140506400D01*
X138704000Y-138404400D01*
X139706000Y-138404400D01*
X139706000Y-140506400D01*
X139706000Y-140506400D01*
G37*
G36*
X140976000Y-140506400D02*
X139974000Y-140506400D01*
X139974000Y-138404400D01*
X140976000Y-138404400D01*
X140976000Y-140506400D01*
X140976000Y-140506400D01*
G37*
G36*
X137166000Y-140506400D02*
X136164000Y-140506400D01*
X136164000Y-138404400D01*
X137166000Y-138404400D01*
X137166000Y-140506400D01*
X137166000Y-140506400D01*
G37*
G36*
X135896000Y-140506400D02*
X134894000Y-140506400D01*
X134894000Y-138404400D01*
X135896000Y-138404400D01*
X135896000Y-140506400D01*
X135896000Y-140506400D01*
G37*
G36*
X143516000Y-140506400D02*
X142514000Y-140506400D01*
X142514000Y-138404400D01*
X143516000Y-138404400D01*
X143516000Y-140506400D01*
X143516000Y-140506400D01*
G37*
G36*
X142246000Y-140506400D02*
X141244000Y-140506400D01*
X141244000Y-138404400D01*
X142246000Y-138404400D01*
X142246000Y-140506400D01*
X142246000Y-140506400D01*
G37*
G36*
X134626000Y-140506400D02*
X133624000Y-140506400D01*
X133624000Y-138404400D01*
X134626000Y-138404400D01*
X134626000Y-140506400D01*
X134626000Y-140506400D01*
G37*
G36*
X132086000Y-140506400D02*
X131084000Y-140506400D01*
X131084000Y-138404400D01*
X132086000Y-138404400D01*
X132086000Y-140506400D01*
X132086000Y-140506400D01*
G37*
G36*
X146851000Y-138956400D02*
X144749000Y-138956400D01*
X144749000Y-137954400D01*
X146851000Y-137954400D01*
X146851000Y-138956400D01*
X146851000Y-138956400D01*
G37*
G36*
X129851000Y-138956400D02*
X127749000Y-138956400D01*
X127749000Y-137954400D01*
X129851000Y-137954400D01*
X129851000Y-138956400D01*
X129851000Y-138956400D01*
G37*
G36*
X146851000Y-137686400D02*
X144749000Y-137686400D01*
X144749000Y-136684400D01*
X146851000Y-136684400D01*
X146851000Y-137686400D01*
X146851000Y-137686400D01*
G37*
G36*
X129851000Y-137686400D02*
X127749000Y-137686400D01*
X127749000Y-136684400D01*
X129851000Y-136684400D01*
X129851000Y-137686400D01*
X129851000Y-137686400D01*
G37*
G36*
X146851000Y-136416400D02*
X144749000Y-136416400D01*
X144749000Y-135414400D01*
X146851000Y-135414400D01*
X146851000Y-136416400D01*
X146851000Y-136416400D01*
G37*
G36*
X129851000Y-136416400D02*
X127749000Y-136416400D01*
X127749000Y-135414400D01*
X129851000Y-135414400D01*
X129851000Y-136416400D01*
X129851000Y-136416400D01*
G37*
G36*
X146851000Y-135146400D02*
X144749000Y-135146400D01*
X144749000Y-134144400D01*
X146851000Y-134144400D01*
X146851000Y-135146400D01*
X146851000Y-135146400D01*
G37*
G36*
X129851000Y-135146400D02*
X127749000Y-135146400D01*
X127749000Y-134144400D01*
X129851000Y-134144400D01*
X129851000Y-135146400D01*
X129851000Y-135146400D01*
G37*
G36*
X146851000Y-133876400D02*
X144749000Y-133876400D01*
X144749000Y-132874400D01*
X146851000Y-132874400D01*
X146851000Y-133876400D01*
X146851000Y-133876400D01*
G37*
G36*
X129851000Y-133876400D02*
X127749000Y-133876400D01*
X127749000Y-132874400D01*
X129851000Y-132874400D01*
X129851000Y-133876400D01*
X129851000Y-133876400D01*
G37*
G36*
X129851000Y-132606400D02*
X127749000Y-132606400D01*
X127749000Y-131604400D01*
X129851000Y-131604400D01*
X129851000Y-132606400D01*
X129851000Y-132606400D01*
G37*
G36*
X146851000Y-132606400D02*
X144749000Y-132606400D01*
X144749000Y-131604400D01*
X146851000Y-131604400D01*
X146851000Y-132606400D01*
X146851000Y-132606400D01*
G37*
G36*
X140851000Y-131996400D02*
X135749000Y-131996400D01*
X135749000Y-126894400D01*
X140851000Y-126894400D01*
X140851000Y-131996400D01*
X140851000Y-131996400D01*
G37*
G36*
X146851000Y-131336400D02*
X144749000Y-131336400D01*
X144749000Y-130334400D01*
X146851000Y-130334400D01*
X146851000Y-131336400D01*
X146851000Y-131336400D01*
G37*
G36*
X129851000Y-131336400D02*
X127749000Y-131336400D01*
X127749000Y-130334400D01*
X129851000Y-130334400D01*
X129851000Y-131336400D01*
X129851000Y-131336400D01*
G37*
G36*
X150352200Y-130320400D02*
X149750200Y-130320400D01*
X149750200Y-129318400D01*
X150352200Y-129318400D01*
X150352200Y-130320400D01*
X150352200Y-130320400D01*
G37*
G36*
X148852200Y-130320400D02*
X148250200Y-130320400D01*
X148250200Y-129318400D01*
X148852200Y-129318400D01*
X148852200Y-130320400D01*
X148852200Y-130320400D01*
G37*
G36*
X146851000Y-130066400D02*
X144749000Y-130066400D01*
X144749000Y-129064400D01*
X146851000Y-129064400D01*
X146851000Y-130066400D01*
X146851000Y-130066400D01*
G37*
G36*
X129851000Y-130066400D02*
X127749000Y-130066400D01*
X127749000Y-129064400D01*
X129851000Y-129064400D01*
X129851000Y-130066400D01*
X129851000Y-130066400D01*
G37*
G36*
X36544579Y-125894112D02*
X36670544Y-125919168D01*
X36817991Y-125980243D01*
X37026512Y-126066615D01*
X37346880Y-126280678D01*
X37619322Y-126553120D01*
X37833385Y-126873488D01*
X37980832Y-127229457D01*
X38056000Y-127607349D01*
X38056000Y-127992651D01*
X37980832Y-128370543D01*
X37833385Y-128726512D01*
X37619322Y-129046880D01*
X37346880Y-129319322D01*
X37026512Y-129533385D01*
X36817991Y-129619757D01*
X36670544Y-129680832D01*
X36544579Y-129705888D01*
X36292651Y-129756000D01*
X35907349Y-129756000D01*
X35655421Y-129705888D01*
X35529456Y-129680832D01*
X35382009Y-129619757D01*
X35173488Y-129533385D01*
X34853120Y-129319322D01*
X34580678Y-129046880D01*
X34366615Y-128726512D01*
X34219168Y-128370543D01*
X34144000Y-127992651D01*
X34144000Y-127607349D01*
X34219168Y-127229457D01*
X34366615Y-126873488D01*
X34580678Y-126553120D01*
X34853120Y-126280678D01*
X35173488Y-126066615D01*
X35382009Y-125980243D01*
X35529456Y-125919168D01*
X35655421Y-125894112D01*
X35907349Y-125844000D01*
X36292651Y-125844000D01*
X36544579Y-125894112D01*
X36544579Y-125894112D01*
G37*
G36*
X156444579Y-125894112D02*
X156570544Y-125919168D01*
X156717991Y-125980243D01*
X156926512Y-126066615D01*
X157246880Y-126280678D01*
X157519322Y-126553120D01*
X157733385Y-126873488D01*
X157880832Y-127229457D01*
X157956000Y-127607349D01*
X157956000Y-127992651D01*
X157880832Y-128370543D01*
X157733385Y-128726512D01*
X157519322Y-129046880D01*
X157246880Y-129319322D01*
X156926512Y-129533385D01*
X156717991Y-129619757D01*
X156570544Y-129680832D01*
X156444579Y-129705888D01*
X156192651Y-129756000D01*
X155807349Y-129756000D01*
X155555421Y-129705888D01*
X155429456Y-129680832D01*
X155282009Y-129619757D01*
X155073488Y-129533385D01*
X154753120Y-129319322D01*
X154480678Y-129046880D01*
X154266615Y-128726512D01*
X154119168Y-128370543D01*
X154044000Y-127992651D01*
X154044000Y-127607349D01*
X154119168Y-127229457D01*
X154266615Y-126873488D01*
X154480678Y-126553120D01*
X154753120Y-126280678D01*
X155073488Y-126066615D01*
X155282009Y-125980243D01*
X155429456Y-125919168D01*
X155555421Y-125894112D01*
X155807349Y-125844000D01*
X156192651Y-125844000D01*
X156444579Y-125894112D01*
X156444579Y-125894112D01*
G37*
G36*
X150352200Y-128847200D02*
X149750200Y-128847200D01*
X149750200Y-127845200D01*
X150352200Y-127845200D01*
X150352200Y-128847200D01*
X150352200Y-128847200D01*
G37*
G36*
X148852200Y-128847200D02*
X148250200Y-128847200D01*
X148250200Y-127845200D01*
X148852200Y-127845200D01*
X148852200Y-128847200D01*
X148852200Y-128847200D01*
G37*
G36*
X146851000Y-128796400D02*
X144749000Y-128796400D01*
X144749000Y-127794400D01*
X146851000Y-127794400D01*
X146851000Y-128796400D01*
X146851000Y-128796400D01*
G37*
G36*
X129851000Y-128796400D02*
X127749000Y-128796400D01*
X127749000Y-127794400D01*
X129851000Y-127794400D01*
X129851000Y-128796400D01*
X129851000Y-128796400D01*
G37*
G36*
X146851000Y-127526400D02*
X144749000Y-127526400D01*
X144749000Y-126524400D01*
X146851000Y-126524400D01*
X146851000Y-127526400D01*
X146851000Y-127526400D01*
G37*
G36*
X129851000Y-127526400D02*
X127749000Y-127526400D01*
X127749000Y-126524400D01*
X129851000Y-126524400D01*
X129851000Y-127526400D01*
X129851000Y-127526400D01*
G37*
G36*
X146851000Y-126256400D02*
X144749000Y-126256400D01*
X144749000Y-125254400D01*
X146851000Y-125254400D01*
X146851000Y-126256400D01*
X146851000Y-126256400D01*
G37*
G36*
X129851000Y-126256400D02*
X127749000Y-126256400D01*
X127749000Y-125254400D01*
X129851000Y-125254400D01*
X129851000Y-126256400D01*
X129851000Y-126256400D01*
G37*
G36*
X129851000Y-124986400D02*
X127749000Y-124986400D01*
X127749000Y-123984400D01*
X129851000Y-123984400D01*
X129851000Y-124986400D01*
X129851000Y-124986400D01*
G37*
G36*
X146851000Y-124986400D02*
X144749000Y-124986400D01*
X144749000Y-123984400D01*
X146851000Y-123984400D01*
X146851000Y-124986400D01*
X146851000Y-124986400D01*
G37*
G36*
X149066800Y-123781400D02*
X148214800Y-123781400D01*
X148214800Y-122879400D01*
X149066800Y-122879400D01*
X149066800Y-123781400D01*
X149066800Y-123781400D01*
G37*
G36*
X150387600Y-123781400D02*
X149535600Y-123781400D01*
X149535600Y-122879400D01*
X150387600Y-122879400D01*
X150387600Y-123781400D01*
X150387600Y-123781400D01*
G37*
G36*
X129851000Y-123716400D02*
X127749000Y-123716400D01*
X127749000Y-122714400D01*
X129851000Y-122714400D01*
X129851000Y-123716400D01*
X129851000Y-123716400D01*
G37*
G36*
X146851000Y-123716400D02*
X144749000Y-123716400D01*
X144749000Y-122714400D01*
X146851000Y-122714400D01*
X146851000Y-123716400D01*
X146851000Y-123716400D01*
G37*
G36*
X57815934Y-120330632D02*
X58025402Y-120417396D01*
X58213923Y-120543362D01*
X58374238Y-120703677D01*
X58500204Y-120892198D01*
X58586968Y-121101666D01*
X58631200Y-121324035D01*
X58631200Y-121550765D01*
X58586968Y-121773134D01*
X58500204Y-121982602D01*
X58374238Y-122171123D01*
X58213923Y-122331438D01*
X58025402Y-122457404D01*
X57815934Y-122544168D01*
X57593565Y-122588400D01*
X57366835Y-122588400D01*
X57144466Y-122544168D01*
X56934998Y-122457404D01*
X56746477Y-122331438D01*
X56586162Y-122171123D01*
X56460196Y-121982602D01*
X56373432Y-121773134D01*
X56329200Y-121550765D01*
X56329200Y-121324035D01*
X56373432Y-121101666D01*
X56460196Y-120892198D01*
X56586162Y-120703677D01*
X56746477Y-120543362D01*
X56934998Y-120417396D01*
X57144466Y-120330632D01*
X57366835Y-120286400D01*
X57593565Y-120286400D01*
X57815934Y-120330632D01*
X57815934Y-120330632D01*
G37*
G36*
X129851000Y-122446400D02*
X127749000Y-122446400D01*
X127749000Y-121444400D01*
X129851000Y-121444400D01*
X129851000Y-122446400D01*
X129851000Y-122446400D01*
G37*
G36*
X146851000Y-122446400D02*
X144749000Y-122446400D01*
X144749000Y-121444400D01*
X146851000Y-121444400D01*
X146851000Y-122446400D01*
X146851000Y-122446400D01*
G37*
G36*
X150387600Y-122281400D02*
X149535600Y-122281400D01*
X149535600Y-121379400D01*
X150387600Y-121379400D01*
X150387600Y-122281400D01*
X150387600Y-122281400D01*
G37*
G36*
X149066800Y-122281400D02*
X148214800Y-122281400D01*
X148214800Y-121379400D01*
X149066800Y-121379400D01*
X149066800Y-122281400D01*
X149066800Y-122281400D01*
G37*
G36*
X109315400Y-120999800D02*
X108413400Y-120999800D01*
X108413400Y-120147800D01*
X109315400Y-120147800D01*
X109315400Y-120999800D01*
X109315400Y-120999800D01*
G37*
G36*
X110815400Y-120999800D02*
X109913400Y-120999800D01*
X109913400Y-120147800D01*
X110815400Y-120147800D01*
X110815400Y-120999800D01*
X110815400Y-120999800D01*
G37*
G36*
X52020600Y-120154400D02*
X50718600Y-120154400D01*
X50718600Y-117552400D01*
X52020600Y-117552400D01*
X52020600Y-120154400D01*
X52020600Y-120154400D01*
G37*
G36*
X49520600Y-120154400D02*
X48218600Y-120154400D01*
X48218600Y-117552400D01*
X49520600Y-117552400D01*
X49520600Y-120154400D01*
X49520600Y-120154400D01*
G37*
G36*
X47020600Y-120154400D02*
X45718600Y-120154400D01*
X45718600Y-117552400D01*
X47020600Y-117552400D01*
X47020600Y-120154400D01*
X47020600Y-120154400D01*
G37*
G36*
X117085600Y-119003600D02*
X110583600Y-119003600D01*
X110583600Y-113101600D01*
X117085600Y-113101600D01*
X117085600Y-119003600D01*
X117085600Y-119003600D01*
G37*
G36*
X108685600Y-118983600D02*
X106383600Y-118983600D01*
X106383600Y-117681600D01*
X108685600Y-117681600D01*
X108685600Y-118983600D01*
X108685600Y-118983600D01*
G37*
G36*
X102558200Y-118539400D02*
X101556200Y-118539400D01*
X101556200Y-117937400D01*
X102558200Y-117937400D01*
X102558200Y-118539400D01*
X102558200Y-118539400D01*
G37*
G36*
X57815934Y-115250632D02*
X58025402Y-115337396D01*
X58213923Y-115463362D01*
X58374238Y-115623677D01*
X58500204Y-115812198D01*
X58586968Y-116021666D01*
X58631200Y-116244035D01*
X58631200Y-116470765D01*
X58586968Y-116693134D01*
X58500204Y-116902602D01*
X58374238Y-117091123D01*
X58213923Y-117251438D01*
X58025402Y-117377404D01*
X57815934Y-117464168D01*
X57593565Y-117508400D01*
X57366835Y-117508400D01*
X57144466Y-117464168D01*
X56934998Y-117377404D01*
X56746477Y-117251438D01*
X56586162Y-117091123D01*
X56460196Y-116902602D01*
X56373432Y-116693134D01*
X56329200Y-116470765D01*
X56329200Y-116244035D01*
X56373432Y-116021666D01*
X56460196Y-115812198D01*
X56586162Y-115623677D01*
X56746477Y-115463362D01*
X56934998Y-115337396D01*
X57144466Y-115250632D01*
X57366835Y-115206400D01*
X57593565Y-115206400D01*
X57815934Y-115250632D01*
X57815934Y-115250632D01*
G37*
G36*
X102558200Y-117039400D02*
X101556200Y-117039400D01*
X101556200Y-116437400D01*
X102558200Y-116437400D01*
X102558200Y-117039400D01*
X102558200Y-117039400D01*
G37*
G36*
X52415736Y-115621653D02*
X52506912Y-115659419D01*
X52588972Y-115714250D01*
X52658750Y-115784028D01*
X52713581Y-115866088D01*
X52751347Y-115957264D01*
X52770600Y-116054056D01*
X52770600Y-116152744D01*
X52751347Y-116249536D01*
X52713581Y-116340712D01*
X52658750Y-116422772D01*
X52588972Y-116492550D01*
X52506912Y-116547381D01*
X52415736Y-116585147D01*
X52318944Y-116604400D01*
X52220256Y-116604400D01*
X52123464Y-116585147D01*
X52032288Y-116547381D01*
X51950228Y-116492550D01*
X51880450Y-116422772D01*
X51825619Y-116340712D01*
X51787853Y-116249536D01*
X51768600Y-116152744D01*
X51768600Y-116054056D01*
X51787853Y-115957264D01*
X51825619Y-115866088D01*
X51880450Y-115784028D01*
X51950228Y-115714250D01*
X52032288Y-115659419D01*
X52123464Y-115621653D01*
X52220256Y-115602400D01*
X52318944Y-115602400D01*
X52415736Y-115621653D01*
X52415736Y-115621653D01*
G37*
G36*
X45615736Y-115621653D02*
X45706912Y-115659419D01*
X45788972Y-115714250D01*
X45858750Y-115784028D01*
X45913581Y-115866088D01*
X45951347Y-115957264D01*
X45970600Y-116054056D01*
X45970600Y-116152744D01*
X45951347Y-116249536D01*
X45913581Y-116340712D01*
X45858750Y-116422772D01*
X45788972Y-116492550D01*
X45706912Y-116547381D01*
X45615736Y-116585147D01*
X45518944Y-116604400D01*
X45420256Y-116604400D01*
X45323464Y-116585147D01*
X45232288Y-116547381D01*
X45150228Y-116492550D01*
X45080450Y-116422772D01*
X45025619Y-116340712D01*
X44987853Y-116249536D01*
X44968600Y-116152744D01*
X44968600Y-116054056D01*
X44987853Y-115957264D01*
X45025619Y-115866088D01*
X45080450Y-115784028D01*
X45150228Y-115714250D01*
X45232288Y-115659419D01*
X45323464Y-115621653D01*
X45420256Y-115602400D01*
X45518944Y-115602400D01*
X45615736Y-115621653D01*
X45615736Y-115621653D01*
G37*
G36*
X108685600Y-114423600D02*
X106383600Y-114423600D01*
X106383600Y-113121600D01*
X108685600Y-113121600D01*
X108685600Y-114423600D01*
X108685600Y-114423600D01*
G37*
G36*
X109187000Y-111881200D02*
X108285000Y-111881200D01*
X108285000Y-111029200D01*
X109187000Y-111029200D01*
X109187000Y-111881200D01*
X109187000Y-111881200D01*
G37*
G36*
X110687000Y-111881200D02*
X109785000Y-111881200D01*
X109785000Y-111029200D01*
X110687000Y-111029200D01*
X110687000Y-111881200D01*
X110687000Y-111881200D01*
G37*
G36*
X109633126Y-105256100D02*
X109768365Y-105283001D01*
X110023149Y-105388536D01*
X110153018Y-105475312D01*
X110252451Y-105541751D01*
X110447449Y-105736749D01*
X110447451Y-105736752D01*
X110600664Y-105966051D01*
X110706199Y-106220835D01*
X110760000Y-106491312D01*
X110760000Y-106767088D01*
X110717640Y-106980049D01*
X110706199Y-107037564D01*
X110600665Y-107292347D01*
X110447449Y-107521651D01*
X110252451Y-107716649D01*
X110252448Y-107716651D01*
X110023149Y-107869864D01*
X109768365Y-107975399D01*
X109633127Y-108002299D01*
X109497889Y-108029200D01*
X109222111Y-108029200D01*
X109086873Y-108002299D01*
X108951635Y-107975399D01*
X108696851Y-107869864D01*
X108467552Y-107716651D01*
X108467549Y-107716649D01*
X108272551Y-107521651D01*
X108119335Y-107292347D01*
X108013801Y-107037564D01*
X108002361Y-106980049D01*
X107960000Y-106767088D01*
X107960000Y-106491312D01*
X108013801Y-106220835D01*
X108119336Y-105966051D01*
X108272549Y-105736752D01*
X108272551Y-105736749D01*
X108467549Y-105541751D01*
X108566982Y-105475312D01*
X108696851Y-105388536D01*
X108951635Y-105283001D01*
X109086874Y-105256100D01*
X109222111Y-105229200D01*
X109497889Y-105229200D01*
X109633126Y-105256100D01*
X109633126Y-105256100D01*
G37*
G36*
X107611000Y-107980200D02*
X106309000Y-107980200D01*
X106309000Y-105278200D01*
X107611000Y-105278200D01*
X107611000Y-107980200D01*
X107611000Y-107980200D01*
G37*
G36*
X112411000Y-107980200D02*
X111109000Y-107980200D01*
X111109000Y-105278200D01*
X112411000Y-105278200D01*
X112411000Y-107980200D01*
X112411000Y-107980200D01*
G37*
G36*
X103003726Y-104519500D02*
X103138965Y-104546401D01*
X103393749Y-104651936D01*
X103496739Y-104720752D01*
X103623051Y-104805151D01*
X103818049Y-105000149D01*
X103818051Y-105000152D01*
X103954817Y-105204836D01*
X103971265Y-105229453D01*
X103993445Y-105283001D01*
X104076799Y-105484235D01*
X104103700Y-105619474D01*
X104129880Y-105751089D01*
X104130600Y-105754712D01*
X104130600Y-106030488D01*
X104076799Y-106300965D01*
X103971264Y-106555749D01*
X103830051Y-106767089D01*
X103818049Y-106785051D01*
X103623051Y-106980049D01*
X103623048Y-106980051D01*
X103393749Y-107133264D01*
X103138965Y-107238799D01*
X103003726Y-107265700D01*
X102868489Y-107292600D01*
X102592711Y-107292600D01*
X102457474Y-107265700D01*
X102322235Y-107238799D01*
X102067451Y-107133264D01*
X101838152Y-106980051D01*
X101838149Y-106980049D01*
X101643151Y-106785051D01*
X101631149Y-106767089D01*
X101489936Y-106555749D01*
X101384401Y-106300965D01*
X101330600Y-106030488D01*
X101330600Y-105754712D01*
X101331321Y-105751089D01*
X101357500Y-105619474D01*
X101384401Y-105484235D01*
X101467755Y-105283001D01*
X101489935Y-105229453D01*
X101506384Y-105204836D01*
X101643149Y-105000152D01*
X101643151Y-105000149D01*
X101838149Y-104805151D01*
X101964461Y-104720752D01*
X102067451Y-104651936D01*
X102322235Y-104546401D01*
X102457474Y-104519500D01*
X102592711Y-104492600D01*
X102868489Y-104492600D01*
X103003726Y-104519500D01*
X103003726Y-104519500D01*
G37*
G36*
X100981600Y-107243600D02*
X99679600Y-107243600D01*
X99679600Y-104541600D01*
X100981600Y-104541600D01*
X100981600Y-107243600D01*
X100981600Y-107243600D01*
G37*
G36*
X105781600Y-107243600D02*
X104479600Y-107243600D01*
X104479600Y-104541600D01*
X105781600Y-104541600D01*
X105781600Y-107243600D01*
X105781600Y-107243600D01*
G37*
G36*
X95790127Y-104240101D02*
X95925365Y-104267001D01*
X96180149Y-104372536D01*
X96359837Y-104492600D01*
X96409451Y-104525751D01*
X96604449Y-104720749D01*
X96757665Y-104950053D01*
X96863199Y-105204836D01*
X96917000Y-105475311D01*
X96917000Y-105751089D01*
X96916279Y-105754712D01*
X96863199Y-106021565D01*
X96757664Y-106276349D01*
X96741216Y-106300965D01*
X96604449Y-106505651D01*
X96409451Y-106700649D01*
X96409448Y-106700651D01*
X96180149Y-106853864D01*
X95925365Y-106959399D01*
X95821550Y-106980049D01*
X95654889Y-107013200D01*
X95379111Y-107013200D01*
X95212450Y-106980049D01*
X95108635Y-106959399D01*
X94853851Y-106853864D01*
X94624552Y-106700651D01*
X94624549Y-106700649D01*
X94429551Y-106505651D01*
X94292784Y-106300965D01*
X94276336Y-106276349D01*
X94170801Y-106021565D01*
X94117721Y-105754712D01*
X94117000Y-105751089D01*
X94117000Y-105475311D01*
X94170801Y-105204836D01*
X94276335Y-104950053D01*
X94429551Y-104720749D01*
X94624549Y-104525751D01*
X94674163Y-104492600D01*
X94853851Y-104372536D01*
X95108635Y-104267001D01*
X95243874Y-104240100D01*
X95379111Y-104213200D01*
X95654889Y-104213200D01*
X95790127Y-104240101D01*
X95790127Y-104240101D01*
G37*
G36*
X98568000Y-106964200D02*
X97266000Y-106964200D01*
X97266000Y-104262200D01*
X98568000Y-104262200D01*
X98568000Y-106964200D01*
X98568000Y-106964200D01*
G37*
G36*
X93768000Y-106964200D02*
X92466000Y-106964200D01*
X92466000Y-104262200D01*
X93768000Y-104262200D01*
X93768000Y-106964200D01*
X93768000Y-106964200D01*
G37*
G36*
X109848726Y-100861900D02*
X109983965Y-100888801D01*
X110238749Y-100994336D01*
X110363196Y-101077489D01*
X110468051Y-101147551D01*
X110663049Y-101342549D01*
X110816265Y-101571853D01*
X110921799Y-101826636D01*
X110975600Y-102097111D01*
X110975600Y-102372889D01*
X110921799Y-102643364D01*
X110816265Y-102898147D01*
X110663049Y-103127451D01*
X110468051Y-103322449D01*
X110468048Y-103322451D01*
X110238749Y-103475664D01*
X109983965Y-103581199D01*
X109848726Y-103608100D01*
X109713489Y-103635000D01*
X109437711Y-103635000D01*
X109302474Y-103608100D01*
X109167235Y-103581199D01*
X108912451Y-103475664D01*
X108683152Y-103322451D01*
X108683149Y-103322449D01*
X108488151Y-103127451D01*
X108334935Y-102898147D01*
X108229401Y-102643364D01*
X108175600Y-102372889D01*
X108175600Y-102097111D01*
X108229401Y-101826636D01*
X108334935Y-101571853D01*
X108488151Y-101342549D01*
X108683149Y-101147551D01*
X108788004Y-101077489D01*
X108912451Y-100994336D01*
X109167235Y-100888801D01*
X109302474Y-100861900D01*
X109437711Y-100835000D01*
X109713489Y-100835000D01*
X109848726Y-100861900D01*
X109848726Y-100861900D01*
G37*
G36*
X112626600Y-103586000D02*
X111324600Y-103586000D01*
X111324600Y-100884000D01*
X112626600Y-100884000D01*
X112626600Y-103586000D01*
X112626600Y-103586000D01*
G37*
G36*
X107826600Y-103586000D02*
X106524600Y-103586000D01*
X106524600Y-100884000D01*
X107826600Y-100884000D01*
X107826600Y-103586000D01*
X107826600Y-103586000D01*
G37*
G36*
X103435526Y-100353900D02*
X103570765Y-100380801D01*
X103825549Y-100486336D01*
X103965824Y-100580065D01*
X104054851Y-100639551D01*
X104249849Y-100834549D01*
X104249851Y-100834552D01*
X104403064Y-101063851D01*
X104508599Y-101318635D01*
X104562400Y-101589112D01*
X104562400Y-101864888D01*
X104508599Y-102135365D01*
X104433975Y-102315523D01*
X104403065Y-102390147D01*
X104249849Y-102619451D01*
X104054851Y-102814449D01*
X104054848Y-102814451D01*
X103825549Y-102967664D01*
X103570765Y-103073199D01*
X103435526Y-103100100D01*
X103300289Y-103127000D01*
X103024511Y-103127000D01*
X102889274Y-103100100D01*
X102754035Y-103073199D01*
X102499251Y-102967664D01*
X102269952Y-102814451D01*
X102269949Y-102814449D01*
X102074951Y-102619451D01*
X101921735Y-102390147D01*
X101890825Y-102315523D01*
X101816201Y-102135365D01*
X101762400Y-101864888D01*
X101762400Y-101589112D01*
X101816201Y-101318635D01*
X101921736Y-101063851D01*
X102074949Y-100834552D01*
X102074951Y-100834549D01*
X102269949Y-100639551D01*
X102358976Y-100580065D01*
X102499251Y-100486336D01*
X102754035Y-100380801D01*
X102889273Y-100353901D01*
X103024511Y-100327000D01*
X103300289Y-100327000D01*
X103435526Y-100353900D01*
X103435526Y-100353900D01*
G37*
G36*
X101413400Y-103078000D02*
X100111400Y-103078000D01*
X100111400Y-100376000D01*
X101413400Y-100376000D01*
X101413400Y-103078000D01*
X101413400Y-103078000D01*
G37*
G36*
X106213400Y-103078000D02*
X104911400Y-103078000D01*
X104911400Y-100376000D01*
X106213400Y-100376000D01*
X106213400Y-103078000D01*
X106213400Y-103078000D01*
G37*
G36*
X96234326Y-99566500D02*
X96369565Y-99593401D01*
X96624349Y-99698936D01*
X96850597Y-99850111D01*
X96853651Y-99852151D01*
X97048649Y-100047149D01*
X97048651Y-100047152D01*
X97201864Y-100276451D01*
X97288801Y-100486335D01*
X97307399Y-100531236D01*
X97361200Y-100801711D01*
X97361200Y-101077489D01*
X97307399Y-101347964D01*
X97201865Y-101602747D01*
X97048649Y-101832051D01*
X96853651Y-102027049D01*
X96853648Y-102027051D01*
X96624349Y-102180264D01*
X96369565Y-102285799D01*
X96234327Y-102312699D01*
X96099089Y-102339600D01*
X95823311Y-102339600D01*
X95688074Y-102312700D01*
X95552835Y-102285799D01*
X95298051Y-102180264D01*
X95068752Y-102027051D01*
X95068749Y-102027049D01*
X94873751Y-101832051D01*
X94720535Y-101602747D01*
X94615001Y-101347964D01*
X94561200Y-101077489D01*
X94561200Y-100801711D01*
X94615001Y-100531236D01*
X94633600Y-100486335D01*
X94720536Y-100276451D01*
X94873749Y-100047152D01*
X94873751Y-100047149D01*
X95068749Y-99852151D01*
X95071803Y-99850111D01*
X95298051Y-99698936D01*
X95552835Y-99593401D01*
X95688074Y-99566500D01*
X95823311Y-99539600D01*
X96099089Y-99539600D01*
X96234326Y-99566500D01*
X96234326Y-99566500D01*
G37*
G36*
X99012200Y-102290600D02*
X97710200Y-102290600D01*
X97710200Y-99588600D01*
X99012200Y-99588600D01*
X99012200Y-102290600D01*
X99012200Y-102290600D01*
G37*
G36*
X94212200Y-102290600D02*
X92910200Y-102290600D01*
X92910200Y-99588600D01*
X94212200Y-99588600D01*
X94212200Y-102290600D01*
X94212200Y-102290600D01*
G37*
G36*
X119234326Y-97966300D02*
X119369565Y-97993201D01*
X119624349Y-98098736D01*
X119850597Y-98249911D01*
X119853651Y-98251951D01*
X120048649Y-98446949D01*
X120201865Y-98676253D01*
X120307399Y-98931036D01*
X120361200Y-99201511D01*
X120361200Y-99477289D01*
X120307399Y-99747764D01*
X120201865Y-100002547D01*
X120048649Y-100231851D01*
X119853651Y-100426849D01*
X119853648Y-100426851D01*
X119624349Y-100580064D01*
X119369565Y-100685599D01*
X119234327Y-100712499D01*
X119099089Y-100739400D01*
X118823311Y-100739400D01*
X118688073Y-100712499D01*
X118552835Y-100685599D01*
X118298051Y-100580064D01*
X118068752Y-100426851D01*
X118068749Y-100426849D01*
X117873751Y-100231851D01*
X117720535Y-100002547D01*
X117615001Y-99747764D01*
X117561200Y-99477289D01*
X117561200Y-99201511D01*
X117615001Y-98931036D01*
X117720535Y-98676253D01*
X117873751Y-98446949D01*
X118068749Y-98251951D01*
X118071803Y-98249911D01*
X118298051Y-98098736D01*
X118552835Y-97993201D01*
X118688074Y-97966300D01*
X118823311Y-97939400D01*
X119099089Y-97939400D01*
X119234326Y-97966300D01*
X119234326Y-97966300D01*
G37*
G36*
X122012200Y-100690400D02*
X120710200Y-100690400D01*
X120710200Y-97988400D01*
X122012200Y-97988400D01*
X122012200Y-100690400D01*
X122012200Y-100690400D01*
G37*
G36*
X117212200Y-100690400D02*
X115910200Y-100690400D01*
X115910200Y-97988400D01*
X117212200Y-97988400D01*
X117212200Y-100690400D01*
X117212200Y-100690400D01*
G37*
G36*
X72727400Y-99994000D02*
X71825400Y-99994000D01*
X71825400Y-99142000D01*
X72727400Y-99142000D01*
X72727400Y-99994000D01*
X72727400Y-99994000D01*
G37*
G36*
X71227400Y-99994000D02*
X70325400Y-99994000D01*
X70325400Y-99142000D01*
X71227400Y-99142000D01*
X71227400Y-99994000D01*
X71227400Y-99994000D01*
G37*
G36*
X74313400Y-99984000D02*
X73311400Y-99984000D01*
X73311400Y-99382000D01*
X74313400Y-99382000D01*
X74313400Y-99984000D01*
X74313400Y-99984000D01*
G37*
G36*
X69741400Y-99984000D02*
X68739400Y-99984000D01*
X68739400Y-99382000D01*
X69741400Y-99382000D01*
X69741400Y-99984000D01*
X69741400Y-99984000D01*
G37*
G36*
X68141200Y-99984000D02*
X67139200Y-99984000D01*
X67139200Y-99382000D01*
X68141200Y-99382000D01*
X68141200Y-99984000D01*
X68141200Y-99984000D01*
G37*
G36*
X66541000Y-99984000D02*
X65539000Y-99984000D01*
X65539000Y-99382000D01*
X66541000Y-99382000D01*
X66541000Y-99984000D01*
X66541000Y-99984000D01*
G37*
G36*
X72727400Y-98724000D02*
X71825400Y-98724000D01*
X71825400Y-97872000D01*
X72727400Y-97872000D01*
X72727400Y-98724000D01*
X72727400Y-98724000D01*
G37*
G36*
X71227400Y-98724000D02*
X70325400Y-98724000D01*
X70325400Y-97872000D01*
X71227400Y-97872000D01*
X71227400Y-98724000D01*
X71227400Y-98724000D01*
G37*
G36*
X74313400Y-98484000D02*
X73311400Y-98484000D01*
X73311400Y-97882000D01*
X74313400Y-97882000D01*
X74313400Y-98484000D01*
X74313400Y-98484000D01*
G37*
G36*
X69741400Y-98484000D02*
X68739400Y-98484000D01*
X68739400Y-97882000D01*
X69741400Y-97882000D01*
X69741400Y-98484000D01*
X69741400Y-98484000D01*
G37*
G36*
X66541000Y-98484000D02*
X65539000Y-98484000D01*
X65539000Y-97882000D01*
X66541000Y-97882000D01*
X66541000Y-98484000D01*
X66541000Y-98484000D01*
G37*
G36*
X68141200Y-98484000D02*
X67139200Y-98484000D01*
X67139200Y-97882000D01*
X68141200Y-97882000D01*
X68141200Y-98484000D01*
X68141200Y-98484000D01*
G37*
G36*
X74124800Y-96408200D02*
X68272800Y-96408200D01*
X68272800Y-95006200D01*
X74124800Y-95006200D01*
X74124800Y-96408200D01*
X74124800Y-96408200D01*
G37*
G36*
X87738326Y-92911700D02*
X87873565Y-92938601D01*
X88128349Y-93044136D01*
X88354597Y-93195311D01*
X88357651Y-93197351D01*
X88552649Y-93392349D01*
X88705865Y-93621653D01*
X88811399Y-93876436D01*
X88865200Y-94146911D01*
X88865200Y-94422689D01*
X88811399Y-94693164D01*
X88705865Y-94947947D01*
X88552649Y-95177251D01*
X88357651Y-95372249D01*
X88357648Y-95372251D01*
X88128349Y-95525464D01*
X87873565Y-95630999D01*
X87738327Y-95657899D01*
X87603089Y-95684800D01*
X87327311Y-95684800D01*
X87192073Y-95657899D01*
X87056835Y-95630999D01*
X86802051Y-95525464D01*
X86572752Y-95372251D01*
X86572749Y-95372249D01*
X86377751Y-95177251D01*
X86224535Y-94947947D01*
X86119001Y-94693164D01*
X86065200Y-94422689D01*
X86065200Y-94146911D01*
X86119001Y-93876436D01*
X86224535Y-93621653D01*
X86377751Y-93392349D01*
X86572749Y-93197351D01*
X86575803Y-93195311D01*
X86802051Y-93044136D01*
X87056835Y-92938601D01*
X87192074Y-92911700D01*
X87327311Y-92884800D01*
X87603089Y-92884800D01*
X87738326Y-92911700D01*
X87738326Y-92911700D01*
G37*
G36*
X90516200Y-95635800D02*
X89214200Y-95635800D01*
X89214200Y-92933800D01*
X90516200Y-92933800D01*
X90516200Y-95635800D01*
X90516200Y-95635800D01*
G37*
G36*
X85716200Y-95635800D02*
X84414200Y-95635800D01*
X84414200Y-92933800D01*
X85716200Y-92933800D01*
X85716200Y-95635800D01*
X85716200Y-95635800D01*
G37*
G36*
X76249800Y-94283200D02*
X74847800Y-94283200D01*
X74847800Y-88431200D01*
X76249800Y-88431200D01*
X76249800Y-94283200D01*
X76249800Y-94283200D01*
G37*
G36*
X67549800Y-94283200D02*
X66147800Y-94283200D01*
X66147800Y-88431200D01*
X67549800Y-88431200D01*
X67549800Y-94283200D01*
X67549800Y-94283200D01*
G37*
G36*
X73249800Y-93408200D02*
X69147800Y-93408200D01*
X69147800Y-89306200D01*
X73249800Y-89306200D01*
X73249800Y-93408200D01*
X73249800Y-93408200D01*
G37*
G36*
X74124800Y-87708200D02*
X68272800Y-87708200D01*
X68272800Y-86306200D01*
X74124800Y-86306200D01*
X74124800Y-87708200D01*
X74124800Y-87708200D01*
G37*
G36*
X55102351Y-71675342D02*
X55102351Y-71675343D01*
X54876851Y-72065920D01*
X54651351Y-72456498D01*
X53350581Y-71705498D01*
X53350581Y-71705497D01*
X53716991Y-71070857D01*
X53801581Y-70924342D01*
X55102351Y-71675342D01*
X55102351Y-71675342D01*
G37*
G36*
X55902351Y-70289702D02*
X55902351Y-70289703D01*
X55802553Y-70462558D01*
X55451351Y-71070858D01*
X54150581Y-70319858D01*
X54150581Y-70319857D01*
X54441604Y-69815791D01*
X54601581Y-69538702D01*
X55902351Y-70289702D01*
X55902351Y-70289702D01*
G37*
G36*
X60893551Y-70227542D02*
X60893551Y-70227543D01*
X60757865Y-70462558D01*
X60442551Y-71008698D01*
X59141781Y-70257698D01*
X59141781Y-70257697D01*
X59508191Y-69623057D01*
X59592781Y-69476542D01*
X60893551Y-70227542D01*
X60893551Y-70227542D01*
G37*
G36*
X52724826Y-68543715D02*
X52943212Y-68634173D01*
X53139758Y-68765501D01*
X53306899Y-68932642D01*
X53438227Y-69129188D01*
X53528685Y-69347574D01*
X53574800Y-69579409D01*
X53574800Y-69815791D01*
X53528685Y-70047626D01*
X53438227Y-70266012D01*
X53306899Y-70462558D01*
X53139758Y-70629699D01*
X52943212Y-70761027D01*
X52724826Y-70851485D01*
X52492991Y-70897600D01*
X52256609Y-70897600D01*
X52024774Y-70851485D01*
X51806388Y-70761027D01*
X51609842Y-70629699D01*
X51442701Y-70462558D01*
X51311373Y-70266012D01*
X51220915Y-70047626D01*
X51174800Y-69815791D01*
X51174800Y-69579409D01*
X51220915Y-69347574D01*
X51311373Y-69129188D01*
X51442701Y-68932642D01*
X51609842Y-68765501D01*
X51806388Y-68634173D01*
X52024774Y-68543715D01*
X52256609Y-68497600D01*
X52492991Y-68497600D01*
X52724826Y-68543715D01*
X52724826Y-68543715D01*
G37*
G36*
X50599019Y-69075342D02*
X50599019Y-69075343D01*
X50461677Y-69313226D01*
X50148019Y-69856498D01*
X48847249Y-69105498D01*
X48847249Y-69105497D01*
X49139198Y-68599827D01*
X49298249Y-68324342D01*
X50599019Y-69075342D01*
X50599019Y-69075342D01*
G37*
G36*
X61693551Y-68841902D02*
X61693551Y-68841903D01*
X61593753Y-69014758D01*
X61242551Y-69623058D01*
X59941781Y-68872058D01*
X59941781Y-68872057D01*
X60232804Y-68367991D01*
X60392781Y-68090902D01*
X61693551Y-68841902D01*
X61693551Y-68841902D01*
G37*
G36*
X58516026Y-67095915D02*
X58734412Y-67186373D01*
X58930958Y-67317701D01*
X59098099Y-67484842D01*
X59229427Y-67681388D01*
X59319885Y-67899774D01*
X59366000Y-68131609D01*
X59366000Y-68367991D01*
X59319885Y-68599826D01*
X59229427Y-68818212D01*
X59098099Y-69014758D01*
X58930958Y-69181899D01*
X58734412Y-69313227D01*
X58516026Y-69403685D01*
X58284191Y-69449800D01*
X58047809Y-69449800D01*
X57815974Y-69403685D01*
X57597588Y-69313227D01*
X57401042Y-69181899D01*
X57233901Y-69014758D01*
X57102573Y-68818212D01*
X57012115Y-68599826D01*
X56966000Y-68367991D01*
X56966000Y-68131609D01*
X57012115Y-67899774D01*
X57102573Y-67681388D01*
X57233901Y-67484842D01*
X57401042Y-67317701D01*
X57597588Y-67186373D01*
X57815974Y-67095915D01*
X58047809Y-67049800D01*
X58284191Y-67049800D01*
X58516026Y-67095915D01*
X58516026Y-67095915D01*
G37*
G36*
X51399019Y-67689702D02*
X51399019Y-67689703D01*
X51277735Y-67899773D01*
X50948019Y-68470858D01*
X49647249Y-67719858D01*
X49647249Y-67719857D01*
X50007482Y-67095916D01*
X50098249Y-66938702D01*
X51399019Y-67689702D01*
X51399019Y-67689702D01*
G37*
G36*
X56390219Y-67627542D02*
X56390219Y-67627543D01*
X56233047Y-67899773D01*
X55939219Y-68408698D01*
X54638449Y-67657698D01*
X54638449Y-67657697D01*
X55004859Y-67023057D01*
X55089449Y-66876542D01*
X56390219Y-67627542D01*
X56390219Y-67627542D01*
G37*
G36*
X57190219Y-66241902D02*
X57190219Y-66241903D01*
X56964719Y-66632480D01*
X56739219Y-67023058D01*
X55438449Y-66272058D01*
X55438449Y-66272057D01*
X55663949Y-65881480D01*
X55889449Y-65490902D01*
X57190219Y-66241902D01*
X57190219Y-66241902D01*
G37*
G36*
X53857751Y-66011142D02*
X53857751Y-66011143D01*
X53724522Y-66241902D01*
X53406751Y-66792298D01*
X52105981Y-66041298D01*
X52105981Y-66041297D01*
X52434955Y-65471498D01*
X52556981Y-65260142D01*
X53857751Y-66011142D01*
X53857751Y-66011142D01*
G37*
G36*
X59699751Y-64690342D02*
X59699751Y-64690343D01*
X59637390Y-64798355D01*
X59248751Y-65471498D01*
X57947981Y-64720498D01*
X57947981Y-64720497D01*
X58314391Y-64085857D01*
X58398981Y-63939342D01*
X59699751Y-64690342D01*
X59699751Y-64690342D01*
G37*
G36*
X54657751Y-64625502D02*
X54657751Y-64625503D01*
X54557953Y-64798358D01*
X54206751Y-65406658D01*
X52905981Y-64655658D01*
X52905981Y-64655657D01*
X53197004Y-64151591D01*
X53356981Y-63874502D01*
X54657751Y-64625502D01*
X54657751Y-64625502D01*
G37*
G36*
X51480226Y-62879515D02*
X51698612Y-62969973D01*
X51895158Y-63101301D01*
X52062299Y-63268442D01*
X52193627Y-63464988D01*
X52284085Y-63683374D01*
X52330200Y-63915209D01*
X52330200Y-64151591D01*
X52284085Y-64383426D01*
X52193627Y-64601812D01*
X52062299Y-64798358D01*
X51895158Y-64965499D01*
X51698612Y-65096827D01*
X51480226Y-65187285D01*
X51248391Y-65233400D01*
X51012009Y-65233400D01*
X50780174Y-65187285D01*
X50561788Y-65096827D01*
X50365242Y-64965499D01*
X50198101Y-64798358D01*
X50066773Y-64601812D01*
X49976315Y-64383426D01*
X49930200Y-64151591D01*
X49930200Y-63915209D01*
X49976315Y-63683374D01*
X50066773Y-63464988D01*
X50198101Y-63268442D01*
X50365242Y-63101301D01*
X50561788Y-62969973D01*
X50780174Y-62879515D01*
X51012009Y-62833400D01*
X51248391Y-62833400D01*
X51480226Y-62879515D01*
X51480226Y-62879515D01*
G37*
G36*
X49354419Y-63411142D02*
X49354419Y-63411143D01*
X49316074Y-63477558D01*
X48903419Y-64192298D01*
X47602649Y-63441298D01*
X47602649Y-63441297D01*
X47931623Y-62871498D01*
X48053649Y-62660142D01*
X49354419Y-63411142D01*
X49354419Y-63411142D01*
G37*
G36*
X60499751Y-63304702D02*
X60499751Y-63304703D01*
X60399953Y-63477558D01*
X60048751Y-64085858D01*
X58747981Y-63334858D01*
X58747981Y-63334857D01*
X58973481Y-62944280D01*
X59198981Y-62553702D01*
X60499751Y-63304702D01*
X60499751Y-63304702D01*
G37*
G36*
X57322226Y-61558715D02*
X57540612Y-61649173D01*
X57737158Y-61780501D01*
X57904299Y-61947642D01*
X58035627Y-62144188D01*
X58126085Y-62362574D01*
X58172200Y-62594409D01*
X58172200Y-62830791D01*
X58126085Y-63062626D01*
X58035627Y-63281012D01*
X57904299Y-63477558D01*
X57737158Y-63644699D01*
X57540612Y-63776027D01*
X57322226Y-63866485D01*
X57090391Y-63912600D01*
X56854009Y-63912600D01*
X56622174Y-63866485D01*
X56403788Y-63776027D01*
X56207242Y-63644699D01*
X56040101Y-63477558D01*
X55908773Y-63281012D01*
X55818315Y-63062626D01*
X55772200Y-62830791D01*
X55772200Y-62594409D01*
X55818315Y-62362574D01*
X55908773Y-62144188D01*
X56040101Y-61947642D01*
X56207242Y-61780501D01*
X56403788Y-61649173D01*
X56622174Y-61558715D01*
X56854009Y-61512600D01*
X57090391Y-61512600D01*
X57322226Y-61558715D01*
X57322226Y-61558715D01*
G37*
G36*
X55196419Y-62090342D02*
X55196419Y-62090343D01*
X55039247Y-62362573D01*
X54745419Y-62871498D01*
X53444649Y-62120498D01*
X53444649Y-62120497D01*
X53811059Y-61485857D01*
X53895649Y-61339342D01*
X55196419Y-62090342D01*
X55196419Y-62090342D01*
G37*
G36*
X50154419Y-62025502D02*
X50154419Y-62025503D01*
X50085896Y-62144188D01*
X49703419Y-62806658D01*
X48402649Y-62055658D01*
X48402649Y-62055657D01*
X48731623Y-61485858D01*
X48853649Y-61274502D01*
X50154419Y-62025502D01*
X50154419Y-62025502D01*
G37*
G36*
X55996419Y-60704702D02*
X55996419Y-60704703D01*
X55770919Y-61095280D01*
X55545419Y-61485858D01*
X54244649Y-60734858D01*
X54244649Y-60734857D01*
X54470149Y-60344280D01*
X54695649Y-59953702D01*
X55996419Y-60704702D01*
X55996419Y-60704702D01*
G37*
G36*
X52587751Y-60423142D02*
X52587751Y-60423143D01*
X52425192Y-60704703D01*
X52136751Y-61204298D01*
X50835981Y-60453298D01*
X50835981Y-60453297D01*
X51124422Y-59953703D01*
X51286981Y-59672142D01*
X52587751Y-60423142D01*
X52587751Y-60423142D01*
G37*
G36*
X53387751Y-59037502D02*
X53387751Y-59037503D01*
X53287953Y-59210358D01*
X52936751Y-59818658D01*
X51635981Y-59067658D01*
X51635981Y-59067657D01*
X51927004Y-58563591D01*
X52086981Y-58286502D01*
X53387751Y-59037502D01*
X53387751Y-59037502D01*
G37*
G36*
X58328151Y-59000742D02*
X58328151Y-59000743D01*
X58110631Y-59377499D01*
X57877151Y-59781898D01*
X56576381Y-59030898D01*
X56576381Y-59030897D01*
X56822679Y-58604297D01*
X57027381Y-58249742D01*
X58328151Y-59000742D01*
X58328151Y-59000742D01*
G37*
G36*
X50210226Y-57291515D02*
X50428612Y-57381973D01*
X50625158Y-57513301D01*
X50792299Y-57680442D01*
X50923627Y-57876988D01*
X51014085Y-58095374D01*
X51060200Y-58327209D01*
X51060200Y-58563591D01*
X51014085Y-58795426D01*
X50923627Y-59013812D01*
X50792299Y-59210358D01*
X50625158Y-59377499D01*
X50428612Y-59508827D01*
X50210226Y-59599285D01*
X49978391Y-59645400D01*
X49742009Y-59645400D01*
X49510174Y-59599285D01*
X49291788Y-59508827D01*
X49095242Y-59377499D01*
X48928101Y-59210358D01*
X48796773Y-59013812D01*
X48706315Y-58795426D01*
X48660200Y-58563591D01*
X48660200Y-58327209D01*
X48706315Y-58095374D01*
X48796773Y-57876988D01*
X48928101Y-57680442D01*
X49095242Y-57513301D01*
X49291788Y-57381973D01*
X49510174Y-57291515D01*
X49742009Y-57245400D01*
X49978391Y-57245400D01*
X50210226Y-57291515D01*
X50210226Y-57291515D01*
G37*
G36*
X48084419Y-57823142D02*
X48084419Y-57823143D01*
X48008234Y-57955099D01*
X47633419Y-58604298D01*
X46332649Y-57853298D01*
X46332649Y-57853297D01*
X46699059Y-57218657D01*
X46783649Y-57072142D01*
X48084419Y-57823142D01*
X48084419Y-57823142D01*
G37*
G36*
X59128151Y-57615102D02*
X59128151Y-57615103D01*
X59028353Y-57787958D01*
X58677151Y-58396258D01*
X57376381Y-57645258D01*
X57376381Y-57645257D01*
X57667404Y-57141191D01*
X57827381Y-56864102D01*
X59128151Y-57615102D01*
X59128151Y-57615102D01*
G37*
G36*
X55950626Y-55869115D02*
X56169012Y-55959573D01*
X56365558Y-56090901D01*
X56532699Y-56258042D01*
X56664027Y-56454588D01*
X56754485Y-56672974D01*
X56800600Y-56904809D01*
X56800600Y-57141191D01*
X56754485Y-57373026D01*
X56664027Y-57591412D01*
X56532699Y-57787958D01*
X56365558Y-57955099D01*
X56169012Y-58086427D01*
X55950626Y-58176885D01*
X55718791Y-58223000D01*
X55482409Y-58223000D01*
X55250574Y-58176885D01*
X55032188Y-58086427D01*
X54835642Y-57955099D01*
X54668501Y-57787958D01*
X54537173Y-57591412D01*
X54446715Y-57373026D01*
X54400600Y-57141191D01*
X54400600Y-56904809D01*
X54446715Y-56672974D01*
X54537173Y-56454588D01*
X54668501Y-56258042D01*
X54835642Y-56090901D01*
X55032188Y-55959573D01*
X55250574Y-55869115D01*
X55482409Y-55823000D01*
X55718791Y-55823000D01*
X55950626Y-55869115D01*
X55950626Y-55869115D01*
G37*
G36*
X48884419Y-56437502D02*
X48884419Y-56437503D01*
X48658919Y-56828080D01*
X48433419Y-57218658D01*
X47132649Y-56467658D01*
X47132649Y-56467657D01*
X47478217Y-55869116D01*
X47583649Y-55686502D01*
X48884419Y-56437502D01*
X48884419Y-56437502D01*
G37*
G36*
X53824819Y-56400742D02*
X53824819Y-56400743D01*
X53667647Y-56672973D01*
X53373819Y-57181898D01*
X52073049Y-56430898D01*
X52073049Y-56430897D01*
X52439459Y-55796257D01*
X52524049Y-55649742D01*
X53824819Y-56400742D01*
X53824819Y-56400742D01*
G37*
G36*
X54624819Y-55015102D02*
X54624819Y-55015103D01*
X54399319Y-55405680D01*
X54173819Y-55796258D01*
X52873049Y-55045258D01*
X52873049Y-55045257D01*
X53098549Y-54654680D01*
X53324049Y-54264102D01*
X54624819Y-55015102D01*
X54624819Y-55015102D01*
G37*
G36*
X122731000Y-54159200D02*
X121229000Y-54159200D01*
X121229000Y-53257200D01*
X122731000Y-53257200D01*
X122731000Y-54159200D01*
X122731000Y-54159200D01*
G37*
G36*
X117531000Y-54159200D02*
X116029000Y-54159200D01*
X116029000Y-53257200D01*
X117531000Y-53257200D01*
X117531000Y-54159200D01*
X117531000Y-54159200D01*
G37*
G36*
X119730026Y-51754315D02*
X119948412Y-51844773D01*
X120144958Y-51976101D01*
X120312099Y-52143242D01*
X120443427Y-52339788D01*
X120533885Y-52558174D01*
X120580000Y-52790009D01*
X120580000Y-53026391D01*
X120533885Y-53258226D01*
X120443427Y-53476612D01*
X120312099Y-53673158D01*
X120144958Y-53840299D01*
X119948412Y-53971627D01*
X119730026Y-54062085D01*
X119498191Y-54108200D01*
X119261809Y-54108200D01*
X119029974Y-54062085D01*
X118811588Y-53971627D01*
X118615042Y-53840299D01*
X118447901Y-53673158D01*
X118316573Y-53476612D01*
X118226115Y-53258226D01*
X118180000Y-53026391D01*
X118180000Y-52790009D01*
X118226115Y-52558174D01*
X118316573Y-52339788D01*
X118447901Y-52143242D01*
X118615042Y-51976101D01*
X118811588Y-51844773D01*
X119029974Y-51754315D01*
X119261809Y-51708200D01*
X119498191Y-51708200D01*
X119730026Y-51754315D01*
X119730026Y-51754315D01*
G37*
G36*
X122731000Y-52559200D02*
X121229000Y-52559200D01*
X121229000Y-51657200D01*
X122731000Y-51657200D01*
X122731000Y-52559200D01*
X122731000Y-52559200D01*
G37*
G36*
X117531000Y-52559200D02*
X116029000Y-52559200D01*
X116029000Y-51657200D01*
X117531000Y-51657200D01*
X117531000Y-52559200D01*
X117531000Y-52559200D01*
G37*
G36*
X80497800Y-47860000D02*
X78995800Y-47860000D01*
X78995800Y-46958000D01*
X80497800Y-46958000D01*
X80497800Y-47860000D01*
X80497800Y-47860000D01*
G37*
G36*
X85697800Y-47860000D02*
X84195800Y-47860000D01*
X84195800Y-46958000D01*
X85697800Y-46958000D01*
X85697800Y-47860000D01*
X85697800Y-47860000D01*
G37*
G36*
X82696826Y-45455115D02*
X82915212Y-45545573D01*
X83111758Y-45676901D01*
X83278899Y-45844042D01*
X83410227Y-46040588D01*
X83500685Y-46258974D01*
X83546800Y-46490809D01*
X83546800Y-46727191D01*
X83500685Y-46959026D01*
X83410227Y-47177412D01*
X83278899Y-47373958D01*
X83111758Y-47541099D01*
X82915212Y-47672427D01*
X82696826Y-47762885D01*
X82464991Y-47809000D01*
X82228609Y-47809000D01*
X81996774Y-47762885D01*
X81778388Y-47672427D01*
X81581842Y-47541099D01*
X81414701Y-47373958D01*
X81283373Y-47177412D01*
X81192915Y-46959026D01*
X81146800Y-46727191D01*
X81146800Y-46490809D01*
X81192915Y-46258974D01*
X81283373Y-46040588D01*
X81414701Y-45844042D01*
X81581842Y-45676901D01*
X81778388Y-45545573D01*
X81996774Y-45455115D01*
X82228609Y-45409000D01*
X82464991Y-45409000D01*
X82696826Y-45455115D01*
X82696826Y-45455115D01*
G37*
G36*
X85697800Y-46260000D02*
X84195800Y-46260000D01*
X84195800Y-45358000D01*
X85697800Y-45358000D01*
X85697800Y-46260000D01*
X85697800Y-46260000D01*
G37*
G36*
X80497800Y-46260000D02*
X78995800Y-46260000D01*
X78995800Y-45358000D01*
X80497800Y-45358000D01*
X80497800Y-46260000D01*
X80497800Y-46260000D01*
G37*
G36*
X46113000Y-36003800D02*
X44311000Y-36003800D01*
X44311000Y-34201800D01*
X46113000Y-34201800D01*
X46113000Y-36003800D01*
X46113000Y-36003800D01*
G37*
G36*
X50402442Y-34208318D02*
X50468627Y-34214837D01*
X50581853Y-34249184D01*
X50638467Y-34266357D01*
X50777087Y-34340452D01*
X50794991Y-34350022D01*
X50830729Y-34379352D01*
X50932186Y-34462614D01*
X51015448Y-34564071D01*
X51044778Y-34599809D01*
X51044779Y-34599811D01*
X51128443Y-34756333D01*
X51128443Y-34756334D01*
X51179963Y-34926173D01*
X51197359Y-35102800D01*
X51179963Y-35279427D01*
X51145616Y-35392653D01*
X51128443Y-35449267D01*
X51054348Y-35587887D01*
X51044778Y-35605791D01*
X51015448Y-35641529D01*
X50932186Y-35742986D01*
X50830729Y-35826248D01*
X50794991Y-35855578D01*
X50794989Y-35855579D01*
X50638467Y-35939243D01*
X50581853Y-35956416D01*
X50468627Y-35990763D01*
X50402442Y-35997282D01*
X50336260Y-36003800D01*
X50247740Y-36003800D01*
X50181558Y-35997282D01*
X50115373Y-35990763D01*
X50002147Y-35956416D01*
X49945533Y-35939243D01*
X49789011Y-35855579D01*
X49789009Y-35855578D01*
X49753271Y-35826248D01*
X49651814Y-35742986D01*
X49568552Y-35641529D01*
X49539222Y-35605791D01*
X49529652Y-35587887D01*
X49455557Y-35449267D01*
X49438384Y-35392653D01*
X49404037Y-35279427D01*
X49386641Y-35102800D01*
X49404037Y-34926173D01*
X49455557Y-34756334D01*
X49455557Y-34756333D01*
X49539221Y-34599811D01*
X49539222Y-34599809D01*
X49568552Y-34564071D01*
X49651814Y-34462614D01*
X49753271Y-34379352D01*
X49789009Y-34350022D01*
X49806913Y-34340452D01*
X49945533Y-34266357D01*
X50002147Y-34249184D01*
X50115373Y-34214837D01*
X50181558Y-34208318D01*
X50247740Y-34201800D01*
X50336260Y-34201800D01*
X50402442Y-34208318D01*
X50402442Y-34208318D01*
G37*
G36*
X47862442Y-34208318D02*
X47928627Y-34214837D01*
X48041853Y-34249184D01*
X48098467Y-34266357D01*
X48237087Y-34340452D01*
X48254991Y-34350022D01*
X48290729Y-34379352D01*
X48392186Y-34462614D01*
X48475448Y-34564071D01*
X48504778Y-34599809D01*
X48504779Y-34599811D01*
X48588443Y-34756333D01*
X48588443Y-34756334D01*
X48639963Y-34926173D01*
X48657359Y-35102800D01*
X48639963Y-35279427D01*
X48605616Y-35392653D01*
X48588443Y-35449267D01*
X48514348Y-35587887D01*
X48504778Y-35605791D01*
X48475448Y-35641529D01*
X48392186Y-35742986D01*
X48290729Y-35826248D01*
X48254991Y-35855578D01*
X48254989Y-35855579D01*
X48098467Y-35939243D01*
X48041853Y-35956416D01*
X47928627Y-35990763D01*
X47862442Y-35997282D01*
X47796260Y-36003800D01*
X47707740Y-36003800D01*
X47641558Y-35997282D01*
X47575373Y-35990763D01*
X47462147Y-35956416D01*
X47405533Y-35939243D01*
X47249011Y-35855579D01*
X47249009Y-35855578D01*
X47213271Y-35826248D01*
X47111814Y-35742986D01*
X47028552Y-35641529D01*
X46999222Y-35605791D01*
X46989652Y-35587887D01*
X46915557Y-35449267D01*
X46898384Y-35392653D01*
X46864037Y-35279427D01*
X46846641Y-35102800D01*
X46864037Y-34926173D01*
X46915557Y-34756334D01*
X46915557Y-34756333D01*
X46999221Y-34599811D01*
X46999222Y-34599809D01*
X47028552Y-34564071D01*
X47111814Y-34462614D01*
X47213271Y-34379352D01*
X47249009Y-34350022D01*
X47266913Y-34340452D01*
X47405533Y-34266357D01*
X47462147Y-34249184D01*
X47575373Y-34214837D01*
X47641558Y-34208318D01*
X47707740Y-34201800D01*
X47796260Y-34201800D01*
X47862442Y-34208318D01*
X47862442Y-34208318D01*
G37*
G36*
X45322443Y-31668319D02*
X45388627Y-31674837D01*
X45501853Y-31709184D01*
X45558467Y-31726357D01*
X45697087Y-31800452D01*
X45714991Y-31810022D01*
X45750729Y-31839352D01*
X45852186Y-31922614D01*
X45935448Y-32024071D01*
X45964778Y-32059809D01*
X45964779Y-32059811D01*
X46048443Y-32216333D01*
X46048443Y-32216334D01*
X46099963Y-32386173D01*
X46117359Y-32562800D01*
X46099963Y-32739427D01*
X46065616Y-32852653D01*
X46048443Y-32909267D01*
X45974348Y-33047887D01*
X45964778Y-33065791D01*
X45935448Y-33101529D01*
X45852186Y-33202986D01*
X45750729Y-33286248D01*
X45714991Y-33315578D01*
X45714989Y-33315579D01*
X45558467Y-33399243D01*
X45501853Y-33416416D01*
X45388627Y-33450763D01*
X45322443Y-33457281D01*
X45256260Y-33463800D01*
X45167740Y-33463800D01*
X45101557Y-33457281D01*
X45035373Y-33450763D01*
X44922147Y-33416416D01*
X44865533Y-33399243D01*
X44709011Y-33315579D01*
X44709009Y-33315578D01*
X44673271Y-33286248D01*
X44571814Y-33202986D01*
X44488552Y-33101529D01*
X44459222Y-33065791D01*
X44449652Y-33047887D01*
X44375557Y-32909267D01*
X44358384Y-32852653D01*
X44324037Y-32739427D01*
X44306641Y-32562800D01*
X44324037Y-32386173D01*
X44375557Y-32216334D01*
X44375557Y-32216333D01*
X44459221Y-32059811D01*
X44459222Y-32059809D01*
X44488552Y-32024071D01*
X44571814Y-31922614D01*
X44673271Y-31839352D01*
X44709009Y-31810022D01*
X44726913Y-31800452D01*
X44865533Y-31726357D01*
X44922147Y-31709184D01*
X45035373Y-31674837D01*
X45101557Y-31668319D01*
X45167740Y-31661800D01*
X45256260Y-31661800D01*
X45322443Y-31668319D01*
X45322443Y-31668319D01*
G37*
G36*
X47862443Y-31668319D02*
X47928627Y-31674837D01*
X48041853Y-31709184D01*
X48098467Y-31726357D01*
X48237087Y-31800452D01*
X48254991Y-31810022D01*
X48290729Y-31839352D01*
X48392186Y-31922614D01*
X48475448Y-32024071D01*
X48504778Y-32059809D01*
X48504779Y-32059811D01*
X48588443Y-32216333D01*
X48588443Y-32216334D01*
X48639963Y-32386173D01*
X48657359Y-32562800D01*
X48639963Y-32739427D01*
X48605616Y-32852653D01*
X48588443Y-32909267D01*
X48514348Y-33047887D01*
X48504778Y-33065791D01*
X48475448Y-33101529D01*
X48392186Y-33202986D01*
X48290729Y-33286248D01*
X48254991Y-33315578D01*
X48254989Y-33315579D01*
X48098467Y-33399243D01*
X48041853Y-33416416D01*
X47928627Y-33450763D01*
X47862443Y-33457281D01*
X47796260Y-33463800D01*
X47707740Y-33463800D01*
X47641557Y-33457281D01*
X47575373Y-33450763D01*
X47462147Y-33416416D01*
X47405533Y-33399243D01*
X47249011Y-33315579D01*
X47249009Y-33315578D01*
X47213271Y-33286248D01*
X47111814Y-33202986D01*
X47028552Y-33101529D01*
X46999222Y-33065791D01*
X46989652Y-33047887D01*
X46915557Y-32909267D01*
X46898384Y-32852653D01*
X46864037Y-32739427D01*
X46846641Y-32562800D01*
X46864037Y-32386173D01*
X46915557Y-32216334D01*
X46915557Y-32216333D01*
X46999221Y-32059811D01*
X46999222Y-32059809D01*
X47028552Y-32024071D01*
X47111814Y-31922614D01*
X47213271Y-31839352D01*
X47249009Y-31810022D01*
X47266913Y-31800452D01*
X47405533Y-31726357D01*
X47462147Y-31709184D01*
X47575373Y-31674837D01*
X47641557Y-31668319D01*
X47707740Y-31661800D01*
X47796260Y-31661800D01*
X47862443Y-31668319D01*
X47862443Y-31668319D01*
G37*
G36*
X50402443Y-31668319D02*
X50468627Y-31674837D01*
X50581853Y-31709184D01*
X50638467Y-31726357D01*
X50777087Y-31800452D01*
X50794991Y-31810022D01*
X50830729Y-31839352D01*
X50932186Y-31922614D01*
X51015448Y-32024071D01*
X51044778Y-32059809D01*
X51044779Y-32059811D01*
X51128443Y-32216333D01*
X51128443Y-32216334D01*
X51179963Y-32386173D01*
X51197359Y-32562800D01*
X51179963Y-32739427D01*
X51145616Y-32852653D01*
X51128443Y-32909267D01*
X51054348Y-33047887D01*
X51044778Y-33065791D01*
X51015448Y-33101529D01*
X50932186Y-33202986D01*
X50830729Y-33286248D01*
X50794991Y-33315578D01*
X50794989Y-33315579D01*
X50638467Y-33399243D01*
X50581853Y-33416416D01*
X50468627Y-33450763D01*
X50402443Y-33457281D01*
X50336260Y-33463800D01*
X50247740Y-33463800D01*
X50181557Y-33457281D01*
X50115373Y-33450763D01*
X50002147Y-33416416D01*
X49945533Y-33399243D01*
X49789011Y-33315579D01*
X49789009Y-33315578D01*
X49753271Y-33286248D01*
X49651814Y-33202986D01*
X49568552Y-33101529D01*
X49539222Y-33065791D01*
X49529652Y-33047887D01*
X49455557Y-32909267D01*
X49438384Y-32852653D01*
X49404037Y-32739427D01*
X49386641Y-32562800D01*
X49404037Y-32386173D01*
X49455557Y-32216334D01*
X49455557Y-32216333D01*
X49539221Y-32059811D01*
X49539222Y-32059809D01*
X49568552Y-32024071D01*
X49651814Y-31922614D01*
X49753271Y-31839352D01*
X49789009Y-31810022D01*
X49806913Y-31800452D01*
X49945533Y-31726357D01*
X50002147Y-31709184D01*
X50115373Y-31674837D01*
X50181557Y-31668319D01*
X50247740Y-31661800D01*
X50336260Y-31661800D01*
X50402443Y-31668319D01*
X50402443Y-31668319D01*
G37*
G36*
X99503800Y-30492000D02*
X97701800Y-30492000D01*
X97701800Y-28690000D01*
X99503800Y-28690000D01*
X99503800Y-30492000D01*
X99503800Y-30492000D01*
G37*
G36*
X101253242Y-28696518D02*
X101319427Y-28703037D01*
X101432653Y-28737384D01*
X101489267Y-28754557D01*
X101627887Y-28828652D01*
X101645791Y-28838222D01*
X101681529Y-28867552D01*
X101782986Y-28950814D01*
X101866248Y-29052271D01*
X101895578Y-29088009D01*
X101895579Y-29088011D01*
X101979243Y-29244533D01*
X101979243Y-29244534D01*
X102030763Y-29414373D01*
X102048159Y-29591000D01*
X102030763Y-29767627D01*
X101996416Y-29880853D01*
X101979243Y-29937467D01*
X101905148Y-30076087D01*
X101895578Y-30093991D01*
X101866248Y-30129729D01*
X101782986Y-30231186D01*
X101681529Y-30314448D01*
X101645791Y-30343778D01*
X101645789Y-30343779D01*
X101489267Y-30427443D01*
X101432653Y-30444616D01*
X101319427Y-30478963D01*
X101253243Y-30485481D01*
X101187060Y-30492000D01*
X101098540Y-30492000D01*
X101032357Y-30485481D01*
X100966173Y-30478963D01*
X100852947Y-30444616D01*
X100796333Y-30427443D01*
X100639811Y-30343779D01*
X100639809Y-30343778D01*
X100604071Y-30314448D01*
X100502614Y-30231186D01*
X100419352Y-30129729D01*
X100390022Y-30093991D01*
X100380452Y-30076087D01*
X100306357Y-29937467D01*
X100289184Y-29880853D01*
X100254837Y-29767627D01*
X100237441Y-29591000D01*
X100254837Y-29414373D01*
X100306357Y-29244534D01*
X100306357Y-29244533D01*
X100390021Y-29088011D01*
X100390022Y-29088009D01*
X100419352Y-29052271D01*
X100502614Y-28950814D01*
X100604071Y-28867552D01*
X100639809Y-28838222D01*
X100657713Y-28828652D01*
X100796333Y-28754557D01*
X100852947Y-28737384D01*
X100966173Y-28703037D01*
X101032358Y-28696518D01*
X101098540Y-28690000D01*
X101187060Y-28690000D01*
X101253242Y-28696518D01*
X101253242Y-28696518D01*
G37*
G36*
X103793242Y-28696518D02*
X103859427Y-28703037D01*
X103972653Y-28737384D01*
X104029267Y-28754557D01*
X104167887Y-28828652D01*
X104185791Y-28838222D01*
X104221529Y-28867552D01*
X104322986Y-28950814D01*
X104406248Y-29052271D01*
X104435578Y-29088009D01*
X104435579Y-29088011D01*
X104519243Y-29244533D01*
X104519243Y-29244534D01*
X104570763Y-29414373D01*
X104588159Y-29591000D01*
X104570763Y-29767627D01*
X104536416Y-29880853D01*
X104519243Y-29937467D01*
X104445148Y-30076087D01*
X104435578Y-30093991D01*
X104406248Y-30129729D01*
X104322986Y-30231186D01*
X104221529Y-30314448D01*
X104185791Y-30343778D01*
X104185789Y-30343779D01*
X104029267Y-30427443D01*
X103972653Y-30444616D01*
X103859427Y-30478963D01*
X103793243Y-30485481D01*
X103727060Y-30492000D01*
X103638540Y-30492000D01*
X103572357Y-30485481D01*
X103506173Y-30478963D01*
X103392947Y-30444616D01*
X103336333Y-30427443D01*
X103179811Y-30343779D01*
X103179809Y-30343778D01*
X103144071Y-30314448D01*
X103042614Y-30231186D01*
X102959352Y-30129729D01*
X102930022Y-30093991D01*
X102920452Y-30076087D01*
X102846357Y-29937467D01*
X102829184Y-29880853D01*
X102794837Y-29767627D01*
X102777441Y-29591000D01*
X102794837Y-29414373D01*
X102846357Y-29244534D01*
X102846357Y-29244533D01*
X102930021Y-29088011D01*
X102930022Y-29088009D01*
X102959352Y-29052271D01*
X103042614Y-28950814D01*
X103144071Y-28867552D01*
X103179809Y-28838222D01*
X103197713Y-28828652D01*
X103336333Y-28754557D01*
X103392947Y-28737384D01*
X103506173Y-28703037D01*
X103572358Y-28696518D01*
X103638540Y-28690000D01*
X103727060Y-28690000D01*
X103793242Y-28696518D01*
X103793242Y-28696518D01*
G37*
G36*
X103793243Y-26156519D02*
X103859427Y-26163037D01*
X103972653Y-26197384D01*
X104029267Y-26214557D01*
X104167887Y-26288652D01*
X104185791Y-26298222D01*
X104221529Y-26327552D01*
X104322986Y-26410814D01*
X104406248Y-26512271D01*
X104435578Y-26548009D01*
X104435579Y-26548011D01*
X104519243Y-26704533D01*
X104519243Y-26704534D01*
X104570763Y-26874373D01*
X104588159Y-27051000D01*
X104570763Y-27227627D01*
X104536416Y-27340853D01*
X104519243Y-27397467D01*
X104445148Y-27536087D01*
X104435578Y-27553991D01*
X104406248Y-27589729D01*
X104322986Y-27691186D01*
X104221529Y-27774448D01*
X104185791Y-27803778D01*
X104185789Y-27803779D01*
X104029267Y-27887443D01*
X103972653Y-27904616D01*
X103859427Y-27938963D01*
X103793242Y-27945482D01*
X103727060Y-27952000D01*
X103638540Y-27952000D01*
X103572358Y-27945482D01*
X103506173Y-27938963D01*
X103392947Y-27904616D01*
X103336333Y-27887443D01*
X103179811Y-27803779D01*
X103179809Y-27803778D01*
X103144071Y-27774448D01*
X103042614Y-27691186D01*
X102959352Y-27589729D01*
X102930022Y-27553991D01*
X102920452Y-27536087D01*
X102846357Y-27397467D01*
X102829184Y-27340853D01*
X102794837Y-27227627D01*
X102777441Y-27051000D01*
X102794837Y-26874373D01*
X102846357Y-26704534D01*
X102846357Y-26704533D01*
X102930021Y-26548011D01*
X102930022Y-26548009D01*
X102959352Y-26512271D01*
X103042614Y-26410814D01*
X103144071Y-26327552D01*
X103179809Y-26298222D01*
X103197713Y-26288652D01*
X103336333Y-26214557D01*
X103392947Y-26197384D01*
X103506173Y-26163037D01*
X103572357Y-26156519D01*
X103638540Y-26150000D01*
X103727060Y-26150000D01*
X103793243Y-26156519D01*
X103793243Y-26156519D01*
G37*
G36*
X101253243Y-26156519D02*
X101319427Y-26163037D01*
X101432653Y-26197384D01*
X101489267Y-26214557D01*
X101627887Y-26288652D01*
X101645791Y-26298222D01*
X101681529Y-26327552D01*
X101782986Y-26410814D01*
X101866248Y-26512271D01*
X101895578Y-26548009D01*
X101895579Y-26548011D01*
X101979243Y-26704533D01*
X101979243Y-26704534D01*
X102030763Y-26874373D01*
X102048159Y-27051000D01*
X102030763Y-27227627D01*
X101996416Y-27340853D01*
X101979243Y-27397467D01*
X101905148Y-27536087D01*
X101895578Y-27553991D01*
X101866248Y-27589729D01*
X101782986Y-27691186D01*
X101681529Y-27774448D01*
X101645791Y-27803778D01*
X101645789Y-27803779D01*
X101489267Y-27887443D01*
X101432653Y-27904616D01*
X101319427Y-27938963D01*
X101253242Y-27945482D01*
X101187060Y-27952000D01*
X101098540Y-27952000D01*
X101032358Y-27945482D01*
X100966173Y-27938963D01*
X100852947Y-27904616D01*
X100796333Y-27887443D01*
X100639811Y-27803779D01*
X100639809Y-27803778D01*
X100604071Y-27774448D01*
X100502614Y-27691186D01*
X100419352Y-27589729D01*
X100390022Y-27553991D01*
X100380452Y-27536087D01*
X100306357Y-27397467D01*
X100289184Y-27340853D01*
X100254837Y-27227627D01*
X100237441Y-27051000D01*
X100254837Y-26874373D01*
X100306357Y-26704534D01*
X100306357Y-26704533D01*
X100390021Y-26548011D01*
X100390022Y-26548009D01*
X100419352Y-26512271D01*
X100502614Y-26410814D01*
X100604071Y-26327552D01*
X100639809Y-26298222D01*
X100657713Y-26288652D01*
X100796333Y-26214557D01*
X100852947Y-26197384D01*
X100966173Y-26163037D01*
X101032357Y-26156519D01*
X101098540Y-26150000D01*
X101187060Y-26150000D01*
X101253243Y-26156519D01*
X101253243Y-26156519D01*
G37*
G36*
X98713243Y-26156519D02*
X98779427Y-26163037D01*
X98892653Y-26197384D01*
X98949267Y-26214557D01*
X99087887Y-26288652D01*
X99105791Y-26298222D01*
X99141529Y-26327552D01*
X99242986Y-26410814D01*
X99326248Y-26512271D01*
X99355578Y-26548009D01*
X99355579Y-26548011D01*
X99439243Y-26704533D01*
X99439243Y-26704534D01*
X99490763Y-26874373D01*
X99508159Y-27051000D01*
X99490763Y-27227627D01*
X99456416Y-27340853D01*
X99439243Y-27397467D01*
X99365148Y-27536087D01*
X99355578Y-27553991D01*
X99326248Y-27589729D01*
X99242986Y-27691186D01*
X99141529Y-27774448D01*
X99105791Y-27803778D01*
X99105789Y-27803779D01*
X98949267Y-27887443D01*
X98892653Y-27904616D01*
X98779427Y-27938963D01*
X98713242Y-27945482D01*
X98647060Y-27952000D01*
X98558540Y-27952000D01*
X98492358Y-27945482D01*
X98426173Y-27938963D01*
X98312947Y-27904616D01*
X98256333Y-27887443D01*
X98099811Y-27803779D01*
X98099809Y-27803778D01*
X98064071Y-27774448D01*
X97962614Y-27691186D01*
X97879352Y-27589729D01*
X97850022Y-27553991D01*
X97840452Y-27536087D01*
X97766357Y-27397467D01*
X97749184Y-27340853D01*
X97714837Y-27227627D01*
X97697441Y-27051000D01*
X97714837Y-26874373D01*
X97766357Y-26704534D01*
X97766357Y-26704533D01*
X97850021Y-26548011D01*
X97850022Y-26548009D01*
X97879352Y-26512271D01*
X97962614Y-26410814D01*
X98064071Y-26327552D01*
X98099809Y-26298222D01*
X98117713Y-26288652D01*
X98256333Y-26214557D01*
X98312947Y-26197384D01*
X98426173Y-26163037D01*
X98492357Y-26156519D01*
X98558540Y-26150000D01*
X98647060Y-26150000D01*
X98713243Y-26156519D01*
X98713243Y-26156519D01*
G37*
M02*
